<svg id="Layer_1" data-name="Layer 1" xmlns="http://www.w3.org/2000/svg" width="320" height="160" viewBox="0 0 320 160">
  <defs>
    <style>
      .cls-1 {
        fill: #69bda9;
      }

      .cls-2 {
        fill: #9e0142;
      }

      .cls-3 {
        fill: #f0704a;
      }

      .cls-4 {
        fill: #fedd8d;
      }

      .cls-5 {
        fill: #e0f3a1;
      }

      .cls-6 {
        fill: #5e4fa2;
      }

      .cls-7 {
        fill: none;
        stroke: #000;
      }

      .cls-8 {
        isolation: isolate;
        font-size: 10px;
        font-family: Helvetica;
      }
    </style>
  </defs>
  <g id="viz">
    <g>
      <g>
        <path class="cls-1" d="M0,81.8476a44.8176,44.8176,0,0,1,6.952-.7647c2.3176-.0107,4.6357.3452,6.9519.3117s4.6306-.4563,6.952.2238,4.65,2.4633,6.971,2.8949,4.6354-.4883,6.952-1.735,4.6354-2.82,6.952-3.5848a22.7508,22.7508,0,0,1,6.9519-.7612,20.7412,20.7412,0,0,0,6.971-1.0168,33.4834,33.4834,0,0,0,6.952-4.0253c2.3165-1.5934,4.6354-3.2,6.952-4.9575s4.6306-3.6642,6.9519-4.4336,4.65-.401,6.971-.0848,4.6355.58,6.952.77a27.9579,27.9579,0,0,0,6.952-.0846c2.3165-.3892,4.6307-1.2825,6.9519-1.4822a18.96,18.96,0,0,1,6.9711.9819,17.8348,17.8348,0,0,1,6.9519,3.544c2.3166,1.9743,4.6355,5.0413,6.952,6.9918s4.6307,2.7849,6.952,4.4485a35.5993,35.5993,0,0,1,6.971,7.1607c2.3213,3.004,4.6354,6.5189,6.9519,9.5321a54.6629,54.6629,0,0,0,6.952,7.5834,18.8771,18.8771,0,0,0,6.952,4.3218c2.3213.6579,4.65.368,6.971,1.8429s4.6354,4.7143,6.952,7.5659,4.6354,5.3154,6.9519,6.6151a11.5921,11.5921,0,0,0,6.952,1.2444,20.2873,20.2873,0,0,0,6.971-1.7839,46.1506,46.1506,0,0,0,6.952-4.3566c2.3165-1.6472,4.6354-3.3075,6.9519-3.46s4.6307,1.2019,6.952,1.41,4.65-.7319,6.971-1.7575,4.6355-2.1372,6.952-3.4274a25.8593,25.8593,0,0,0,6.952-5.2888c2.3165-2.53,4.6306-6.1212,6.9519-8.0687s4.65-2.251,6.971-3.2405,4.6355-2.6649,6.952-3.303,4.6354-.2392,6.952-.3373,4.6306-.6931,6.9519-.8874,4.65.012,6.9711-.2727,4.6354-1.06,6.9519-1.4624a18.9441,18.9441,0,0,1,6.952.0263,30.6138,30.6138,0,0,1,6.952,2.4854c2.3212,1.09,4.65,2.33,6.971,3.2826s4.6358,1.618,6.9519,2.5319,4.6341,2.0761,6.952,3.2384h0c-2.3179-1.1623-4.6358-2.3246-6.952-3.2384s-4.6306-1.5792-6.9519-2.5319-4.65-2.1928-6.971-3.2826a30.6138,30.6138,0,0,0-6.952-2.4854,18.9441,18.9441,0,0,0-6.952-.0263c-2.3165.4019-4.6306,1.1777-6.9519,1.4624s-4.65.0783-6.9711.2727-4.6354.7894-6.9519.8874-4.6355-.3009-6.952.3373-4.6307,2.3133-6.952,3.303-4.65,1.2938-6.971,3.2469-4.6354,5.5552-6.9519,8.0843a26.31,26.31,0,0,1-6.952,5.2947q-3.4747,1.9643-6.952,3.5017a16.3514,16.3514,0,0,1-6.971,1.8464c-2.3213-.08-4.6354-1.136-6.952-.7056s-4.6354,2.3474-6.9519,4.3418-4.6307,4.0664-6.952,5.7059-4.65,2.8467-6.971,4.2365-4.6354,2.9623-6.952,3.3228-4.6354-.4909-6.9519-2.609-4.6307-5.5027-6.952-5.9987-4.65,1.8966-6.971,2.7741-4.6355.24-6.952.73-4.6354,2.1065-6.952.4484-4.6306-6.5912-6.9519-9.0665-4.65-2.4929-6.971-3.9662-4.6355-4.4024-6.952-5.1788-4.6354.6-6.952.1356-4.6306-2.7692-6.9519-3.5277-4.65.0292-6.9711-.1482a14.2982,14.2982,0,0,1-6.9519-2.9648c-2.3165-1.6447-4.6355-3.7914-6.952-5.0549a11.3631,11.3631,0,0,0-6.952-1.37c-2.3212.2738-4.65,1.2014-6.971.8959s-4.6354-1.8441-6.9519-2.821-4.6355-1.3921-6.952-.3153-4.6307,3.6454-6.952,4.6576-4.65.4677-6.971.7366-4.6354,1.3512-6.9519,4.5259-4.6355,8.4422-6.952,9.7021-4.6307-1.4876-6.952-4.2622a50.3391,50.3391,0,0,0-6.971-7.3615,13.6136,13.6136,0,0,0-6.952-2.824,33.4483,33.4483,0,0,0-6.9519.17c-2.3177.2129-4.6348.4112-6.952.6095Z"/>
        <path class="cls-2" d="M0,81.8476a44.8176,44.8176,0,0,1,6.952-.7647c2.3176-.0107,4.6357.3452,6.9519.3117s4.6306-.4563,6.952.2238,4.65,2.4633,6.971,2.8949,4.6354-.4882,6.952-1.735,4.6354-2.82,6.952-3.5848a22.8161,22.8161,0,0,1,6.9519-.7612,20.9421,20.9421,0,0,0,6.971-1.0168,32.2254,32.2254,0,0,0,6.952-4.0253c2.3165-1.6164,4.6354-3.2865,6.952-5.2206s4.6306-4.1324,6.9519-5.685,4.65-2.46,6.971-4.0844a40.3827,40.3827,0,0,0,6.952-6.6433c2.3165-2.6761,4.6355-5.686,6.952-8.5265a39.4057,39.4057,0,0,1,6.9519-7.15c2.3213-1.6385,4.65-2.2447,6.9711-3.77s4.6354-3.97,6.9519-4.9651,4.6355-.54,6.952-1.6166,4.6307-3.6842,6.952-4.9667,4.65-1.24,6.971-3.6425,4.6354-7.2514,6.9519-8.9231,4.6355-.1666,6.952.3245,4.6307-.0318,6.952.9206,4.65,3.38,6.971,3.3915,4.6354-2.3939,6.952-4.4215,4.6354-3.6776,6.9519-3.9241,4.6307.9106,6.952,2.304,4.65,3.023,6.971,4.654,4.6354,3.2631,6.952,5.2154,4.6354,4.2245,6.9519,5.178,4.6307.5882,6.952,2.36,4.65,5.6814,6.971,8.584,4.6355,4.7987,6.952,7.8714,4.6354,7.3222,6.952,10.7529a40.4025,40.4025,0,0,0,6.9519,8.0521,47.3735,47.3735,0,0,0,6.971,4.812,48.715,48.715,0,0,0,6.952,3.6914c2.3165.9122,4.6354,1.3532,6.952,2.3406s4.6306,2.5214,6.9519,3.6227a29.2081,29.2081,0,0,0,6.9711,2.2273c2.3213.4573,4.6354.7034,6.9519,1.1018a22.35,22.35,0,0,1,6.952,2.1826c2.3165,1.2333,4.6307,3.1491,6.952,4.6s4.65,2.4382,6.971,3.8837,4.6358,3.3494,6.9519,4.8742A62.973,62.973,0,0,0,320,96.6121v3.6651c-2.3179-1.1623-4.6358-2.3246-6.952-3.2384s-4.6306-1.5792-6.9519-2.5319-4.65-2.1928-6.971-3.2826a30.6138,30.6138,0,0,0-6.952-2.4854,18.9441,18.9441,0,0,0-6.952-.0263c-2.3165.4019-4.6306,1.1777-6.9519,1.4624s-4.65.0783-6.9711.2727-4.6354.7894-6.9519.8874-4.6355-.3009-6.952.3373-4.6307,2.3135-6.952,3.303-4.65,1.2931-6.971,3.2405-4.6354,5.5387-6.9519,8.0687a25.8593,25.8593,0,0,1-6.952,5.2888c-2.3165,1.29-4.6307,2.4018-6.952,3.4274s-4.65,1.9651-6.971,1.7575-4.6354-1.5623-6.952-1.41-4.6354,1.8132-6.9519,3.46a46.1506,46.1506,0,0,1-6.952,4.3566,20.2873,20.2873,0,0,1-6.971,1.7839,11.5921,11.5921,0,0,1-6.952-1.2444c-2.3165-1.3-4.6354-3.7635-6.9519-6.6151s-4.6307-6.0911-6.952-7.5659-4.65-1.185-6.971-1.8429a18.8771,18.8771,0,0,1-6.952-4.3218,54.6629,54.6629,0,0,1-6.952-7.5834c-2.3165-3.0132-4.6306-6.5281-6.9519-9.5321a35.5993,35.5993,0,0,0-6.971-7.1607c-2.3213-1.6636-4.6355-2.4979-6.952-4.4485s-4.6354-5.0175-6.952-6.9918a17.8348,17.8348,0,0,0-6.9519-3.544,18.96,18.96,0,0,0-6.9711-.9819c-2.3212.2-4.6354,1.093-6.9519,1.4822a27.9579,27.9579,0,0,1-6.952.0846c-2.3165-.1895-4.6307-.4535-6.952-.77s-4.65-.6846-6.971.0848-4.6354,2.6765-6.9519,4.4336-4.6355,3.3641-6.952,4.9575a33.4834,33.4834,0,0,1-6.952,4.0253,20.7412,20.7412,0,0,1-6.971,1.0168,22.7508,22.7508,0,0,0-6.9519.7612c-2.3166.7648-4.6355,2.3382-6.952,3.5848s-4.6307,2.1666-6.952,1.735-4.65-2.2147-6.971-2.8949-4.6357-.2573-6.952-.2238S9.27,81.0722,6.952,81.0829A44.8176,44.8176,0,0,0,0,81.8476Z"/>
        <path class="cls-3" d="M0,81.8476a44.8176,44.8176,0,0,1,6.952-.7647c2.3176-.0107,4.6357.3452,6.9519.3117s4.6306-.4563,6.952.2238,4.65,2.4633,6.971,2.8949,4.6354-.4882,6.952-1.735,4.6354-2.82,6.952-3.5848a22.8161,22.8161,0,0,1,6.9519-.7612,20.9421,20.9421,0,0,0,6.971-1.0168,32.2254,32.2254,0,0,0,6.952-4.0253c2.3165-1.6164,4.6354-3.2865,6.952-5.2206s4.6306-4.1324,6.9519-5.685,4.65-2.46,6.971-4.0844a40.3827,40.3827,0,0,0,6.952-6.6433c2.3165-2.6761,4.6355-5.686,6.952-8.5265a39.4057,39.4057,0,0,1,6.9519-7.15c2.3213-1.6385,4.65-2.2447,6.9711-3.77s4.6354-3.97,6.9519-4.9651,4.6355-.54,6.952-1.6166,4.6307-3.6842,6.952-4.9667,4.65-1.24,6.971-3.6425,4.6354-7.2514,6.9519-8.9231,4.6355-.1666,6.952.3245,4.6307-.0318,6.952.9206,4.65,3.38,6.971,3.3915,4.6354-2.3939,6.952-4.4215,4.6354-3.6774,6.9519-3.9241,4.6307.91,6.952,2.304,4.65,3.0266,6.971,4.654,4.6354,3.25,6.952,5.2154,4.6354,4.2734,6.9519,5.178,4.6307.4059,6.952.88,4.65,1.9223,6.971,2.8545,4.6355,1.3489,6.952,2.6133a34.4756,34.4756,0,0,1,6.952,5.64c2.3165,2.2638,4.6306,4.6792,6.9519,6.629a65.3792,65.3792,0,0,0,6.971,4.9281,32.6228,32.6228,0,0,0,6.952,3.7628c2.3165.7637,4.6354.7865,6.952,1.5051a53.2377,53.2377,0,0,1,6.9519,3.2619c2.3213,1.1291,4.65,1.9728,6.9711,3.1434s4.6354,2.6682,6.9519,3.7693,4.6354,1.806,6.952,3.76,4.6307,5.1578,6.952,7.7314,4.65,4.517,6.971,6.8892,4.6358,5.1729,6.9519,7.2968A44.6159,44.6159,0,0,0,320,91.5228v5.0893a62.973,62.973,0,0,1-6.952-3.8161c-2.3161-1.5248-4.6306-3.4288-6.9519-4.8742s-4.65-2.4323-6.971-3.8837-4.6355-3.3671-6.952-4.6a22.35,22.35,0,0,0-6.952-2.1826c-2.3165-.3984-4.6306-.6445-6.9519-1.1018a29.2081,29.2081,0,0,1-6.9711-2.2273c-2.3213-1.1013-4.6354-2.6352-6.9519-3.6227s-4.6355-1.4284-6.952-2.3406a48.715,48.715,0,0,1-6.952-3.6914,47.3735,47.3735,0,0,1-6.971-4.812,40.4025,40.4025,0,0,1-6.9519-8.0521c-2.3166-3.4307-4.6355-7.68-6.952-10.7529s-4.6307-4.9687-6.952-7.8714-4.65-6.812-6.971-8.584-4.6354-1.4067-6.952-2.36-4.6354-3.2258-6.9519-5.178-4.6307-3.5845-6.952-5.2154-4.65-3.2606-6.971-4.654-4.6354-2.55-6.952-2.304-4.6354,1.8965-6.9519,3.9241-4.6307,4.4328-6.952,4.4215-4.65-2.4391-6.971-3.3915-4.6355-.4295-6.952-.9206-4.6354-1.9962-6.952-.3245-4.6306,6.52-6.9519,8.9231-4.65,2.36-6.971,3.6425-4.6355,3.89-6.952,4.9667-4.6354.6217-6.952,1.6166-4.6306,3.44-6.9519,4.9651-4.65,2.1316-6.9711,3.77a39.4057,39.4057,0,0,0-6.9519,7.15c-2.3165,2.84-4.6355,5.85-6.952,8.5265A40.3827,40.3827,0,0,1,83.4807,58.4c-2.3212,1.6247-4.65,2.5318-6.971,4.0844s-4.6354,3.7509-6.9519,5.685-4.6355,3.6042-6.952,5.2206a32.2254,32.2254,0,0,1-6.952,4.0253,20.9421,20.9421,0,0,1-6.971,1.0168,22.8161,22.8161,0,0,0-6.9519.7612c-2.3166.7643-4.6355,2.338-6.952,3.5848s-4.6307,2.1667-6.952,1.735-4.65-2.2147-6.971-2.8949-4.6357-.2573-6.952-.2238S9.27,81.0722,6.952,81.0829A44.8176,44.8176,0,0,0,0,81.8476Z"/>
        <path class="cls-4" d="M0,81.8476a44.8176,44.8176,0,0,1,6.952-.7647c2.3176-.0107,4.6357.3452,6.9519.3117s4.6306-.4563,6.952.2238,4.65,2.4633,6.971,2.8949,4.6354-.4882,6.952-1.735,4.6354-2.82,6.952-3.5848a22.8161,22.8161,0,0,1,6.9519-.7612,20.9421,20.9421,0,0,0,6.971-1.0168,32.2213,32.2213,0,0,0,6.952-4.0253c2.3165-1.6165,4.6354-3.2868,6.952-5.2206s4.6306-4.131,6.9519-5.685S81.16,60.02,83.4807,58.4a39.5227,39.5227,0,0,0,6.952-6.6433c2.3165-2.6944,4.6355-5.7543,6.952-8.5265a53.8073,53.8073,0,0,1,6.9519-7.15c2.3213-1.8932,4.65-3.1952,6.9711-5.1878s4.6354-4.6758,6.9519-5.5555,4.6355.0441,6.952-.9293,4.6307-3.8441,6.952-5.3548,4.65-1.6616,6.971-4.1822,4.6354-7.4108,6.9519-9.05,4.6355-.0269,6.952.4979,4.6307-.0377,6.952.83,4.65,3.1665,6.971,2.61,4.6354-3.97,6.952-6.0948,4.6354-2.9635,6.9519-2.621,4.6307,1.8657,6.952,3.2546,4.65,2.6434,6.971,4.2645,4.6354,3.609,6.952,5.5846,4.6354,3.939,6.9519,4.3151,4.6307-.835,6.952-.6915,4.65,1.6417,6.971,3.0112,4.6355,2.61,6.952,3.9644a25.5894,25.5894,0,0,1,6.952,5.4785c2.3165,2.6573,4.6306,6.5045,6.9519,8.5968s4.65,2.43,6.971,3.59,4.6355,3.1446,6.952,4.1258,4.6354.96,6.952,1.7414,4.6306,2.3671,6.9519,3.5718,4.65,2.0289,6.9711,3.2314,4.6354,2.7833,6.9519,3.9167,4.6354,1.8193,6.952,3.7731,4.6307,5.1753,6.952,7.7854,4.65,4.6088,6.971,6.9382,4.6358,4.99,6.9519,7.0781A53.9479,53.9479,0,0,0,320,89.6959v1.8269a44.6159,44.6159,0,0,1-6.952-5.0182c-2.3161-2.1239-4.6306-4.9247-6.9519-7.2968s-4.65-4.3156-6.971-6.8892-4.6355-5.7772-6.952-7.7314-4.6354-2.6591-6.952-3.76-4.6306-2.5986-6.9519-3.7693-4.65-2.0143-6.9711-3.1434a53.2377,53.2377,0,0,0-6.9519-3.2619c-2.3166-.7186-4.6355-.7414-6.952-1.5051a32.6228,32.6228,0,0,1-6.952-3.7628,65.3792,65.3792,0,0,1-6.971-4.9281c-2.3213-1.95-4.6354-4.3652-6.9519-6.629a34.4756,34.4756,0,0,0-6.952-5.64c-2.3165-1.2644-4.6307-1.6811-6.952-2.6133s-4.65-2.38-6.971-2.8545-4.6354.0243-6.952-.88-4.6354-3.2127-6.9519-5.178-4.6307-3.588-6.952-5.2154-4.65-3.26-6.971-4.654-4.6354-2.5507-6.952-2.304-4.6354,1.8966-6.9519,3.9241-4.6307,4.4327-6.952,4.4215-4.65-2.4391-6.971-3.3915-4.6355-.4295-6.952-.9206-4.6354-1.9962-6.952-.3245-4.6306,6.52-6.9519,8.9231-4.65,2.36-6.971,3.6425-4.6355,3.89-6.952,4.9667-4.6354.6217-6.952,1.6166-4.6306,3.44-6.9519,4.9651-4.65,2.1316-6.9711,3.77a39.4057,39.4057,0,0,0-6.9519,7.15c-2.3165,2.84-4.6355,5.85-6.952,8.5265A40.3827,40.3827,0,0,1,83.4807,58.4c-2.3212,1.6247-4.65,2.5318-6.971,4.0844s-4.6354,3.7509-6.9519,5.685-4.6355,3.6042-6.952,5.2206a32.2254,32.2254,0,0,1-6.952,4.0253,20.9421,20.9421,0,0,1-6.971,1.0168,22.8161,22.8161,0,0,0-6.9519.7612c-2.3166.7643-4.6355,2.338-6.952,3.5848s-4.6307,2.1667-6.952,1.735-4.65-2.2147-6.971-2.8949-4.6357-.2573-6.952-.2238S9.27,81.0722,6.952,81.0829A44.8176,44.8176,0,0,0,0,81.8476Z"/>
        <path class="cls-5" d="M0,81.8476a44.8176,44.8176,0,0,1,6.952-.7647c2.3176-.0107,4.6357.3452,6.9519.3117s4.6306-.4563,6.952.2238,4.65,2.4633,6.971,2.8949,4.6354-.4882,6.952-1.735,4.6354-2.82,6.952-3.5848a22.8161,22.8161,0,0,1,6.9519-.7612,20.9421,20.9421,0,0,0,6.971-1.0168,32.2213,32.2213,0,0,0,6.952-4.0253c2.3165-1.6165,4.6354-3.2868,6.952-5.2206s4.6306-4.131,6.9519-5.685S81.16,60.02,83.4807,58.4a39.5227,39.5227,0,0,0,6.952-6.6433c2.3165-2.6944,4.6355-5.7543,6.952-8.5265a53.8073,53.8073,0,0,1,6.9519-7.15c2.3213-1.8932,4.65-3.1952,6.9711-5.1878s4.6354-4.6758,6.9519-5.5555,4.6355.0441,6.952-.9293,4.6307-3.8441,6.952-5.3548,4.65-1.6616,6.971-4.1822,4.6354-7.4108,6.9519-9.05,4.6355-.0269,6.952.4979,4.6307-.0376,6.952.83,4.65,3.1665,6.971,2.61,4.6354-3.9694,6.952-6.0948S178.5489.7,180.8654,1.043s4.6307,1.8667,6.952,3.2546,4.65,2.64,6.971,4.2645,4.6354,3.6233,6.952,5.5846,4.6354,3.8859,6.9519,4.3151,4.6307-.6368,6.952-.7472a16.0385,16.0385,0,0,1,6.971,1.744,77.2661,77.2661,0,0,1,6.952,3.4814,25.15,25.15,0,0,1,6.952,5.299c2.3165,2.5762,4.6306,6.3047,6.9519,8.3083s4.65,2.2821,6.971,3.296,4.6355,2.7629,6.952,3.4694,4.6354.37,6.952.54,4.6306.8455,6.9519,1.1456,4.65.2243,6.9711.5723,4.6354,1.12,6.9519,1.6693a18.6794,18.6794,0,0,0,6.952.5489,26.0028,26.0028,0,0,0,6.952-2.3781c2.3212-1.0648,4.65-2.2095,6.971-3.1173s4.6358-1.5788,6.9519-2.4088,4.6341-1.8192,6.952-2.8084v52.62a53.9479,53.9479,0,0,1-6.952-5.1225c-2.3161-2.0886-4.6306-4.7487-6.9519-7.0781s-4.65-4.3281-6.971-6.9382-4.6355-5.8317-6.952-7.7854-4.6354-2.64-6.952-3.7731-4.6306-2.7142-6.9519-3.9167-4.65-2.0267-6.9711-3.2314-4.6354-2.79-6.9519-3.5718-4.6355-.76-6.952-1.7414-4.6307-2.9652-6.952-4.1258-4.65-1.498-6.971-3.59-4.6354-5.9395-6.9519-8.5968a25.5894,25.5894,0,0,0-6.952-5.4785c-2.3165-1.3541-4.6307-2.5949-6.952-3.9644s-4.65-2.8677-6.971-3.0112-4.6354,1.0676-6.952.6915-4.6354-2.34-6.9519-4.3151-4.6307-3.9634-6.952-5.5846-4.65-2.8757-6.971-4.2645-4.6354-2.9121-6.952-3.2546-4.6354.4957-6.9519,2.621-4.6307,5.5378-6.952,6.0948-4.65-1.7416-6.971-2.61-4.6355-.3055-6.952-.83-4.6354-2.1369-6.952-.4979-4.6306,6.5294-6.9519,9.05-4.65,2.6714-6.971,4.1822-4.6355,4.3814-6.952,5.3548-4.6354.05-6.952.9293-4.6306,3.5629-6.9519,5.5555-4.65,3.2946-6.9711,5.1878a53.8073,53.8073,0,0,0-6.9519,7.15c-2.3165,2.7722-4.6355,5.8321-6.952,8.5265A39.5227,39.5227,0,0,1,83.4807,58.4c-2.3212,1.62-4.65,2.53-6.971,4.0844s-4.6354,3.7512-6.9519,5.685-4.6355,3.6041-6.952,5.2206a32.2213,32.2213,0,0,1-6.952,4.0253,20.9421,20.9421,0,0,1-6.971,1.0168,22.8161,22.8161,0,0,0-6.9519.7612c-2.3166.7643-4.6355,2.338-6.952,3.5848s-4.6307,2.1667-6.952,1.735-4.65-2.2147-6.971-2.8949-4.6357-.2573-6.952-.2238S9.27,81.0722,6.952,81.0829A44.8176,44.8176,0,0,0,0,81.8476Z"/>
        <path class="cls-6" d="M0,32.5809c2.3172.1983,4.6343.3966,6.952.6095a33.4483,33.4483,0,0,0,6.9519.17,13.6136,13.6136,0,0,0,6.952-2.824,50.334,50.334,0,0,0,6.971-7.3615c2.3213-2.7746,4.6354-5.5221,6.952-4.2622s4.6354,6.5273,6.952,9.7021,4.6306,4.257,6.9519,4.5259,4.65-.2755,6.971.7366,4.6355,3.5809,6.952,4.6576,4.6354.6616,6.952-.3153,4.6306-2.5155,6.9519-2.821,4.65.6221,6.971.8959a11.3631,11.3631,0,0,0,6.952-1.37c2.3165-1.2634,4.6355-3.41,6.952-5.0548a14.2984,14.2984,0,0,1,6.9519-2.9649c2.3213-.1774,4.65.61,6.9711-.1482s4.6354-3.0634,6.9519-3.5277,4.6355.912,6.952.1356,4.6307-3.7055,6.952-5.1788,4.65-1.4908,6.971-3.9661,4.6354-7.4084,6.9519-9.0666,4.6355-.0413,6.952.4484,4.6307-.148,6.952.7295,4.65,3.27,6.971,2.7741,4.6354-3.8807,6.952-5.9987,4.6354-2.9695,6.9519-2.609,4.6307,1.933,6.952,3.3228,4.65,2.5969,6.971,4.2365,4.6354,3.7114,6.952,5.7059,4.6354,3.9115,6.9519,4.3419,4.6307-.6259,6.952-.7057a16.3514,16.3514,0,0,1,6.971,1.8464q3.482,1.5444,6.952,3.5017a26.3126,26.3126,0,0,1,6.952,5.2947c2.3165,2.5291,4.6306,6.1312,6.9519,8.0843s4.65,2.2572,6.971,3.2469,4.6355,2.6649,6.952,3.3031,4.6354.2391,6.952.3372,4.6306.6931,6.9519.8874,4.65-.012,6.9711.2727,4.6354,1.0606,6.9519,1.4624a18.9441,18.9441,0,0,0,6.952-.0263,30.6138,30.6138,0,0,0,6.952-2.4854c2.3212-1.09,4.65-2.33,6.971-3.2826s4.6358-1.618,6.9519-2.5319,4.6341-2.0761,6.952-3.2384V37.076c-2.3179.9892-4.6358,1.9783-6.952,2.8084s-4.6306,1.5009-6.9519,2.4088-4.65,2.0525-6.971,3.1173a26.0028,26.0028,0,0,1-6.952,2.3781,18.6794,18.6794,0,0,1-6.952-.5489c-2.3165-.55-4.6306-1.3213-6.9519-1.6693s-4.65-.2723-6.9711-.5723-4.6354-.9759-6.9519-1.1456-4.6355.1666-6.952-.54-4.6307-2.4556-6.952-3.4694-4.65-1.2925-6.971-3.296-4.6354-5.7321-6.9519-8.3083a25.15,25.15,0,0,0-6.952-5.299,77.2661,77.2661,0,0,0-6.952-3.4814,16.0385,16.0385,0,0,0-6.971-1.744c-2.3213.11-4.6354,1.1764-6.952.7472s-4.6354-2.3537-6.9519-4.3151-4.6307-3.96-6.952-5.5846-4.65-2.8767-6.971-4.2645-4.6354-2.9118-6.952-3.2546-4.6354.4956-6.9519,2.621-4.6307,5.5378-6.952,6.0948-4.65-1.7416-6.971-2.61-4.6355-.3055-6.952-.83-4.6354-2.1369-6.952-.4979-4.6306,6.5294-6.9519,9.05-4.65,2.6714-6.971,4.1822-4.6355,4.3814-6.952,5.3548-4.6354.05-6.952.9293-4.6306,3.5629-6.9519,5.5555-4.65,3.2946-6.9711,5.1878a53.8073,53.8073,0,0,0-6.9519,7.15c-2.3165,2.7722-4.6355,5.8321-6.952,8.5265A39.5227,39.5227,0,0,1,83.4807,58.4c-2.3212,1.62-4.65,2.53-6.971,4.0844s-4.6354,3.7512-6.9519,5.685-4.6355,3.6041-6.952,5.2206a32.2213,32.2213,0,0,1-6.952,4.0253,20.9421,20.9421,0,0,1-6.971,1.0168,22.8161,22.8161,0,0,0-6.9519.7612c-2.3166.7643-4.6355,2.338-6.952,3.5848s-4.6307,2.1667-6.952,1.735-4.65-2.2147-6.971-2.8949-4.6357-.2573-6.952-.2238S9.27,81.0722,6.952,81.0829A44.8176,44.8176,0,0,0,0,81.8476Z"/>
      </g>
      <g id="xAxis">
        <path class="cls-7" d="M.5,139.174h320"/>
        <g>
          <line class="cls-7" x1="14.4039" y1="138.674" x2="14.4039" y2="144.674"/>
          <text class="cls-8" transform="translate(3.281 154.774)">1975</text>
        </g>
        <g>
          <line class="cls-7" x1="49.1828" y1="138.674" x2="49.1828" y2="144.674"/>
          <text class="cls-8" transform="translate(38.0598 154.774)">1980</text>
        </g>
        <g>
          <line class="cls-7" x1="83.9807" y1="138.674" x2="83.9807" y2="144.674"/>
          <text class="cls-8" transform="translate(72.8577 154.774)">1985</text>
        </g>
        <g>
          <line class="cls-7" x1="118.7596" y1="138.674" x2="118.7596" y2="144.674"/>
          <text class="cls-8" transform="translate(107.6365 154.774)">1990</text>
        </g>
        <g>
          <line class="cls-7" x1="153.5385" y1="138.674" x2="153.5385" y2="144.674"/>
          <text class="cls-8" transform="translate(142.4155 154.774)">1995</text>
        </g>
        <g>
          <line class="cls-7" x1="188.3174" y1="138.674" x2="188.3174" y2="144.674"/>
          <text class="cls-8" transform="translate(177.1943 154.774)">2000</text>
        </g>
        <g>
          <line class="cls-7" x1="223.1153" y1="138.674" x2="223.1153" y2="144.674"/>
          <text class="cls-8" transform="translate(211.9922 154.774)">2005</text>
        </g>
        <g>
          <line class="cls-7" x1="257.8942" y1="138.674" x2="257.8942" y2="144.674"/>
          <text class="cls-8" transform="translate(246.7712 154.774)">2010</text>
        </g>
        <g>
          <line class="cls-7" x1="292.6731" y1="138.674" x2="292.6731" y2="144.674"/>
          <text class="cls-8" transform="translate(281.55 154.774)">2015</text>
        </g>
      </g>
    </g>
  </g>
</svg>
