<?xml version="1.0" encoding="UTF-8"?>
<svg xmlns="http://www.w3.org/2000/svg" width="320" height="320" viewBox="0 0 320 320">
  <defs>
    <style>
      .cls-1, .cls-2 {
        fill: #f88e53;
      }

      .cls-3, .cls-4 {
        fill: #89cfa5;
      }

      .cls-5, .cls-6 {
        fill: #9e0142;
      }

      .cls-7, .cls-8 {
        fill: #5e4fa2;
      }

      .cls-8, .cls-4, .cls-6, .cls-2, .cls-9 {
        mix-blend-mode: multiply;
      }

      .cls-10, .cls-9 {
        fill: #fee89a;
        stroke: #fff;
      }

      .cls-11 {
        letter-spacing: -.05518em;
      }

      .cls-11, .cls-12 {
        font-family: ArialMT, Arial;
        font-size: 10px;
      }

      .cls-11, .cls-12, .cls-13 {
        isolation: isolate;
      }
    </style>
  </defs>
  <g class="cls-13">
    <g id="Layer_1" data-name="Layer 1">
      <g id="chord_diagram" data-name="chord diagram">
        <g>
          <g>
            <path class="cls-1" d="m167.34822,9.72837c83.20268,0,150.65178,67.4491,150.65178,150.65178,0,4.66844-.217,9.33437-.6503,13.98266l-10.71439-.99876c7.17081-76.92614-49.37705-145.10018-126.30319-152.27099-4.31627-.40235-8.64891-.60385-12.9839-.60385v-10.76084Z"/>
            <path class="cls-10" d="m315.83159,185.84867c-11.36672,66.26884-65.27119,116.98305-132.10948,124.29081l-1.16956-10.69708c62.06413-6.78576,112.11829-53.87755,122.67309-115.4129l10.60595,1.81918Z"/>
            <path class="cls-3" d="m172.1651,310.95491c-56.7195,1.81446-109.64643-28.39816-136.92371-78.16104l9.4362-5.17241c25.3289,46.20839,74.47533,74.26295,127.14344,72.57811l.34406,10.75534Z"/>
            <path class="cls-5" d="m30.06725,222.42769C7.37196,172.21407,13.90265,113.61584,47.09623,69.63095l8.58942,6.48209c-30.82261,40.84311-36.88682,95.25576-15.81261,141.88269l-9.80579,4.43197Z"/>
            <path class="cls-7" d="m54.42565,60.65827c25.93256-29.36538,62.28443-47.47377,101.34539-50.4844l.82694,10.72902c-36.2709,2.79558-70.0262,19.61052-94.10643,46.87837l-8.0659-7.12299Z"/>
          </g>
          <path class="cls-4" d="m89.29639,269.92919c-1.22097-.86992-2.42731-1.76019-3.61853-2.67044,54.4469-71.2524,39.56633-115.82188-44.64172-133.70846l-4.77741-3.31354,5.74491-.89398c83.56305,20.69159,99.3273,67.55373,47.29275,140.58642Z"/>
          <path class="cls-8" d="m96.34373,46.13724c1.49148-.92698,3.00097-1.82468,4.5276-2.69256,44.31793,77.95698,42.06803,81.48213-6.74968,10.57546l-.86706-5.90403,5.08771,3.11842c46.00395,72.76374,45.33776,71.06464-1.99856-5.0973Z"/>
          <path class="cls-8" d="m101.77279,42.93679c1.63526-.91306,3.28942-1.79187,4.96138-2.63584,40.40937,80.05281,37.40124,156.32692-9.02438,228.82234l-5.25134,2.99137.7712-5.99417c49.41238-70.49356,52.2601-144.88813,8.54314-223.18371Z"/>
          <path class="cls-6" d="m37.03351,127.04614c.64979-2.54027,1.37372-5.06099,2.17085-7.55893,85.42924,27.26196,155.57968,7.7266,210.45135-58.6061l6.42275-1.59509-.74847,6.5754c-58.65452,63.01249-131.42001,83.40739-218.29648,61.18472Z"/>
          <path class="cls-4" d="m84.85815,266.62736c-2.14056-1.66192-4.2304-3.38816-6.26667-5.17633,59.17116-67.38058,61.99099-134.78031,8.45949-202.19918l-.12478-6.69274,6.37948,2.02746c49.3617,70.52906,46.54586,141.20932-8.44752,212.04079Z"/>
          <path class="cls-9" d="m264.48955,253.42123c-1.96426,2.05083-3.99297,4.03893-6.08309,5.96133-60.7055-66.0016-120.14862-130.72749-178.32938-194.17767l-.45195-6.79404,6.65032,1.46165c54.04851,67.0051,113.45321,131.52134,178.2141,193.54873Z"/>
          <path class="cls-9" d="m257.64222,260.08007c-2.21546,2.00645-4.49719,3.9385-6.84138,5.79293-55.63508-70.32856-103.90877-67.62098-144.82107,8.12273l-6.46524,2.53808-.96622-6.87806c45.8666-72.8504,98.8979-76.04229,159.09391-9.57568Z"/>
          <path class="cls-4" d="m77.81664,260.7653c-2.69824-2.40651-5.29835-4.92082-7.79401-7.53683,64.88372-61.89888,121.72911-128.30533,170.53615-199.21935l7.45406-1.26864.87507,7.51044c-54.35979,66.75282-111.38355,133.59095-171.07127,200.51437Z"/>
          <path class="cls-6" d="m39.52272,118.50271c1.309-3.99556,2.80462-7.92755,4.48193-11.78301,82.22905,35.77364,91.1898,25.04461,26.88227-32.18708l.2817-8.18738,8.17894-.46623c58.66711,63.00076,45.39217,80.54199-39.82483,52.62369Z"/>
          <path class="cls-6" d="m44.42107,105.7725c1.73528-3.90629,3.65577-7.72764,5.75493-11.45104,78.11481,44.03913,151.15407,92.47773,219.11777,145.31579l.19413,8.26756-8.1997,1.07479c-62.62666-59.0663-134.9157-106.802-216.86713-143.2071Z"/>
          <path class="cls-9" d="m249.9869,266.51181c-3.80018,2.95899-7.75655,5.71173-11.85201,8.24634-47.19112-76.252-113.63916-118.42725-199.34411-126.52577l-4.4844-7.67518,6.52712-6.03449c84.34315,17.2383,154.06095,61.23467,209.15341,131.98911Z"/>
          <path class="cls-6" d="m50.68761,93.4221c2.71443-4.72934,5.71394-9.28925,8.98192-13.65447,71.78579,53.74169,92.27541,120.80544,61.46885,201.19127l-9.46722,1.86775-4.8156-8.36223c40.32845-76.05618,21.6058-136.40362-56.16794-181.04232Z"/>
          <path class="cls-2" d="m259.75054,62.63104c4.23125,3.99981,8.19833,8.27013,11.8762,12.78402-69.51902,56.6434-114.02699,126.89002-133.52393,210.73986l-9.65232,2.98877-6.38324-7.8329c30.18731-80.62042,76.08173-153.51367,137.68328-218.67975Z"/>
          <path class="cls-8" d="m107.65963,39.83824c5.76711-2.85569,11.73172-5.29382,17.84787-7.29561,27.89381,85.22502,60.62666,89.11002,98.19855,11.65501l10.87131-.32208,5.16101,9.57356c-48.26011,71.28736-92.28636,66.7504-132.07875-13.61088Z"/>
          <path class="cls-9" d="m237.25298,275.29927c-7.26655,4.42021-14.93597,8.14124-22.90522,11.11311-31.33303-84.02149-36.16726-167.69028-14.5027-251.00637l13.52183-1.41953,9.44379,9.78108c-36.97498,77.74173-32.16088,154.91896,14.4423,231.53171Z"/>
          <path class="cls-8" d="m126.4921,32.22456c9.74377-3.10632,19.81002-5.09129,30.00362-5.91641,7.235,89.38134-31.76173,140.13487-116.99021,152.26059l-6.61731-14.5032,5.81295-14.8439c85.76471,7.43901,115.02836-31.56001,87.79095-116.99707Z"/>
          <path class="cls-2" d="m272.27724,76.2197c6.60668,8.23703,12.22047,17.22335,16.72541,26.77334-81.10295,38.25807-82.31545,74.8564-3.6375,109.79499l-2.33797,16.23219-13.12676,9.83049c-68.36813-52.31371-67.57586-106.52404,2.37682-162.63101Z"/>
          <path class="cls-9" d="m213.3769,286.77019c-9.97548,3.63287-20.34597,6.07199-30.89497,7.26643-10.08915-89.10431,27.2618-126.21663,112.05285-111.33697l1.63134,16.39777-10.40133,12.78125c-78.94439-34.33234-103.07368-9.3685-72.38789,74.89151Z"/>
          <path class="cls-2" d="m289.44048,103.93053c4.57534,9.89579,7.93062,20.31113,9.992,31.01679-88.05617,16.95522-131.91871-17.61022-131.5876-103.69631l16.31002-4.32728,14.72788,8.236c-21.02304,83.48028,9.16286,106.40388,90.5577,68.7708Z"/>
          <path class="cls-4" d="m69.3113,252.47708c-7.65094-8.14441-14.2572-17.21047-19.66606-26.98864,78.46865-43.40553,118.91375-22.08195,121.3353,63.97071l-16.56817,4.80805-15.34121-7.89106c18.85137-83.99733-4.40192-95.29702-69.75986-33.89907Z"/>
          <path class="cls-2" d="m299.6242,135.9641c2.21413,11.99523,2.78636,24.23589,1.70094,36.38537-89.31794-7.97954-173.26794,5.60757-251.85,40.76132l-11.21783-14.93357,1.39189-18.62562c85.13268-12.78096,171.791-27.31013,259.97499-43.5875Z"/>
          <g>
            <g id="B">
              <text class="cls-12" transform="translate(287.61012 55.90339) rotate(-42.33723)"><tspan x="0" y="0">B</tspan></text>
            </g>
            <g id="C">
              <text class="cls-12" transform="translate(273.73466 278.95617) rotate(46.74664)"><tspan x="0" y="0">C</tspan></text>
            </g>
            <g id="D">
              <text class="cls-12" transform="translate(87.81388 307.30808) rotate(-60.2807)"><tspan x="0" y="0">D</tspan></text>
            </g>
            <g id="A">
              <text class="cls-11" transform="translate(.92797 145.62374) rotate(6.35928)"><tspan x="0" y="0">A</tspan></text>
            </g>
            <g id="E">
              <text class="cls-12" transform="translate(89.76574 13.08342) rotate(63.52017)"><tspan x="0" y="0">E</tspan></text>
            </g>
          </g>
        </g>
      </g>
    </g>
  </g>
</svg>