<svg xmlns="http://www.w3.org/2000/svg" width="1000" height="1000"><rect width="1000" height="1000" x="0" y="0" fill="#FFFFFF" id="backgorund"/><g transform="translate(500,500)" id="chord_diagram"><g><g><path fill="rgb(240, 248, 169)" d="M2.1431318985078682e-14,-350A350,350,0,0,1,232.93541267410265,-261.22996291073787L216.29716891166674,-242.5706798456852A325,325,0,0,0,1.990051048614449e-14,-325Z"/></g><g><path fill="rgb(158, 1, 66)" d="M240.86173286281146,-253.94020091809736A350,350,0,0,1,349.8531477963459,10.137799415460982L324.8636372394641,9.413670885785198A325,325,0,0,0,223.65732337261065,-235.80161513823327Z"/></g><g><path fill="rgb(244, 125, 77)" d="M349.3756668323989,20.896014582130107A350,350,0,0,1,165.41199258105587,308.4458991628268L153.5968502538376,286.4140492226249A325,325,0,0,0,324.42026205865614,19.403442111977956Z"/></g><g><path fill="rgb(253, 190, 112)" d="M155.84455163886068,313.38869750596064A350,350,0,0,1,42.0115606000339,347.469464523071L39.010734842888624,322.65021705713735A325,325,0,0,0,144.71279795037063,291.00379054124915Z"/></g><g><path fill="rgb(94, 79, 162)" d="M31.30199382157275,348.59745435501134A350,350,0,0,1,-196.663696940388,289.5226939390748L-182.6162900160746,268.8425015148552A325,325,0,0,0,29.06613712003184,323.6976361867963Z"/></g><g><path fill="rgb(119, 198, 167)" d="M-205.4775940298644,283.33541669141584A350,350,0,0,1,-347.76394314556467,39.49987149154348L-322.92366149231003,36.678452099290375A325,325,0,0,0,-190.80062302773123,263.09717264202897Z"/></g><g><path fill="rgb(214, 66, 75)" d="M-348.81452304247665,28.78243413350475A350,350,0,0,1,-341.2245721875015,-77.88319032664609L-316.85138845982283,-72.32010530331424A325,325,0,0,0,-323.89919996801405,26.726545981111553Z"/></g><g><path fill="rgb(67, 143, 180)" d="M-338.66703076309517,-88.34388645576317A350,350,0,0,1,-249.36138253349068,-245.59906535039198L-231.54985520966994,-228.05627496822112A325,325,0,0,0,-314.4765285657312,-82.03360885178009Z"/></g><g><path fill="rgb(190, 229, 160)" d="M-241.68764898938974,-253.15426191549992A350,350,0,0,1,-203.014264362465,-285.10560931936635L-188.5132454794318,-264.74092293941163A325,325,0,0,0,-224.42424549014763,-235.07181463582134Z"/></g><g><path fill="rgb(254, 237, 161)" d="M-194.1470743827986,-291.2162658722896A350,350,0,0,1,-10.767531562764386,-349.83433259765235L-9.998422165424072,-324.8461659835343A325,325,0,0,0,-180.2794262125987,-270.4151040242689Z"/></g></g><g fill-opacity="0.7"><path fill="rgb(119, 198, 167)" d="M-184.92983462687795,255.00187502227425A315,315,0,0,1,-261.69227013946477,175.33441119544503Q0,0,-68.75080782380472,276.5833082880713L-120.33113933820219,269.34256422921754L-160.1404389371731,235.7541936361038Q0,0,-184.92983462687795,255.00187502227425Z"/><path fill="rgb(158, 1, 66)" d="M216.77555957653033,-228.5461808262876A315,315,0,0,1,270.853967942362,-160.8201730190524Q0,0,276.34742968349775,-69.69288419432985L293.24812510875245,-32.10198000437769L284.88042034845313,8.255065238303944Q0,0,216.77555957653033,-228.5461808262876Z"/><path fill="rgb(254, 237, 161)" d="M-174.73236694451876,-262.0946392850606A315,315,0,0,1,-101.10033161192108,-298.3349174132314Q0,0,128.29187593433437,-254.4920324278333L165.97657242094422,-243.87861203351773L189.6759788917693,-212.71582694160085Q0,0,-174.73236694451876,-262.0946392850606Z"/><path fill="rgb(244, 125, 77)" d="M314.438100149159,18.806413123917096A315,315,0,0,1,306.5106254330534,72.63770712679766Q0,0,175.90598400850757,224.2366713764693L161.35132362979883,246.96305465172705L134.69262253028836,251.16308931830181Q0,0,314.438100149159,18.806413123917096Z"/><path fill="rgb(158, 1, 66)" d="M270.853967942362,-160.8201730190524A315,315,0,0,1,292.0590028165481,-118.01075744949495Q0,0,207.79313823067315,195.05643210170834L199.15455078659147,217.62919128873995L175.90598400850757,224.2366713764693Q0,0,270.853967942362,-160.8201730190524Z"/><path fill="rgb(253, 190, 112)" d="M140.2600964749746,282.04982775536456A315,315,0,0,1,101.10884827520199,298.33203113387304Q0,0,71.89946770224108,275.78155584471995L55.04080707325812,289.8197880696285L34.20941363145618,282.9394211116435Q0,0,140.2600964749746,282.04982775536456Z"/><path fill="rgb(254, 237, 161)" d="M-101.10033161192108,-298.3349174132314A315,315,0,0,1,-62.51800230937679,-308.7337030310179Q0,0,230.81516377006284,167.18062140630732L227.45702501095195,187.85180801144068L207.79313823067315,195.05643210170834Q0,0,-101.10033161192108,-298.3349174132314Z"/><path fill="rgb(67, 143, 180)" d="M-304.80032768678564,-79.50949781018684A315,315,0,0,1,-293.3820806291355,-114.68197227864297Q0,0,-225.0893264965717,-174.8136010078156L-221.96431789019096,-194.31119778217172L-203.0514114915567,-199.98781035674776Q0,0,-304.80032768678564,-79.50949781018684Z"/><path fill="rgb(119, 198, 167)" d="M-261.69227013946477,175.33441119544503A315,315,0,0,1,-279.1552393684755,145.93612415412824Q0,0,99.95119681099044,-266.8984043714961L118.30017761336764,-270.2407592807674L128.29187593433437,-254.4920324278333Q0,0,-261.69227013946477,175.33441119544503Z"/><path fill="rgb(119, 198, 167)" d="M-279.1552393684755,145.93612415412824A315,315,0,0,1,-292.34469062419055,117.30124408481912Q0,0,246.37029235924823,143.2713475989479L247.2742091587857,160.87406716092278L230.81516377006284,167.18062140630732Q0,0,-279.1552393684755,145.93612415412824Z"/><path fill="rgb(119, 198, 167)" d="M-292.34469062419055,117.30124408481912A315,315,0,0,1,-302.0814754062226,89.28483755039122Q0,0,-278.8986896171418,58.65595391638598L-291.22289106331493,47.05558118570642L-283.1792108471027,32.164181071685405Q0,0,-292.34469062419055,117.30124408481912Z"/><path fill="rgb(240, 248, 169)" d="M1.9288187086570814e-14,-315A315,315,0,0,1,27.549259894261816,-313.7929863449443Q0,0,257.9564742110795,121.17531684542305L261.26161615683736,136.99404338553333L246.37029235924823,143.2713475989479Q0,0,1.9288187086570814e-14,-315Z"/><path fill="rgb(214, 66, 75)" d="M-313.933070738229,25.904190720154276A315,315,0,0,1,-314.9940634233079,1.9339100478249036Q0,0,79.34616825508024,-273.73195937492665L92.86162227577799,-280.00306981944095L99.95119681099044,-266.8984043714961Q0,0,-313.933070738229,25.904190720154276Z"/><path fill="rgb(67, 143, 180)" d="M-293.3820806291355,-114.68197227864297A315,315,0,0,1,-284.6317861377447,-134.94349306297488Q0,0,59.98433203544251,-278.6160079935498L72.15393406066968,-286.0398744922961L79.34616825508024,-273.73195937492665Q0,0,-293.3820806291355,-114.68197227864297Z"/><path fill="rgb(94, 79, 162)" d="M28.171794439415475,313.7377089195102A315,315,0,0,1,7.173479270619128,314.91830876459693Q0,0,-50.14133671653243,280.55453365126596L-61.566214998222314,288.50407479062176L-68.75080782380472,276.5833082880713Q0,0,28.171794439415475,313.7377089195102Z"/><path fill="rgb(254, 237, 161)" d="M-62.51800230937679,-308.7337030310179A315,315,0,0,1,-42.857113222885914,-312.0709339977063Q0,0,-26.77555858083359,-283.73943938530005L-18.40449419682479,-294.42532940180104L-8.767847129679572,-284.8650994009455Q0,0,-62.51800230937679,-308.7337030310179Z"/><path fill="rgb(67, 143, 180)" d="M-284.6317861377447,-134.94349306297488A315,315,0,0,1,-275.63128215345654,-152.48736438945235Q0,0,-32.48995051503272,283.14201933928973L-42.786276810956664,291.8806854121324L-50.14133671653243,280.55453365126596Q0,0,-284.6317861377447,-134.94349306297488Z"/><path fill="rgb(214, 66, 75)" d="M-314.9940634233079,1.9339100478249036A315,315,0,0,1,-314.6042816350658,-15.784358614914433Q0,0,-280.9812138252342,-47.69232094685704L-289.3363925077958,-57.52783648439031L-277.8542944955369,-63.41916926598325Q0,0,-314.9940634233079,1.9339100478249036Z"/><path fill="rgb(158, 1, 66)" d="M292.0590028165481,-118.01075744949495A315,315,0,0,1,297.4336346517577,-103.72190211254672Q0,0,-18.733558139180687,284.38363841727244L-26.518199205913167,293.8056927815993L-32.48995051503272,283.14201933928973Q0,0,292.0590028165481,-118.01075744949495Z"/><path fill="rgb(253, 190, 112)" d="M101.10884827520199,298.33203113387304A315,315,0,0,1,87.9261055406742,302.47975132965547Q0,0,263.02320702169055,109.74421428041161L269.69473138732064,119.53975013325469L257.9564742110795,121.17531684542305Q0,0,101.10884827520199,298.33203113387304Z"/><path fill="rgb(67, 143, 180)" d="M-275.63128215345654,-152.48736438945235A315,315,0,0,1,-268.7718938840816,-164.27619747840527Q0,0,267.52735450134054,98.25535401958545L274.6475568122201,107.67413587802008L263.02320702169055,109.74421428041161Q0,0,-275.63128215345654,-152.48736438945235Z"/><path fill="rgb(158, 1, 66)" d="M297.4336346517577,-103.72190211254672A315,315,0,0,1,301.24736647166367,-92.05989460067384Q0,0,49.08834236191803,-280.7406893276412L56.46060185772462,-289.54654278347635L59.98433203544251,-278.6160079935498Q0,0,297.4336346517577,-103.72190211254672Z"/><path fill="rgb(119, 198, 167)" d="M-302.0814754062226,89.28483755039122A315,315,0,0,1,-305.2455583171615,77.78270455341837Q0,0,-231.54710866873825,-166.1653888965675L-236.3717630512307,-176.50322838988768L-225.0893264965717,-174.8136010078156Q0,0,-302.0814754062226,89.28483755039122Z"/><path fill="rgb(214, 66, 75)" d="M-314.6042816350658,-15.784358614914433A315,315,0,0,1,-313.8922442966347,-26.39429806647251Q0,0,270.69135874154506,89.16943592204764L278.59147872207325,97.01436998428952L267.52735450134054,98.25535401958545Q0,0,-314.6042816350658,-15.784358614914433Z"/><path fill="rgb(94, 79, 162)" d="M7.173479270619128,314.91830876459693A315,315,0,0,1,-3.025977820588146,314.9854654713917Q0,0,273.43637595351225,80.35887197696033L281.6468823085783,87.74983581670027L270.69135874154506,89.16943592204764Q0,0,7.173479270619128,314.91830876459693Z"/><path fill="rgb(67, 143, 180)" d="M-268.7718938840816,-164.27619747840527A315,315,0,0,1,-264.17124159296293,-171.57667415832609Q0,0,-282.1821566235534,-39.97787492201645L-291.48908897445926,-45.37742840708107L-280.9812138252342,-47.69232094685704Q0,0,-268.7718938840816,-164.27619747840527Z"/><path fill="rgb(119, 198, 167)" d="M-305.2455583171615,77.78270455341837A315,315,0,0,1,-307.0959976869141,70.1216671555866Q0,0,-171.06803044991946,-227.94896130051882L-174.10484455754676,-238.14387059421134L-165.31161526657866,-232.15742473148404Q0,0,-305.2455583171615,77.78270455341837Z"/><path fill="rgb(67, 143, 180)" d="M-264.17124159296293,-171.57667415832609A315,315,0,0,1,-259.9730810961694,-177.87354245464542Q0,0,-176.49485005248266,-223.7734745338501L-179.8920148742716,-233.80304314630902L-171.06803044991946,-227.94896130051882Q0,0,-264.17124159296293,-171.57667415832609Z"/><path fill="rgb(214, 66, 75)" d="M-313.8922442966347,-26.39429806647251A315,315,0,0,1,-313.2991671210545,-32.68993547337703Q0,0,-180.95123232273966,-220.18549343878652L-185.00334466110584,-229.77981300411068L-176.49485005248266,-223.7734745338501Q0,0,-313.8922442966347,-26.39429806647251Z"/><path fill="rgb(240, 248, 169)" d="M27.549259894261816,-313.7929863449443A315,315,0,0,1,33.801216391945395,-313.18122193136816Q0,0,-32.42836265656225,-283.14907963017373L-30.64214921739402,-293.4042581343L-26.77555858083359,-283.73943938530005Q0,0,27.549259894261816,-313.7929863449443Z"/><path fill="rgb(190, 229, 160)" d="M-217.51888409045077,-227.83883572394993A315,315,0,0,1,-214.36922982301414,-230.80475147857715Q0,0,-183.95819353640752,-217.67954205855366L-188.86108588193673,-226.61970399657602L-180.95123232273966,-220.18549343878652Q0,0,-217.51888409045077,-227.83883572394993Z"/><path fill="rgb(244, 125, 77)" d="M306.5106254330534,72.63770712679766A315,315,0,0,1,305.56033362922454,76.53680495289174Q0,0,275.4371033988507,-73.20793721483233L285.5784913264376,-73.9589432842019L276.34742968349775,-69.69288419432985Q0,0,306.5106254330534,72.63770712679766Z"/><path fill="rgb(190, 229, 160)" d="M-214.36922982301414,-230.80475147857715A315,315,0,0,1,-211.52122325597333,-233.41759169414948Q0,0,274.40176048418664,76.99788206943792L283.53559934200695,81.44055442940517L273.43637595351225,80.35887197696033Q0,0,-214.36922982301414,-230.80475147857715Z"/><path fill="rgb(94, 79, 162)" d="M-3.025977820588146,314.9854654713917A315,315,0,0,1,-6.865621754049611,314.9251708548085Q0,0,45.66229102319265,-281.31824537081354L49.038519508209944,-290.89555445974577L49.08834236191803,-280.7406893276412Q0,0,-3.025977820588146,314.9854654713917Z"/><path fill="rgb(158, 1, 66)" d="M301.24736647166367,-92.05989460067384A315,315,0,0,1,302.26254385476324,-88.66991926491941Q0,0,-186.39196369940686,-215.59924830174847L-191.67547357989787,-224.24431504036366L-183.95819353640752,-217.67954205855366Q0,0,301.24736647166367,-92.05989460067384Z"/><path fill="rgb(214, 66, 75)" d="M-313.2991671210545,-32.68993547337703A315,315,0,0,1,-312.9400345388795,-35.96574457459351Q0,0,-233.2727867479492,-163.73395177190898L-240.56797392548913,-170.7397139548534L-231.54710866873825,-166.1653888965675Q0,0,-313.2991671210545,-32.68993547337703Z"/><path fill="rgb(244, 125, 77)" d="M305.56033362922454,76.53680495289174A315,315,0,0,1,304.7952937593635,79.52879291265076Q0,0,-15.944604638829267,284.5536321731132L-17.947685847233995,294.4535287150232L-18.733558139180687,284.38363841727244Q0,0,305.56033362922454,76.53680495289174Z"/><path fill="rgb(94, 79, 162)" d="M-6.865621754049611,314.9251708548085A315,315,0,0,1,-9.929527932014844,314.84346027041335Q0,0,274.7117494128154,-75.88448283114619L284.72953030706077,-77.16277970058198L275.4371033988507,-73.20793721483233Q0,0,-6.865621754049611,314.9251708548085Z"/><path fill="rgb(240, 248, 169)" d="M33.801216391945395,-313.18122193136816A315,315,0,0,1,36.73992577619219,-312.85008846724Q0,0,-13.272463683751202,284.6907826182005L-15.121280906372725,294.61219741170015L-15.944604638829267,284.5536321731132Q0,0,33.801216391945395,-313.18122193136816Z"/><path fill="rgb(244, 125, 77)" d="M304.7952937593635,79.52879291265076A315,315,0,0,1,304.0525622035829,82.32277581226437Q0,0,-188.36282767959653,-213.87951081986938L-193.95408332278876,-222.2764350137385L-186.39196369940686,-215.59924830174847Q0,0,304.7952937593635,79.52879291265076Z"/><path fill="rgb(240, 248, 169)" d="M36.73992577619219,-312.85008846724A315,315,0,0,1,39.28071279507187,-312.54123824274944Q0,0,74.13790124698859,275.18824756644636L75.58136733132824,285.1533919004416L71.89946770224108,275.78155584471995Q0,0,36.73992577619219,-312.85008846724Z"/><path fill="rgb(254, 237, 161)" d="M-42.857113222885914,-312.0709339977063A315,315,0,0,1,-40.334496536014285,-312.4069915817926Q0,0,-282.4959283070007,-37.69682334051392L-292.2480599647539,-40.200391127918294L-282.1821566235534,-39.97787492201645Q0,0,-42.857113222885914,-312.0709339977063Z"/><path fill="rgb(240, 248, 169)" d="M39.28071279507187,-312.54123824274944A315,315,0,0,1,41.44290216354192,-312.2618866596804Q0,0,43.71416473249592,-281.6275409148406L46.25651284823363,-291.35087955783007L45.66229102319265,-281.31824537081354Q0,0,39.28071279507187,-312.54123824274944Z"/><path fill="rgb(119, 198, 167)" d="M-307.0959976869141,70.1216671555866A315,315,0,0,1,-307.46336308449736,68.4929219757089Q0,0,-282.6917716273913,-36.19892614659791L-292.5104509276101,-38.24442571311785L-282.4959283070007,-37.69682334051392Q0,0,-307.0959976869141,70.1216671555866Z"/><path fill="rgb(94, 79, 162)" d="M-9.929527932014844,314.84346027041335A315,315,0,0,1,-11.470532374172151,314.79108451011297Q0,0,75.48402865553258,274.82205409670223L77.4361430121711,284.65530691592346L74.13790124698859,275.18824756644636Q0,0,-9.929527932014844,314.84346027041335Z"/><path fill="rgb(214, 66, 75)" d="M-312.9400345388795,-35.96574457459351A315,315,0,0,1,-312.76725573852883,-37.438532794297664Q0,0,76.77693597084381,274.46366262754884L78.80194560139459,284.2802373881006L75.48402865553258,274.82205409670223Q0,0,-312.9400345388795,-35.96574457459351Z"/><path fill="rgb(119, 198, 167)" d="M-307.46336308449736,68.4929219757089A315,315,0,0,1,-307.77323847727854,67.08676230977478Q0,0,274.36200421835065,-77.13942339225599L284.1704919055758,-79.19678989796942L274.7117494128154,-75.88448283114619Q0,0,-307.46336308449736,68.4929219757089Z"/><path fill="rgb(240, 248, 169)" d="M41.44290216354192,-312.2618866596804A315,315,0,0,1,42.861060086310225,-312.0703919443139Q0,0,274.0087336088243,-78.38503623835581L283.806640337913,-80.49093675754115L274.36200421835065,-77.13942339225599Q0,0,41.44290216354192,-312.2618866596804Z"/><path fill="rgb(244, 125, 77)" d="M304.0525622035829,82.32277581226437A315,315,0,0,1,303.6866654022048,83.66247221358738Q0,0,42.47211008351596,-281.8175293785922L44.605285693026715,-291.6082448907154L43.71416473249592,-281.6275409148406Q0,0,304.0525622035829,82.32277581226437Z"/><path fill="rgb(67, 143, 180)" d="M-259.9730810961694,-177.87354245464542A315,315,0,0,1,-259.2133074006057,-178.97894084623226Q0,0,-278.6463937558491,59.84302170562843L-288.55468839227126,61.32855621029434L-278.8986896171418,58.65595391638598Q0,0,-259.9730810961694,-177.87354245464542Z"/><path fill="rgb(240, 248, 169)" d="M42.861060086310225,-312.0703919443139A315,315,0,0,1,44.03626109202079,-311.90672918203506Q0,0,-189.1671315536184,-213.16846938460677L-195.38865877617548,-221.01645192529733L-188.36282767959653,-213.87951081986938Q0,0,42.861060086310225,-312.0703919443139Z"/><path fill="rgb(240, 248, 169)" d="M44.03626109202079,-311.90672918203506A315,315,0,0,1,44.9740777478254,-311.77288581711616Q0,0,-233.76413878353355,-163.03167612090868L-241.71236630128053,-169.11573545071317L-233.2727867479492,-163.73395177190898Q0,0,44.03626109202079,-311.90672918203506Z"/><path fill="rgb(94, 79, 162)" d="M-11.470532374172151,314.79108451011297A315,315,0,0,1,-12.370337714841433,314.7570090479651Q0,0,-189.77571556374974,-212.62685103783753L-196.1197440061572,-220.36797864245017L-189.1671315536184,-213.16846938460677Q0,0,-11.470532374172151,314.79108451011297Z"/><path fill="rgb(240, 248, 169)" d="M44.9740777478254,-311.77288581711616A315,315,0,0,1,45.85284146744636,-311.6448570558501Q0,0,-282.7926993645098,-35.40182461588636L-292.66330644135417,-37.05656571802142L-282.6917716273913,-36.19892614659791Q0,0,44.9740777478254,-311.77288581711616Z"/><path fill="rgb(254, 237, 161)" d="M-40.334496536014285,-312.4069915817926A315,315,0,0,1,-39.463306782868244,-312.51823533637395Q0,0,-12.478655659004264,284.726681491117L-13.327346645313574,294.6987984899084L-13.272463683751202,284.6907826182005Q0,0,-40.334496536014285,-312.4069915817926Z"/><path fill="rgb(244, 125, 77)" d="M303.6866654022048,83.66247221358738A315,315,0,0,1,303.45950681337814,84.48270665989178Q0,0,77.51823706984545,274.25521493963106L79.85459225238918,283.9863449115198L76.77693597084381,274.46366262754884Q0,0,303.6866654022048,83.66247221358738Z"/><path fill="rgb(254, 237, 161)" d="M-39.463306782868244,-312.51823533637395A315,315,0,0,1,-38.652217412573556,-312.61958686091816Q0,0,-190.32682404409795,-212.13368438154038L-196.71990098945625,-219.83239195964393L-189.77571556374974,-212.62685103783753Q0,0,-39.463306782868244,-312.51823533637395Z"/><path fill="rgb(214, 66, 75)" d="M-312.76725573852883,-37.438532794297664A315,315,0,0,1,-312.6715014262405,-38.2299907907451Q0,0,-33.14487650666057,-283.06610033940524L-33.93705445874144,-293.04142426398425L-32.42836265656225,-283.14907963017373Q0,0,-312.76725573852883,-37.438532794297664Z"/><path fill="rgb(190, 229, 160)" d="M-211.52122325597333,-233.41759169414948A315,315,0,0,1,-211.06463375668858,-233.830537734392Q0,0,41.92125179822635,-281.8999976014007L43.677287090690356,-291.7486839600093L42.47211008351596,-281.8175293785922Q0,0,-211.52122325597333,-233.41759169414948Z"/><path fill="rgb(67, 143, 180)" d="M-259.2133074006057,-178.97894084623226A315,315,0,0,1,-258.88314502276046,-179.45617075799981Q0,0,273.863864434184,-78.88969360553322L283.5482192775042,-81.39660523975424L274.0087336088243,-78.38503623835581Q0,0,-259.2133074006057,-178.97894084623226Z"/><path fill="rgb(254, 237, 161)" d="M-38.652217412573556,-312.61958686091816A315,315,0,0,1,-38.142167458577696,-312.68222696783045Q0,0,273.7348016509114,-79.33636218743725L283.40642146568285,-81.88895085428655L273.863864434184,-78.88969360553322Q0,0,-38.652217412573556,-312.61958686091816Z"/><path fill="rgb(253, 190, 112)" d="M87.9261055406742,302.47975132965547A315,315,0,0,1,87.4393099365294,302.6208305418243Q0,0,-12.020521926270415,284.7463907631141L-12.679403028761818,294.72738715435696L-12.478655659004264,284.726681491117Q0,0,87.9261055406742,302.47975132965547Z"/><path fill="rgb(253, 190, 112)" d="M87.4393099365294,302.6208305418243A315,315,0,0,1,86.9753568970163,302.7545000369716Q0,0,41.489112650264616,-281.96392239343965L43.168534628973596,-291.8243951728284L41.92125179822635,-281.8999976014007Q0,0,87.4393099365294,302.6208305418243Z"/><path fill="rgb(214, 66, 75)" d="M-312.6715014262405,-38.2299907907451A315,315,0,0,1,-312.62420547186116,-38.61484368850341Q0,0,273.636935455362,-79.67325495169662L283.28893514080437,-82.2944665623949L273.7348016509114,-79.33636218743725Q0,0,-312.6715014262405,-38.2299907907451Z"/><path fill="rgb(244, 125, 77)" d="M303.45950681337814,84.48270665989178A315,315,0,0,1,303.3594262878872,84.84137246817711Q0,0,-33.47947077919315,-283.0267214175106L-34.48102786390973,-292.97791506775434L-33.14487650666057,-283.06610033940524Q0,0,303.45950681337814,84.48270665989178Z"/><path fill="rgb(119, 198, 167)" d="M-307.77323847727854,67.08676230977478A315,315,0,0,1,-307.8503335406365,66.73209227140171Q0,0,77.83419065052979,274.16571405953914L80.40170839127083,283.83193140970775L77.51823706984545,274.25521493963106Q0,0,-307.77323847727854,67.08676230977478Z"/><path fill="rgb(94, 79, 162)" d="M-12.370337714841433,314.7570090479651A315,315,0,0,1,-12.677081225493662,314.74480394694723Q0,0,-278.58794085525363,60.114550734657406L-288.3932425019102,62.08331240546376L-278.6463937558491,59.84302170562843Q0,0,-12.370337714841433,314.7570090479651Z"/><path fill="rgb(158, 1, 66)" d="M302.26254385476324,-88.66991926491941A315,315,0,0,1,302.3410737908786,-88.40178221607573Q0,0,-33.730497903132324,-282.9969143139317L-34.78411001951041,-292.94208589779413L-33.47947077919315,-283.0267214175106Q0,0,302.26254385476324,-88.66991926491941Z"/><path fill="rgb(190, 229, 160)" d="M-211.06463375668858,-233.830537734392A315,315,0,0,1,-210.86444423012222,-234.01108127505773Q0,0,-233.90357573081573,-162.83156100811217L-242.0385761614982,-168.6485329011629L-233.76413878353355,-163.03167612090868Q0,0,-211.06463375668858,-233.830537734392Z"/><path fill="rgb(190, 229, 160)" d="M-210.86444423012222,-234.01108127505773A315,315,0,0,1,-210.6736632310846,-234.18285082557935Q0,0,-11.788459429802975,284.7560925147553L-12.322193128338593,294.7425377452463L-12.020521926270415,284.7463907631141Q0,0,-210.86444423012222,-234.01108127505773Z"/><path fill="rgb(254, 237, 161)" d="M-38.142167458577696,-312.68222696783045A315,315,0,0,1,-37.904513203477975,-312.7111252878723Q0,0,78.04253827580034,274.106479710842L80.67304974284089,283.75492779014274L77.83419065052979,274.16571405953914Q0,0,-38.142167458577696,-312.68222696783045Z"/><path fill="rgb(94, 79, 162)" d="M-12.677081225493662,314.74480394694723A315,315,0,0,1,-12.890992126590579,314.7361153760276Q0,0,-33.92282673846814,-282.9739242864471L-35.01356477476362,-292.9147491707501L-33.730497903132324,-282.9969143139317Q0,0,-12.677081225493662,314.74480394694723Z"/><path fill="rgb(67, 143, 180)" d="M-258.88314502276046,-179.45617075799981A315,315,0,0,1,-258.77765152154495,-179.60826003553913Q0,0,78.20359032338173,274.0605744366246L80.86422794051525,283.70050518034753L78.04253827580034,274.106479710842Q0,0,-258.88314502276046,-179.45617075799981Z"/><path fill="rgb(244, 125, 77)" d="M303.3594262878872,84.84137246817711A315,315,0,0,1,303.31815896626,84.98879009209755Q0,0,-233.98268154342048,-162.71786852632462L-242.15166661540943,-168.4861132419512L-233.90357573081573,-162.83156100811217Q0,0,303.3594262878872,84.84137246817711Z"/><path fill="rgb(119, 198, 167)" d="M-307.8503335406365,66.73209227140171A315,315,0,0,1,-307.882660742244,66.58278466898382Q0,0,-34.06005806407837,-282.9574392813725L-35.18412562520883,-292.8943108085057L-33.92282673846814,-282.9739242864471Q0,0,-307.8503335406365,66.73209227140171Z"/><path fill="rgb(67, 143, 180)" d="M-258.77765152154495,-179.60826003553913A315,315,0,0,1,-258.6989807852018,-179.72155502526067Q0,0,-34.18395472643565,-282.9424981144773L-35.31927062403622,-292.87804479439234L-34.06005806407837,-282.9574392813725Q0,0,-258.77765152154495,-179.60826003553913Z"/><path fill="rgb(190, 229, 160)" d="M-210.6736632310846,-234.18285082557935A315,315,0,0,1,-210.57820338078133,-234.26869244720325Q0,0,-282.8071040633262,-35.28656814306192L-292.7227113605176,-36.58434438044602L-282.7926993645098,-35.40182461588636Q0,0,-210.6736632310846,-234.18285082557935Z"/><path fill="rgb(253, 190, 112)" d="M86.9753568970163,302.7545000369716A315,315,0,0,1,86.85270203640124,302.7897094502653Q0,0,-282.8213756648302,-35.17199833749857L-292.73755253115866,-36.46539918974041L-282.8071040633262,-35.28656814306192Q0,0,86.9753568970163,302.7545000369716Z"/><path fill="rgb(253, 190, 112)" d="M86.85270203640124,302.7897094502653A315,315,0,0,1,86.73432930790327,302.8236386405595Q0,0,-278.5644196800855,60.22345131505823L-288.35078859220135,62.280195232960004L-278.58794085525363,60.114550734657406Q0,0,86.85270203640124,302.7897094502653Z"/><path fill="rgb(244, 125, 77)" d="M303.31815896626,84.98879009209755A315,315,0,0,1,303.28624213071475,85.1026164946148Q0,0,-282.8345554608114,-35.065855718707574L-292.7517589821829,-36.35117072169616L-282.8213756648302,-35.17199833749857Q0,0,303.31815896626,84.98879009209755Z"/><path fill="rgb(190, 229, 160)" d="M-210.57820338078133,-234.26869244720325A315,315,0,0,1,-210.49077608792626,-234.34724914515743Q0,0,78.30584505085749,274.03137526726954L81.00049866475928,283.6616280289957L78.20359032338173,274.0605744366246Q0,0,-210.57820338078133,-234.26869244720325Z"/><path fill="rgb(158, 1, 66)" d="M302.3410737908786,-88.40178221607573A315,315,0,0,1,302.3719969342438,-88.29595387104483Q0,0,78.40175445707638,274.00395051541193L81.1030571276591,283.6323220730452L78.30584505085749,274.03137526726954Q0,0,302.3410737908786,-88.40178221607573Z"/><path fill="rgb(190, 229, 160)" d="M-210.49077608792626,-234.34724914515743A315,315,0,0,1,-210.41064664408708,-234.4191966943346Q0,0,273.6096812800558,-79.76679954609122L283.22413034299115,-82.51722239300324L273.636935455362,-79.67325495169662Q0,0,-210.49077608792626,-234.34724914515743Z"/><path fill="rgb(158, 1, 66)" d="M302.3719969342438,-88.29595387104483A315,315,0,0,1,302.392528244889,-88.22561341052852Q0,0,-282.842704862239,-35.00006151726551L-292.7627946035998,-36.2621854814413L-282.8345554608114,-35.065855718707574Q0,0,302.3719969342438,-88.29595387104483Z"/><path fill="rgb(94, 79, 162)" d="M-12.890992126590579,314.7361153760276A315,315,0,0,1,-12.962097996928314,314.7331949691961Q0,0,-234.0194373182285,-162.66500225082137L-242.21162446497507,-168.3999078801348L-233.98268154342048,-162.71786852632462Q0,0,-12.890992126590579,314.7361153760276Z"/><path fill="rgb(214, 66, 75)" d="M-312.62420547186116,-38.61484368850341A315,315,0,0,1,-312.6170223156321,-38.672953837373235Q0,0,-11.735528555394511,284.7582788428205L-12.174695588780672,294.7486671510501L-11.788459429802975,284.7560925147553Q0,0,-312.62420547186116,-38.61484368850341Z"/><path fill="rgb(254, 237, 161)" d="M-37.904513203477975,-312.7111252878723A315,315,0,0,1,-37.84719635387472,-312.71806747956094Q0,0,-234.04924793869318,-162.62210655176045L-242.246074966025,-168.35034649074828L-234.0194373182285,-162.66500225082137Q0,0,-37.904513203477975,-312.7111252878723Z"/><path fill="rgb(190, 229, 160)" d="M-210.41064664408708,-234.4191966943346A315,315,0,0,1,-210.38050944974705,-234.44624382502892Q0,0,-34.22032774974699,-282.9381013025639L-35.402216442384656,-292.8680301278488L-34.18395472643565,-282.9424981144773Q0,0,-210.41064664408708,-234.4191966943346Z"/><path fill="rgb(253, 190, 112)" d="M86.73432930790327,302.8236386405595A315,315,0,0,1,86.69723151471652,302.8342616806818Q0,0,273.5999074656706,-79.80031725987376L283.20496312773867,-82.58298165975954L273.6096812800558,-79.76679954609122Q0,0,86.73432930790327,302.8236386405595Z"/><path fill="rgb(253, 190, 112)" d="M86.69723151471652,302.8342616806818A315,315,0,0,1,86.6724334988453,302.8413599087619Q0,0,-190.34419407200465,-212.11809866930037L-197.01394813749684,-219.56890544718692L-190.32682404409795,-212.13368438154038Q0,0,86.69723151471652,302.8342616806818Z"/><path fill="rgb(158, 1, 66)" d="M302.392528244889,-88.22561341052852A315,315,0,0,1,302.3983477684235,-88.20566459659835Q0,0,-234.05997549515664,-162.60666613397703L-242.26705436509994,-168.32015437628885L-234.04924793869318,-162.62210655176045Q0,0,302.392528244889,-88.22561341052852Z"/><path fill="rgb(253, 190, 112)" d="M86.6724334988453,302.8413599087619A315,315,0,0,1,86.6564464311644,302.8459349106782Q0,0,-34.235263959142046,-282.9362944226984L-35.42877115992439,-292.8648189422856L-34.22032774974699,-282.9381013025639Q0,0,86.6724334988453,302.8413599087619Z"/><path fill="rgb(94, 79, 162)" d="M-12.962097996928314,314.7331949691961A315,315,0,0,1,-12.970847350699197,314.7328345104858Q0,0,-282.8436777297441,-34.99219867788597L-292.7675138258867,-36.22406449046361L-282.842704862239,-35.00006151726551Q0,0,-12.962097996928314,314.7331949691961Z"/><path fill="rgb(254, 237, 161)" d="M-37.84719635387472,-312.71806747956094A315,315,0,0,1,-37.83897595484121,-312.71906225666663Q0,0,-278.5628364965018,60.23077388696909L-288.3377905022618,62.34034462748651L-278.5644196800855,60.22345131505823Q0,0,-37.84719635387472,-312.71806747956094Z"/><path fill="rgb(158, 1, 66)" d="M302.3983477684235,-88.20566459659835A315,315,0,0,1,302.3998977252148,-88.20035065564994Q0,0,-278.561778041772,60.23566895292648L-288.3364233247977,62.346667787966545L-278.5628364965018,60.23077388696909Q0,0,302.3983477684235,-88.20566459659835Z"/><path fill="rgb(240, 248, 169)" d="M45.85284146744636,-311.6448570558501A315,315,0,0,1,45.85638766608194,-311.6443352769596Q0,0,-278.5610926030705,60.2388386988294L-288.3355207769975,62.350841680426676L-278.561778041772,60.23566895292648Q0,0,45.85284146744636,-311.6448570558501Z"/><path fill="rgb(214, 66, 75)" d="M-312.6170223156321,-38.672953837373235A315,315,0,0,1,-312.61669643813826,-38.67558801240029Q0,0,-278.56058500813026,60.241185910705816L-288.33490332765416,62.353696947593555L-278.5610926030705,60.2388386988294Q0,0,-312.6170223156321,-38.672953837373235Z"/><path fill="rgb(253, 190, 112)" d="M86.6564464311644,302.8459349106782A315,315,0,0,1,86.65457071571599,302.84647162229743Q0,0,-234.06098261518255,-162.60521645142632L-242.27312744423205,-168.31141291781404L-234.05997549515664,-162.60666613397703Q0,0,86.6564464311644,302.8459349106782Z"/><path fill="rgb(244, 125, 77)" d="M303.28624213071475,85.1026164946148A315,315,0,0,1,303.2861563246273,85.10292228727349Q0,0,-278.5605242689493,60.24146677337898L-288.33460918729713,62.355057090893915L-278.56058500813026,60.241185910705816Q0,0,303.28624213071475,85.1026164946148Z"/><path fill="rgb(190, 229, 160)" d="M-210.38050944974705,-234.44624382502892Q0,0,-278.560502576316,60.24156708146155L-288.33456652518583,62.35525436347111L-278.5605242689493,60.24146677337898Q0,0,-210.38050944974705,-234.44624382502892Z"/></g><g font-size="14" font-family="sans-serif"><g><g><g transform="rotate(-69.13851037590459) translate(350,0)"><text x="8" dy="0.35em" font-weight="bold">North America ↓</text></g></g></g><g><g><g transform="rotate(-22.427130600120364) translate(350,0)"><text x="8" dy="0.35em" font-weight="bold">Africa ↓</text></g></g></g><g><g><g transform="rotate(32.60959423429597) translate(350,0)"><text x="8" dy="0.35em" font-weight="bold">Europe ↓</text></g></g></g><g><g><g transform="rotate(73.3326835624458) translate(350,0)"><text x="8" dy="0.35em" font-weight="bold">Fmr Soviet Union ↓</text></g></g></g><g><g><g transform="rotate(104.52798892095473) translate(350,0)"><text x="8" dy="0.35em" transform="rotate(180) translate(-16)" text-anchor="end" font-weight="bold">↑ West Asia</text></g></g></g><g><g><g transform="rotate(149.73498207993072) translate(350,0)"><text x="8" dy="0.35em" transform="rotate(180) translate(-16)" text-anchor="end" font-weight="bold">↑ South Asia</text></g></g></g><g><g><g transform="rotate(184.07010618269186) translate(350,0)"><text x="8" dy="0.35em" transform="rotate(180) translate(-16)" text-anchor="end" font-weight="bold">↑ East Asia</text></g></g></g><g><g><g transform="rotate(209.5923619259013) translate(350,0)"><text x="8" dy="0.35em" transform="rotate(180) translate(-16)" text-anchor="end" font-weight="bold">↑ South-East Asia</text></g></g></g><g><g><g transform="rotate(230.43701340499945) translate(350,0)"><text x="8" dy="0.35em" transform="rotate(180) translate(-16)" text-anchor="end" font-weight="bold">↑ Oceania</text></g></g></g><g><g><g transform="rotate(252.27329539887978) translate(350,0)"><text x="8" dy="0.35em" transform="rotate(180) translate(-16)" text-anchor="end" font-weight="bold">↑ Latin America</text></g></g></g></g></g></svg>