<svg xmlns="http://www.w3.org/2000/svg" width="56" height="56"><rect width="56" height="56" x="0" y="0" fill="#FFFFFF" id="backgorund"/><g transform="translate(28,28)" id="chord_diagram"><g><g><path fill="#06c16d" d="M1.2246467991473533e-15,-20A20,20,0,0,1,10.667609460779815,-16.917508929871474L9.600848514701832,-15.225758036884326A18,18,0,0,0,1.102182119232618e-15,-18Z"/></g><g><path fill="#06c16d" d="M13.326340172976629,-14.913371771471038A20,20,0,0,1,19.632636878949445,-3.815700352401155L17.6693731910545,-3.43413031716104A18,18,0,0,0,11.993706155678966,-13.422034594323934Z"/></g><g><path fill="#06c16d" d="M19.993601907888912,-0.5058485434008352A20,20,0,0,1,14.471695650835576,13.80471024649147L13.024526085752019,12.424239221842324A18,18,0,0,0,17.99424171710002,-0.45526368906075165Z"/></g><g><path fill="#06c16d" d="M11.981016672464031,16.01421991525466A20,20,0,0,1,7.395167238528434,18.58255906795928L6.655650514675591,16.724303161163352A18,18,0,0,0,10.782915005217628,14.412797923729194Z"/></g><g><path fill="#06c16d" d="M4.209919433629309,19.55189449547921A20,20,0,0,1,-6.254913987918085,18.99673790427574L-5.629422589126277,17.097064113848166A18,18,0,0,0,3.788927490266378,17.59670504593129Z"/></g><g><path fill="#06c16d" d="M-9.319726445303436,17.695838465150832A20,20,0,0,1,-18.055532419792403,8.60219443152882L-16.249979177813163,7.741974988375939A18,18,0,0,0,-8.387753800773092,15.926254618635749Z"/></g><g><path fill="#06c16d" d="M-19.232411876910703,5.487652813076287A20,20,0,0,1,-19.98321266568614,0.8192750197345058L-17.984891399117526,0.7373475177610552A18,18,0,0,0,-17.309170689219634,4.938887531768659Z"/></g><g><path fill="#06c16d" d="M-19.842224472535182,-2.5072151845276416A20,20,0,0,1,-17.261605882779104,-10.101334681496592L-15.535445294501194,-9.091201213346933A18,18,0,0,0,-17.858002025281664,-2.2564936660748773Z"/></g><g><path fill="#06c16d" d="M-15.346643448507225,-12.824996485940659A20,20,0,0,1,-13.83404407696439,-14.443656894173525L-12.450639669267952,-12.999291204756172A18,18,0,0,0,-13.811979103656501,-11.542496837346592Z"/></g><g><path fill="#06c16d" d="M-11.246202110947634,-16.538528897085044A20,20,0,0,1,-3.3179226538682927,-19.722864631258503L-2.986130388481463,-17.75057816813265A18,18,0,0,0,-10.12158189985287,-14.88467600737654Z"/></g></g><g fill-opacity="0.4"><path fill="#06c16d" d="M-8.387753800773092,15.926254618635749A18,18,0,0,1,-12.367941249577232,13.077997906675396Q0,0,-0.31720496532288983,6.992809235920461L-3.072039150035853,16.72012486378756L-2.1892198957713296,6.648858266496509Q0,0,-8.387753800773092,15.926254618635749Z"/><path fill="#06c16d" d="M11.993706155678966,-13.422034594323934A18,18,0,0,1,14.562517165382577,-10.579843751584319Q0,0,6.433162495674019,-2.759423908038274L16.24783102573648,-5.000798632130168L6.871422907632305,-1.3354951233404042Q0,0,11.993706155678966,-13.422034594323934Z"/><path fill="#06c16d" d="M-10.12158189985287,-14.88467600737654A18,18,0,0,1,-6.931918420153243,-16.611697896853897Q0,0,2.4707571997614703,-6.549454852109973L7.572473847680939,-15.220303539226418L3.733663311272935,-5.921128125455015Q0,0,-10.12158189985287,-14.88467600737654Z"/><path fill="#06c16d" d="M17.99424171710002,-0.45526368906075165A18,18,0,0,1,17.89449831093339,1.9460036485068808Q0,0,5.663621727239002,4.113804678244495L13.05685409574279,10.886623035748265L5.065093477792452,4.831648586272015Q0,0,17.99424171710002,-0.45526368906075165Z"/><path fill="#06c16d" d="M14.562517165382577,-10.579843751584319A18,18,0,0,1,15.700465907257074,-8.803145477331286Q0,0,6.106086708202497,3.4228212211438676L14.316397405412346,9.167375051251184L5.663621727239002,4.113804678244495Q0,0,14.562517165382577,-10.579843751584319Z"/><path fill="#06c16d" d="M10.782915005217628,14.412797923729194A18,18,0,0,1,9.227268709097187,15.45501576091451Q0,0,3.2499731831013334,6.1998124414470945L7.098951490618391,15.44684070397073L2.588308533484952,6.503895673785748Q0,0,10.782915005217628,14.412797923729194Z"/><path fill="#06c16d" d="M-6.931918420153243,-16.611697896853897A18,18,0,0,1,-5.2721051500490885,-17.210604500912392Q0,0,6.411886186888908,2.808507704526235L15.21868827284038,7.575719586554846L6.106086708202497,3.4228212211438676Q0,0,-6.931918420153243,-16.611697896853897Z"/><path fill="#06c16d" d="M-17.858002025281664,-2.2564936660748773A18,18,0,0,1,-17.58002633987454,-3.8655754926423915Q0,0,-6.337100850264753,-2.9734076097255397L-15.046720205144682,-7.911776732699854L-6.041562058972687,-3.5354671385238072Q0,0,-17.858002025281664,-2.2564936660748773Z"/><path fill="#06c16d" d="M-12.367941249577232,13.077997906675396A18,18,0,0,1,-13.420460689718636,11.995467263750784Q0,0,1.9131737909448414,-6.733480975367922L5.328032853669165,-16.143483698081464L2.4707571997614703,-6.549454852109973Q0,0,-12.367941249577232,13.077997906675396Z"/><path fill="#06c16d" d="M-13.420460689718636,11.995467263750784A18,18,0,0,1,-14.307309593565623,10.922494778843573Q0,0,6.609746982875956,2.304613811978528L15.823817395404483,6.213437296448278L6.411886186888908,2.808507704526235Q0,0,-13.420460689718636,11.995467263750784Z"/><path fill="#06c16d" d="M-14.307309593565623,10.922494778843573A18,18,0,0,1,-15.063592289198603,9.853333818804495Q0,0,-6.083804458202074,3.4622714096905467L-15.071053602408847,7.865325378731595L-6.319436346927342,3.0107680510350874Q0,0,-14.307309593565623,10.922494778843573Z"/><path fill="#06c16d" d="M1.102182119232618e-15,-18A18,18,0,0,1,1.2168487249928617,-17.958821764817515Q0,0,6.750424130817589,1.8525048054122797L16.232351185233306,5.050819240405948L6.609746982875956,2.304613811978528Q0,0,1.102182119232618e-15,-18Z"/><path fill="#06c16d" d="M-17.309170689219634,4.938887531768659A18,18,0,0,1,-17.569737641214825,3.912073519104533Q0,0,1.5137445231607989,-6.834367382472257L4.163060797806497,-16.482382254812766L1.9131737909448414,-6.733480975367922Q0,0,-17.309170689219634,4.938887531768659Z"/><path fill="#06c16d" d="M-17.58002633987454,-3.8655754926423915A18,18,0,0,1,-17.345082691280346,-4.811247908042884Q0,0,1.1416872534934808,-6.906268906957687L3.225634694434392,-16.691173739975902L1.5137445231607989,-6.834367382472257Q0,0,-17.58002633987454,-3.8655754926423915Z"/><path fill="#06c16d" d="M3.788927490266378,17.59670504593129A18,18,0,0,1,2.87644286267391,17.768682462629926Q0,0,0.043828774711111844,6.999862787119996L-0.332067280321801,16.996756494147338L-0.31720496532288983,6.992809235920461Q0,0,3.788927490266378,17.59670504593129Z"/><path fill="#06c16d" d="M-5.2721051500490885,-17.210604500912392A18,18,0,0,1,-4.424215536276313,-17.44781696627321Q0,0,-1.497434202646969,-6.837959550095557L-3.2293960445918732,-16.69044640467038L-1.1612729288539025,-6.903002620940476Q0,0,-5.2721051500490885,-17.210604500912392Z"/><path fill="#06c16d" d="M-17.345082691280346,-4.811247908042884A18,18,0,0,1,-17.092175157417415,-5.644249142991736Q0,0,0.3822182057281436,6.989557156444889L0.5174940898720511,16.99212169998048L0.043828774711111844,6.999862787119996Q0,0,-17.345082691280346,-4.811247908042884Z"/><path fill="#06c16d" d="M-17.569737641214825,3.912073519104533A18,18,0,0,1,-17.723151939882584,3.144818804929181Q0,0,-6.975054911140608,0.5904311869924194L-16.96658280216861,1.0653957091880621L-6.99412443299015,0.28674625690707706Q0,0,-17.569737641214825,3.912073519104533Z"/><path fill="#06c16d" d="M15.700465907257074,-8.803145477331286A18,18,0,0,1,16.019024727093367,-8.209192822243319Q0,0,0.6436197184762823,6.970348173368997L1.2458787014298938,16.954285188745747L0.3822182057281436,6.989557156444889Q0,0,15.700465907257074,-8.803145477331286Z"/><path fill="#06c16d" d="M9.227268709097187,15.45501576091451A18,18,0,0,1,8.69818086368903,15.758859402334737Q0,0,6.809329608985933,1.622661479233263L16.467780476288628,4.220450945665299L6.750424130817589,1.8525048054122797Q0,0,9.227268709097187,15.45501576091451Z"/><path fill="#06c16d" d="M-17.092175157417415,-5.644249142991736A18,18,0,0,1,-16.893821593848173,-6.2127926052001055Q0,0,6.859794504298499,1.3939940311192585L16.600544492049362,3.663594214359656L6.809329608985933,1.622661479233263Q0,0,-17.092175157417415,-5.644249142991736Z"/><path fill="#06c16d" d="M16.019024727093367,-8.209192822243319A18,18,0,0,1,16.258789041743192,-7.723456408635415Q0,0,0.933357764280889,-6.937495461898089L2.5199828118323198,-16.81218863289577L1.1416872534934808,-6.906268906957687Q0,0,16.019024727093367,-8.209192822243319Z"/><path fill="#06c16d" d="M-15.063592289198603,9.853333818804495A18,18,0,0,1,-15.345412071450419,9.408417951886692Q0,0,-6.421377861185211,-2.786737584323368L-15.494096562860761,-6.995210625903009L-6.337100850264753,-2.9734076097255397Q0,0,-15.063592289198603,9.853333818804495Z"/><path fill="#06c16d" d="M-17.723151939882584,3.144818804929181A18,18,0,0,1,-17.79913767114246,2.6815477179638854Q0,0,6.893815315479991,1.214623561459896L16.702232150528182,3.167876448010992L6.859794504298499,1.3939940311192585Q0,0,-17.723151939882584,3.144818804929181Z"/><path fill="#06c16d" d="M2.87644286267391,17.768682462629926A18,18,0,0,1,2.4310695080664586,17.8350750221845Q0,0,6.922041278796754,1.0417987015896153L16.77770982085307,2.7401556830316194L6.893815315479991,1.214623561459896Q0,0,2.87644286267391,17.768682462629926Z"/><path fill="#06c16d" d="M-16.893821593848173,-6.2127926052001055A18,18,0,0,1,-16.758555300141733,-6.568928698965414Q0,0,-6.960997315798432,0.7379135243692413L-16.92329671948347,1.6130803279192063L-6.975054911140608,0.5904311869924194Q0,0,-16.893821593848173,-6.2127926052001055Z"/><path fill="#06c16d" d="M-15.345412071450419,9.408417951886692A18,18,0,0,1,-15.524402785678062,9.11004490373298Q0,0,-4.938725591003733,-4.9607448570516945L-11.877047417054499,-12.162883895402398L-4.841915426937537,-5.055279912960733Q0,0,-15.345412071450419,9.408417951886692Z"/><path fill="#06c16d" d="M-16.758555300141733,-6.568928698965414A18,18,0,0,1,-16.633743188615085,-6.878850742326169Q0,0,-5.029950633492696,-4.868223148606319L-12.105342482094064,-11.935689481182422L-4.938725591003733,-4.9607448570516945Q0,0,-16.758555300141733,-6.568928698965414Z"/><path fill="#06c16d" d="M-17.79913767114246,2.6815477179638854A18,18,0,0,1,-17.83858460205986,2.405181780064205Q0,0,-5.104846031592948,-4.789629108159601L-12.306908847502346,-11.727744651861606L-5.029950633492696,-4.868223148606319Q0,0,-17.79913767114246,2.6815477179638854Z"/><path fill="#06c16d" d="M1.2168487249928617,-17.958821764817515A18,18,0,0,1,1.493387877510767,-17.93794282093975Q0,0,-1.602605876049697,-6.814077663635114L-3.764446081589181,-16.577965668284147L-1.497434202646969,-6.837959550095557Q0,0,1.2168487249928617,-17.958821764817515Z"/><path fill="#06c16d" d="M-13.811979103656501,-11.542496837346592A18,18,0,0,1,-13.688727759344824,-11.68840161572755Q0,0,-5.155379901422825,-4.735193562253351L-12.459021121890359,-11.56601887791516L-5.104846031592948,-4.789629108159601Q0,0,-13.811979103656501,-11.542496837346592Z"/><path fill="#06c16d" d="M17.89449831093339,1.9460036485068808A18,18,0,0,1,17.87447726967608,2.1220420202797854Q0,0,6.405690299813363,-2.822610809671958L15.590224343538331,-6.778267102891771L6.433162495674019,-2.759423908038274Q0,0,17.89449831093339,1.9460036485068808Z"/><path fill="#06c16d" d="M-13.688727759344824,-11.68840161572755A18,18,0,0,1,-13.577315491155604,-11.817635298723095Q0,0,6.931605745162534,0.9761361552722791L16.822474627553053,2.450376992491929L6.922041278796754,1.0417987015896153Q0,0,-13.688727759344824,-11.68840161572755Z"/><path fill="#06c16d" d="M2.4310695080664586,17.8350750221845A18,18,0,0,1,2.2629861613838336,17.857180450266647Q0,0,0.8679771735705593,-6.945978377893244L2.187359535730877,-16.858690882196257L0.933357764280889,-6.937495461898089Q0,0,2.4310695080664586,17.8350750221845Z"/><path fill="#06c16d" d="M16.258789041743192,-7.723456408635415A18,18,0,0,1,16.325209057083192,-7.582054420968562Q0,0,-5.196282784718337,-4.690271337698902L-12.569994477873482,-11.445315147527838L-5.155379901422825,-4.735193562253351Q0,0,16.258789041743192,-7.723456408635415Z"/><path fill="#06c16d" d="M-17.83858460205986,2.405181780064205A18,18,0,0,1,-17.857441585717105,2.260924592440306Q0,0,-6.443691654508224,-2.7347463980451767L-15.621997692638402,-6.704713870941879L-6.421377861185211,-2.786737584323368Q0,0,-17.83858460205986,2.405181780064205Z"/><path fill="#06c16d" d="M17.87447726967608,2.1220420202797854A18,18,0,0,1,17.857891644298974,2.2573670548842766Q0,0,0.6963964728191856,6.965273286285686L1.6271741869590317,16.921947410546288L0.6436197184762823,6.970348173368997Q0,0,17.87447726967608,2.1220420202797854Z"/><path fill="#06c16d" d="M2.2629861613838336,17.857180450266647A18,18,0,0,1,2.1286857103194987,17.873687284572302Q0,0,6.384291097317606,-2.870684096989978L15.530801401683702,-6.9133355062125785L6.405690299813363,-2.822610809671958Q0,0,2.2629861613838336,17.857180450266647Z"/><path fill="#06c16d" d="M1.493387877510767,-17.93794282093975A18,18,0,0,1,1.6234545187373837,-17.926639267458672Q0,0,0.7468980678561157,6.960039028355574L1.752583467349382,16.909419008055057L0.6963964728191856,6.965273286285686Q0,0,1.493387877510767,-17.93794282093975Z"/><path fill="#06c16d" d="M17.857891644298974,2.2573670548842766A18,18,0,0,1,17.841436785105383,2.3839323486811517Q0,0,-5.229408701712415,-4.653308997955593L-12.659847795133487,-11.345847425558562L-5.196282784718337,-4.690271337698902Q0,0,17.857891644298974,2.2573670548842766Z"/><path fill="#06c16d" d="M1.6234545187373837,-17.926639267458672A18,18,0,0,1,1.7359557894578006,-17.916094928779764Q0,0,3.2888280487023835,6.17928879937396L7.940012035479745,15.03183983670784L3.2499731831013334,6.1998124414470945Q0,0,1.6234545187373837,-17.926639267458672Z"/><path fill="#06c16d" d="M-4.424215536276313,-17.44781696627321A18,18,0,0,1,-4.315226081959462,-17.475091526557932Q0,0,-6.956255917800448,0.7813473018231077L-16.899604082077488,1.8448257015311444L-6.960997315798432,0.7379135243692413Q0,0,-4.424215536276313,-17.44781696627321Z"/><path fill="#06c16d" d="M1.7359557894578006,-17.916094928779764A18,18,0,0,1,1.831729963289991,-17.90655649033576Q0,0,0.8308239863871818,-6.950520232590055L2.062837352436058,-16.874380049572032L0.8679771735705593,-6.945978377893244Q0,0,1.7359557894578006,-17.916094928779764Z"/><path fill="#06c16d" d="M-15.524402785678062,9.11004490373298A18,18,0,0,1,-15.561578597018565,9.046395501458784Q0,0,-6.952997944875032,0.8098268818479527L-16.88984366593684,1.9321441302897802L-6.956255917800448,0.7813473018231077Q0,0,-15.524402785678062,9.11004490373298Z"/><path fill="#06c16d" d="M2.1286857103194987,17.873687284572302A18,18,0,0,1,2.0610779993470114,17.88160947679508Q0,0,3.3121725983087984,6.166807332729987L8.015515114527258,14.991714960230036L3.2888280487023835,6.17928879937396Q0,0,2.1286857103194987,17.873687284572302Z"/><path fill="#06c16d" d="M-17.857441585717105,2.260924592440306A18,18,0,0,1,-17.86554636673312,2.195962890877035Q0,0,3.3345791059358003,6.154720317468244L8.071068985888052,14.961879742366465L3.3121725983087984,6.166807332729987Q0,0,-17.857441585717105,2.260924592440306Z"/><path fill="#06c16d" d="M-15.561578597018565,9.046395501458784A18,18,0,0,1,-15.593429083483366,8.9913830648224Q0,0,6.374113407854006,-2.8932124470587683L15.49237247970039,-6.999028143265463L6.384291097317606,-2.870684096989978Q0,0,-15.561578597018565,9.046395501458784Z"/><path fill="#06c16d" d="M1.831729963289991,-17.90655649033576A18,18,0,0,1,1.8945664830490359,-17.900017258128752Q0,0,6.3639196529043565,-2.915566265989797L15.467635391029447,-7.053527869809073L6.374113407854006,-2.8932124470587683Q0,0,1.831729963289991,-17.90655649033576Z"/><path fill="#06c16d" d="M17.841436785105383,2.3839323486811517A18,18,0,0,1,17.833213359198403,2.4446883820453817Q0,0,0.8071449437800742,-6.953309790289101L1.98896515674679,-16.88324665475356L0.8308239863871818,-6.950520232590055Q0,0,17.841436785105383,2.3839323486811517Z"/><path fill="#06c16d" d="M-16.633743188615085,-6.878850742326169A18,18,0,0,1,-16.611023372908402,-6.933534632832719Q0,0,-6.0723814760207615,3.4822669641599733L-14.761102889304663,8.432665147588958L-6.083804458202074,3.4622714096905467Q0,0,-16.633743188615085,-6.878850742326169Z"/><path fill="#06c16d" d="M1.8945664830490359,-17.900017258128752A18,18,0,0,1,1.946649936062911,-17.89442801618499Q0,0,-5.242928317679522,-4.638071005889645L-12.716422699614535,-11.282401948376428L-5.229408701712415,-4.653308997955593Q0,0,1.8945664830490359,-17.900017258128752Z"/><path fill="#06c16d" d="M1.946649936062911,-17.89442801618499A18,18,0,0,1,1.98822083867277,-17.889856843940013Q0,0,-6.450028209043559,-2.7197676559850343L-15.656670399159529,-6.623342963495235L-6.443691654508224,-2.7347463980451767Q0,0,1.946649936062911,-17.89442801618499Z"/><path fill="#06c16d" d="M2.0610779993470114,17.88160947679508A18,18,0,0,1,2.0215821252531407,17.886117681343176Q0,0,-5.253158533694485,-4.626480889388047L-12.7452560898463,-11.249819874301801L-5.242928317679522,-4.638071005889645Q0,0,2.0610779993470114,17.88160947679508Z"/><path fill="#06c16d" d="M1.98822083867277,-17.889856843940013A18,18,0,0,1,2.027180706596014,-17.88548401309858Q0,0,-6.951217628563257,0.8249687753796489L-16.883700350801703,1.985110189470212L-6.952997944875032,0.8098268818479527Q0,0,1.98822083867277,-17.889856843940013Z"/><path fill="#06c16d" d="M-4.315226081959462,-17.475091526557932A18,18,0,0,1,-4.277573923396312,-17.484346179651094Q0,0,0.7618885778826847,6.95841402870596L1.832099132424865,16.9009885145505L0.7468980678561157,6.960039028355574Q0,0,-4.315226081959462,-17.475091526557932Z"/><path fill="#06c16d" d="M17.833213359198403,2.4446883820453817A18,18,0,0,1,17.82807135353188,2.4819089051325167Q0,0,3.3474194800606103,6.147746158106298L8.11385984530178,14.938717428574629L3.3345791059358003,6.154720317468244Q0,0,17.833213359198403,2.4446883820453817Z"/><path fill="#06c16d" d="M-4.277573923396312,-17.484346179651094A18,18,0,0,1,-4.242513340299704,-17.49288657018558Q0,0,-5.262422979417412,-4.615940249364106L-12.76892682370177,-11.222945592443608L-5.253158533694485,-4.626480889388047Q0,0,-4.277573923396312,-17.484346179651094Z"/><path fill="#06c16d" d="M-17.86554636673312,2.195962890877035A18,18,0,0,1,-17.869805981370536,2.1610261886829996Q0,0,-1.6159263791642773,-6.810931062426122L-3.9082196062137213,-16.544661359774235L-1.602605876049697,-6.814077663635114Q0,0,-17.86554636673312,2.195962890877035Z"/><path fill="#06c16d" d="M-13.577315491155604,-11.817635298723095A18,18,0,0,1,-13.55945653775372,-11.838122249781334Q0,0,0.7966452041757306,-6.954520574321698L1.9474600203540424,-16.888084541152754L0.8071449437800742,-6.953309790289101Q0,0,-13.577315491155604,-11.817635298723095Z"/><path fill="#06c16d" d="M-16.611023372908402,-6.933534632832719A18,18,0,0,1,-16.601138249302835,-6.957169598876717Q0,0,6.359763566142405,-2.9246208955636694L15.450190678170168,-7.091657634727132L6.3639196529043565,-2.915566265989797Q0,0,-16.611023372908402,-6.933534632832719Z"/><path fill="#06c16d" d="M-4.242513340299704,-17.49288657018558A18,18,0,0,1,-4.2204626844593935,-17.49821975885221Q0,0,6.356072447779583,-2.9326341467317847L15.440661082843773,-7.112382535040824L6.359763566142405,-2.9246208955636694Q0,0,-4.242513340299704,-17.49288657018558Z"/><path fill="#06c16d" d="M8.69818086368903,15.758859402334737A18,18,0,0,1,8.67858504280837,15.769659528814907Q0,0,0.7705376681400642,6.957461584656955L1.8608036581519551,16.89785222286573L0.7618885778826847,6.95841402870596Q0,0,8.69818086368903,15.758859402334737Z"/><path fill="#06c16d" d="M8.67858504280837,15.769659528814907A18,18,0,0,1,8.65990474592529,15.77992553187437Q0,0,0.7884091988851646,-6.955459074361178L1.924709255379358,-16.890692534122365L0.7966452041757306,-6.954520574321698Q0,0,8.67858504280837,15.769659528814907Z"/><path fill="#06c16d" d="M-17.869805981370536,2.1610261886829996A18,18,0,0,1,-17.871853034303985,2.1440310446071873Q0,0,6.353280641549561,-2.938677438867968L15.43278763886063,-7.129450588497726L6.356072447779583,-2.9326341467317847Q0,0,-17.869805981370536,2.1610261886829996Z"/><path fill="#06c16d" d="M17.82807135353188,2.4819089051325167A18,18,0,0,1,17.82579725312137,2.4981898027593195Q0,0,-1.6221459586392268,-6.809452436787442L-3.931945391558995,-16.53903883053057L-1.6159263791642773,-6.810931062426122Q0,0,17.82807135353188,2.4819089051325167Z"/><path fill="#06c16d" d="M-15.593429083483366,8.9913830648224A18,18,0,0,1,-15.601426894525941,8.97749847422781Q0,0,3.3528907817931164,6.1447639015153985L8.136091838159885,14.926620836647123L3.3474194800606103,6.147746158106298Q0,0,-15.593429083483366,8.9913830648224Z"/><path fill="#06c16d" d="M2.0215821252531407,17.886117681343176A18,18,0,0,1,2.008114726080082,17.88763470241106Q0,0,-6.069757884360617,3.4868379981355795L-14.744027410956688,8.462485196734928L-6.0723814760207615,3.4822669641599733Q0,0,2.0215821252531407,17.886117681343176Z"/><path fill="#06c16d" d="M16.325209057083192,-7.582054420968562A18,18,0,0,1,16.33040092044707,-7.570865589710438Q0,0,-1.6268118391207735,-6.808339242436182L-3.945163271710616,-16.535890866824975L-1.6221459586392268,-6.809452436787442Q0,0,16.325209057083192,-7.582054420968562Z"/><path fill="#06c16d" d="M-13.55945653775372,-11.838122249781334A18,18,0,0,1,-13.55162656006527,-11.84708477122256Q0,0,-6.451825028635404,-2.715502494912087L-15.666536930395198,-6.5999712581619185L-6.450028209043559,-2.7197676559850343Q0,0,-13.55945653775372,-11.838122249781334Z"/><path fill="#06c16d" d="M-13.55162656006527,-11.84708477122256A18,18,0,0,1,-13.544164684676776,-11.855614829875103Q0,0,0.7749180886860396,6.956975057870135L1.8766249405670314,16.896102474607623L0.7705376681400642,6.957461584656955Q0,0,-13.55162656006527,-11.84708477122256Z"/><path fill="#06c16d" d="M-4.2204626844593935,-17.49821975885221A18,18,0,0,1,-4.210187544325916,-17.500694867393207Q0,0,3.356498218823848,6.142794128654511L8.147115566142466,14.92060682250957L3.3528907817931164,6.1447639015153985Q0,0,-4.2204626844593935,-17.49821975885221Z"/><path fill="#06c16d" d="M2.008114726080082,17.88763470241106A18,18,0,0,1,1.9987221034401355,17.88868664696265Q0,0,-1.6303865020771857,-6.807484106029519L-3.9551695506185984,-16.533500350072863L-1.6268118391207735,-6.808339242436182Q0,0,2.008114726080082,17.88763470241106Z"/><path fill="#06c16d" d="M-16.601138249302835,-6.957169598876717A18,18,0,0,1,-16.597978214305645,-6.964705248424749Q0,0,3.3592864978603547,6.1412697567598435L8.15488165176374,14.916363673688274L3.356498218823848,6.142794128654511Q0,0,-16.601138249302835,-6.957169598876717Z"/><path fill="#06c16d" d="M17.82579725312137,2.4981898027593195A18,18,0,0,1,17.824858029334628,2.5048824790925455Q0,0,-6.452844133184536,-2.7130799090380506L-15.66995568690422,-6.591850178095529L-6.451825028635404,-2.715502494912087Q0,0,17.82579725312137,2.4981898027593195Z"/><path fill="#06c16d" d="M-15.601426894525941,8.97749847422781A18,18,0,0,1,-15.60478948709937,8.971652303969039Q0,0,-1.63293701468023,-6.8068727552443065L-3.9626071970274603,-16.531719335933154L-1.6303865020771857,-6.807484106029519Q0,0,-15.601426894525941,8.97749847422781Z"/><path fill="#06c16d" d="M-16.597978214305645,-6.964705248424749A18,18,0,0,1,-16.595621165562566,-6.970319801065929Q0,0,-1.6352396268864289,-6.806319957411666L-3.968500264386544,-16.530305673264603L-1.63293701468023,-6.8068727552443065Q0,0,-16.597978214305645,-6.964705248424749Z"/><path fill="#06c16d" d="M-13.544164684676776,-11.855614829875103A18,18,0,0,1,-13.540431073450081,-11.859878850357093Q0,0,-6.950957528686041,0.8271574423305644L-16.881212900148377,2.006153289223938L-6.951217628563257,0.8249687753796489Q0,0,-13.544164684676776,-11.855614829875103Z"/><path fill="#06c16d" d="M8.65990474592529,15.77992553187437A18,18,0,0,1,8.654965598531673,15.782635093299005Q0,0,-6.950698308594666,0.8293328782215579L-16.88058229481537,2.0114525567275816L-6.950957528686041,0.8271574423305644Q0,0,8.65990474592529,15.77992553187437Z"/><path fill="#06c16d" d="M8.654965598531673,15.782635093299005A18,18,0,0,1,8.650198627283997,15.78524829416801Q0,0,-6.06870453370101,3.4886709908841804L-14.739561675700202,8.470261011812438L-6.069757884360617,3.4868379981355795Q0,0,8.654965598531673,15.782635093299005Z"/><path fill="#06c16d" d="M17.824858029334628,2.5048824790925455A18,18,0,0,1,17.824131014224186,2.5100505149840155Q0,0,-6.950457559578139,0.8313481295480951L-16.87997516015871,2.0165412449104276L-6.950698308594666,0.8293328782215579Q0,0,17.824858029334628,2.5048824790925455Z"/><path fill="#06c16d" d="M-13.540431073450081,-11.859878850357093A18,18,0,0,1,-13.537011652858983,-11.863781669870704Q0,0,3.3610567076600244,6.140301117037629L8.160416834326908,14.913336215952285L3.3592864978603547,6.1412697567598435Q0,0,-13.540431073450081,-11.859878850357093Z"/><path fill="#06c16d" d="M16.33040092044707,-7.570865589710438A18,18,0,0,1,16.332447564635892,-7.566449401695561Q0,0,3.3627169864234254,6.139392027653827L8.164582417441757,14.911056097701493L3.3610567076600244,6.140301117037629Q0,0,16.33040092044707,-7.570865589710438Z"/><path fill="#06c16d" d="M-13.537011652858983,-11.863781669870704A18,18,0,0,1,-13.533877681434381,-11.867356694056701Q0,0,6.352504247236272,-2.9403553847868666L15.428453213778045,-7.138825633832353L6.353280641549561,-2.938677438867968Q0,0,-13.537011652858983,-11.863781669870704Z"/><path fill="#06c16d" d="M16.332447564635892,-7.566449401695561A18,18,0,0,1,16.333807122289862,-7.5635140570923065Q0,0,-6.950308039742228,0.8325972331773351L-16.879501153036387,2.020505091466808L-6.950457559578139,0.8313481295480951Q0,0,16.332447564635892,-7.566449401695561Z"/><path fill="#06c16d" d="M1.9987221034401355,17.88868664696265A18,18,0,0,1,1.9955997329758712,17.889035236863574Q0,0,-6.453317583237055,-2.711953570746272L-15.671767858192299,-6.587540679110131L-6.452844133184536,-2.7130799090380506Q0,0,1.9987221034401355,17.88868664696265Z"/><path fill="#06c16d" d="M-17.871853034303985,2.1440310446071873A18,18,0,0,1,-17.872160747612615,2.14146450157245Q0,0,0.7759171501281862,6.956863702570071L1.8831570805575166,16.89537568123142L0.7749180886860396,6.956975057870135Q0,0,-17.871853034303985,2.1440310446071873Z"/><path fill="#06c16d" d="M-4.210187544325916,-17.500694867393207A18,18,0,0,1,-4.20770933665201,-17.501290870625844Q0,0,-6.453701541556212,-2.711039729055068L-15.672808976532169,-6.5850633091210815L-6.453317583237055,-2.711953570746272Q0,0,-4.210187544325916,-17.500694867393207Z"/><path fill="#06c16d" d="M-13.533877681434381,-11.867356694056701A18,18,0,0,1,-13.532698979402024,-11.86870078538049Q0,0,-1.6359156049791381,-6.806157516057481L-3.972117072162927,-16.52943695245037L-1.6352396268864289,-6.806319957411666Q0,0,-13.533877681434381,-11.867356694056701Z"/><path fill="#06c16d" d="M8.650198627283997,15.78524829416801A18,18,0,0,1,8.648704614840542,15.786066909944221Q0,0,6.352225932784493,-2.940956595881717L15.42717237872725,-7.141593127379564L6.352504247236272,-2.9403553847868666Q0,0,8.650198627283997,15.78524829416801Z"/><path fill="#06c16d" d="M8.648704614840542,15.786066909944221A18,18,0,0,1,8.647705928403031,15.786614018714182Q0,0,-5.262714985705401,-4.61560732506913L-12.78052467832857,-11.209736345991121L-5.262422979417412,-4.615940249364106Q0,0,8.648704614840542,15.786066909944221Z"/><path fill="#06c16d" d="M16.333807122289862,-7.5635140570923065A18,18,0,0,1,16.334192585037915,-7.562681574342024Q0,0,-6.453839704707797,-2.7107108045560993L-15.673442946981096,-6.583554221522634L-6.453701541556212,-2.711039729055068Q0,0,16.333807122289862,-7.5635140570923065Z"/><path fill="#06c16d" d="M8.647705928403031,15.786614018714182A18,18,0,0,1,8.647062077901039,15.786966694743034Q0,0,-1.6361931868278798,-6.80609079100316L-3.9732749623060735,-16.529158662010346L-1.6359156049791381,-6.806157516057481Q0,0,8.647705928403031,15.786614018714182Z"/><path fill="#06c16d" d="M1.9955997329758712,17.889035236863574A18,18,0,0,1,1.9952155289010503,17.88907809232304Q0,0,-6.950290156411032,0.8327465050637612L-16.879297810587897,2.0222031108379275L-6.950308039742228,0.8325972331773351Q0,0,1.9955997329758712,17.889035236863574Z"/><path fill="#06c16d" d="M-4.20770933665201,-17.501290870625844A18,18,0,0,1,-4.207353908985977,-17.50137631972241Q0,0,-6.0686336824093825,3.488794237086264L-14.738196406036733,8.472636348686631L-6.06870453370101,3.4886709908841804Q0,0,-4.20770933665201,-17.501290870625844Z"/><path fill="#06c16d" d="M16.334192585037915,-7.562681574342024A18,18,0,0,1,16.334295255731554,-7.5624598179815585Q0,0,-6.068586317410351,3.4888766255257404L-14.738052857263513,8.47288604765264L-6.0686336824093825,3.488794237086264Q0,0,16.334192585037915,-7.562681574342024Z"/><path fill="#06c16d" d="M2.027180706596014,-17.88548401309858A18,18,0,0,1,2.0273379399904234,-17.88546619121446Q0,0,-6.068555646035643,3.4889299750738663L-14.737958098612511,8.473050872238518L-6.068586317410351,3.4888766255257404Q0,0,2.027180706596014,-17.88548401309858Z"/><path fill="#06c16d" d="M-17.872160747612615,2.14146450157245A18,18,0,0,1,-17.872174687914082,2.141348155878243Q0,0,-6.0685329333863125,3.488969480578143L-14.737893275090444,8.473163624765181L-6.068555646035643,3.4889299750738663Q0,0,-17.872160747612615,2.14146450157245Z"/><path fill="#06c16d" d="M8.647062077901039,15.786966694743034A18,18,0,0,1,8.64698653651738,15.787008071109838Q0,0,-6.453852675496554,-2.7106799226367504L-15.67362646172157,-6.583117311610159L-6.453839704707797,-2.7107108045560993Q0,0,8.647062077901039,15.786966694743034Z"/><path fill="#06c16d" d="M17.824131014224186,2.5100505149840155Q0,0,-6.068530215616174,3.4889742077225954L-14.737862395218423,8.473217335794397L-6.0685329333863125,3.488969480578143Q0,0,17.824131014224186,2.5100505149840155Z"/><path fill="#06c16d" d="M-13.532698979402024,-11.86870078538049Q0,0,-6.068529244983088,3.4889758959879593L-14.737857916442104,8.473225125934327L-6.068530215616174,3.4889742077225954Q0,0,-13.532698979402024,-11.86870078538049Z"/></g></g></svg>