<?xml version="1.0" encoding="UTF-8"?>
<svg id="rawgraphs-icons" xmlns="http://www.w3.org/2000/svg" width="56" height="56" viewBox="0 0 56 56">
  <defs>
    <style>
      .cls-1 {
        fill: #06c26c;
      }

      .cls-2 {
        fill: #95e5c0;
      }
    </style>
  </defs>
  <g>
    <path class="cls-1" d="m28.00553,7c10.32326,0,19.11555,7.50312,20.73877,17.69797l-1.97512.31448c-1.46863-9.22391-9.42355-16.01245-18.76365-16.01245v-2Z"/>
    <path class="cls-1" d="m48.97645,26.89525c.20952,3.97715-.71624,7.93188-2.66927,11.40279l-1.74302-.98077c1.76703-3.14035,2.60462-6.71844,2.41506-10.31681l1.99723-.10521Z"/>
    <path class="cls-1" d="m45.12388,40.16397c-3.48971,4.91106-8.92058,8.08679-14.9119,8.71979l-.21014-1.98893c5.42071-.57272,10.33437-3.446,13.49172-7.88933l1.63032,1.15847Z"/>
    <path class="cls-1" d="m28.00553,49c-1.98136,0-3.95275-.28041-5.85553-.83288l.55767-1.92068c1.72156.49986,3.5052.75356,5.29786.75356v2Z"/>
    <path class="cls-1" d="m20.06348,47.44026c-10.73656-4.38627-15.88448-16.64575-11.49821-27.38231.33019-.80824.71047-1.59509,1.13861-2.35599l1.74302.98077c-5.14579,9.14508-1.90372,20.73012,7.24136,25.87591.68843.38737,1.40035.73143,2.13161,1.03017l-.75639,1.85145Z"/>
    <path class="cls-1" d="m10.88719,15.83603c3.48971-4.91106,8.92058-8.08679,14.9119-8.71979l.21014,1.98893c-5.42071.57272-10.33437,3.446-13.49172,7.88933l-1.63032-1.15847Z"/>
  </g>
  <path class="cls-2" d="m28.45285,11.00589c2.91932.07684,5.76962.90443,8.27615,2.40298-5.81564,9.72742-5.32071,19.1224,1.48479,28.18494-2.3352,1.75362-5.08277,2.8761-7.97786,3.25924-1.48693-11.23537-2.08129-22.51776-1.78308-33.84717Z"/>
  <g>
    <path class="cls-2" d="m23.69659,44.44482c1.26184.33063,2.55762.51495,3.86163.54926.09082-3.44922-.33069-6.17755-1.25012-8.20508-.57513.74304-1.12244,1.5213-1.64154,2.33411-.10144,1.46167-.42255,3.23242-.96997,5.32172Z"/>
    <path class="cls-2" d="m12.10449,34.01294c.44873,1.18677,1.03394,2.31647,1.73462,3.3739,2.13269-1.6015,4.27979-3.23712,6.4267-4.89252-2.21747-.20166-4.93317.29791-8.16132,1.51862Z"/>
  </g>
  <path class="cls-2" d="m14.41174,38.20825c1.7536,2.33521,4.07922,4.17926,6.75269,5.35449,1.7832-4.05664,4.07684-7.4696,6.86615-10.25751-.13708-1.77588-.25958-3.55322-.35291-5.3327-4.37726,3.46826-8.79865,6.88098-13.26593,10.23572Z"/>
  <g>
    <path class="cls-2" d="m44.99963,27.55267c-2.91333.07666-5.20062.43585-6.88385,1.06757,1.45764,1.10529,3.64136,2.04999,6.53949,2.81079.2627-1.27539.37866-2.57666.34436-3.87836Z"/>
    <path class="cls-2" d="m38.91479,41.03796c1.00049-.83716,1.90125-1.78662,2.68457-2.82971-4.68109-3.51526-6.66522-5.8136-5.9671-6.90161-.14398-.17883-.2832-.35889-.41553-.54071-1.37146,2.2489-.15698,5.66473,3.69806,10.27203Z"/>
  </g>
  <path class="cls-2" d="m43.0354,35.94379c.60956-1.15332,1.08435-2.37292,1.41498-3.63483-3.81079-.99854-6.43024-2.29694-7.91388-3.88116-.45526.21527-.88684.45825-1.32513.69348,1.46008,2.56311,4.06793,4.83728,7.82404,6.82251Z"/>
  <path class="cls-2" d="m37.48456,13.888c-1.87091,2.7854-3.0072,5.38586-3.44592,7.81079,2.146-1.74854,4.2851-3.50629,6.40857-5.28302-.88757-.95319-1.88147-1.80151-2.96265-2.52777Z"/>
  <path class="cls-2" d="m33.82043,28.83417c3.19415-1.86877,6.82343-3.18896,10.89752-3.94806-.53497-2.87097-1.80042-5.55566-3.67444-7.79535-2.31647,1.93823-4.64819,3.85718-6.99097,5.76227-.37781,2.01208-.45062,4.00385-.23212,5.98114Z"/>
  <path class="cls-2" d="m14.41173,17.79175c2.74177-3.65107,6.83697-6.04575,11.36341-6.6448,1.48693,11.23537-3.16807,18.57576-13.96499,22.02117-1.38807-4.34981-.96803-9.07514,1.16554-13.11191,10.0199,5.29586,10.49858,4.54103,1.43604-2.26447Z"/>
</svg>