<svg id="rawgraphs-icons" xmlns="http://www.w3.org/2000/svg" width="56" height="56" viewBox="0 0 56 56">
  <defs>
    <style>
      .cls-1 {
        fill: #95e5c0;
      }

      .cls-2 {
        fill: #06c26c;
      }
    </style>
  </defs>
  <g id="secundary">
    <path class="cls-1" d="M41.6516,28.2064a14.3768,14.3768,0,0,0,1.8318-.5658,13.8021,13.8021,0,0,1,3.9648-.9111l-.0918-.9961a14.8546,14.8546,0,0,0-4.2148.9673,11.1656,11.1656,0,0,1-4.5439.7993H28.9244l5.2383-8.0153c1.3173-2.0138,2.9708-2.1361,4.8861-2.2772A8.6119,8.6119,0,0,0,43.2666,16.13l-.5332-.8467a7.7182,7.7182,0,0,1-3.7578.9267,10.4839,10.4839,0,0,0-3.0164.5256l3.1238-4.78-.8379-.5469-3.0542,4.6734a10.2981,10.2981,0,0,0-.4975-2.4483,9.2067,9.2067,0,0,1-.4922-4.21l-.99-.1435a10.1532,10.1532,0,0,0,.5235,4.6352c.497,1.6958.89,3.0347-.4112,5.0244l0,0-5.1576,7.8916L22.7725,9.2065l-.9571.293,5.2226,17.067L13.2354,15.2651l-.6329.7735L26.4212,27.3531l-17.68-1.62-.0918.9961,17.6881,1.62L10.7061,37.0161l.4843.875,15.6851-8.6959L19.1494,45.3813l.9024.4307,7.7036-16.139,2.7632,17.6708.9882-.1543L28.7445,29.5241,40.9707,42.5557l.7285-.6846L29.1545,28.5H38.5a5.5617,5.5617,0,0,1,4.2354,1.7256,8.5877,8.5877,0,0,0,4.2519,2.2495l.2051-.9785a7.6392,7.6392,0,0,1-3.8037-2.0283A9.3688,9.3688,0,0,0,41.6516,28.2064Z"/>
  </g>
  <g id="primary">
    <circle class="cls-2" cx="28" cy="28" r="1.5"/>
    <circle class="cls-2" cx="38.5" cy="28" r="1.5"/>
    <circle class="cls-2" cx="47.305" cy="26.2314" r="1.5"/>
    <circle class="cls-2" cx="47.0898" cy="31.986" r="1.5"/>
    <circle class="cls-2" cx="43.1356" cy="15.6079" r="1.5"/>
    <circle class="cls-2" cx="38.6642" cy="11.6828" r="1.5"/>
    <circle class="cls-2" cx="33.7062" cy="9.352" r="1.5"/>
    <circle class="cls-2" cx="22.2938" cy="9.353" r="1.5"/>
    <circle class="cls-2" cx="12.9193" cy="15.6517" r="1.5"/>
    <circle class="cls-2" cx="8.6949" cy="26.2314" r="1.5"/>
    <circle class="cls-2" cx="10.9487" cy="37.4537" r="1.5"/>
    <circle class="cls-2" cx="19.6004" cy="45.5965" r="1.5"/>
    <circle class="cls-2" cx="31.0127" cy="47.2664" r="1.5"/>
    <circle class="cls-2" cx="41.3348" cy="42.2132" r="1.5"/>
    <circle class="cls-2" cx="33.7624" cy="19.2262" r="1.5"/>
    <circle class="cls-2" cx="29.6124" cy="38.376" r="1.5"/>
    <circle class="cls-2" cx="35.2974" cy="35.5428" r="1.5"/>
    <circle class="cls-2" cx="23.4611" cy="37.5086" r="1.5"/>
    <circle class="cls-2" cx="18.7725" cy="33.0056" r="1.5"/>
    <circle class="cls-2" cx="17.5583" cy="27.0434" r="1.5"/>
    <circle class="cls-2" cx="19.8824" cy="21.3532" r="1.5"/>
    <circle class="cls-2" cx="24.9211" cy="17.9385" r="1.5"/>
  </g>
</svg>
