<svg id="rawgraphs-icons" xmlns="http://www.w3.org/2000/svg" width="56" height="56" viewBox="0 0 56 56">
  <defs>
    <style>
      .cls-1 {
        fill: #06c26c;
      }

      .cls-2 {
        fill: #95e5c0;
      }
    </style>
  </defs>
  <g transform="translate(20.5 -2)">
    <rect class="cls-1" x="7.0029" y="9.1357" width="0.9941" height="38.8643"/>
    <polygon class="cls-1" points="5.815 11.115 7.5 9.43 9.185 11.115 9.185 9.685 7.5 8 5.815 9.685 5.815 11.115"/>
  </g>
  <g transform="rotate(90 8.52605 47) translate(1 -1)">
    <rect class="cls-1" x="7.0029" y="9.1357" width="0.9941" height="38.8643"/>
    <polygon class="cls-1" points="5.815 11.115 7.5 9.43 9.185 11.115 9.185 9.685 7.5 8 5.815 9.685 5.815 11.115"/>
    <polygon class="cls-1" transform="rotate(180 7.5 8) translate(0 -41)" points="5.815 11.115 7.5 9.43 9.185 11.115 9.185 9.685 7.5 8 5.815 9.685 5.815 11.115"/>
  </g>
  <rect class="cls-1" x="30" y="12" width="12" height="7"/>
  <rect class="cls-1" x="30" y="20" width="10" height="7"/>
  <rect class="cls-1" x="30" y="28" width="12" height="7"/>
  <rect class="cls-1" x="30" y="36" width="8" height="7"/>
  <rect class="cls-2" x="21" y="12" width="5" height="7"/>
  <rect class="cls-2" x="18" y="20" width="8" height="7"/>
  <rect class="cls-2" x="11" y="28" width="15" height="7"/>
  <rect class="cls-2" x="23" y="36" width="3" height="7"/>
</svg>
