<svg xmlns="http://www.w3.org/2000/svg" width="805" height="600"><rect width="805" height="600" fill="#FFFFFF"/><text x="402.5" y="50" style="text-anchor: middle;" font-size="20"/><g transform="translate(&#xA;      50,&#xA;      70)"><g fill="none" font-size="10" font-family="sans-serif" text-anchor="left" transform="translate(352.5, 0)"><g class="tick" opacity="1" transform="translate(0,11.903771903771906)"><text fill="currentColor" x="0" dy="0.32em" dx="0" text-anchor="middle">100 100+</text></g><g class="tick" opacity="1" transform="translate(0,34.71339471339471)"><text fill="currentColor" x="0" dy="0.32em" dx="0" text-anchor="middle">95-99</text></g><g class="tick" opacity="1" transform="translate(0,57.52301752301752)"><text fill="currentColor" x="0" dy="0.32em" dx="0" text-anchor="middle">90-94</text></g><g class="tick" opacity="1" transform="translate(0,80.33264033264034)"><text fill="currentColor" x="0" dy="0.32em" dx="0" text-anchor="middle">85-89</text></g><g class="tick" opacity="1" transform="translate(0,103.14226314226315)"><text fill="currentColor" x="0" dy="0.32em" dx="0" text-anchor="middle">80-84</text></g><g class="tick" opacity="1" transform="translate(0,125.95188595188596)"><text fill="currentColor" x="0" dy="0.32em" dx="0" text-anchor="middle">75-79</text></g><g class="tick" opacity="1" transform="translate(0,148.76150876150876)"><text fill="currentColor" x="0" dy="0.32em" dx="0" text-anchor="middle">70-74</text></g><g class="tick" opacity="1" transform="translate(0,171.5711315711316)"><text fill="currentColor" x="0" dy="0.32em" dx="0" text-anchor="middle">65-69</text></g><g class="tick" opacity="1" transform="translate(0,194.38075438075438)"><text fill="currentColor" x="0" dy="0.32em" dx="0" text-anchor="middle">60-64</text></g><g class="tick" opacity="1" transform="translate(0,217.19037719037718)"><text fill="currentColor" x="0" dy="0.32em" dx="0" text-anchor="middle">55-59</text></g><g class="tick" opacity="1" transform="translate(0,240)"><text fill="currentColor" x="0" dy="0.32em" dx="0" text-anchor="middle">50-54</text></g><g class="tick" opacity="1" transform="translate(0,262.8096228096228)"><text fill="currentColor" x="0" dy="0.32em" dx="0" text-anchor="middle">45-49</text></g><g class="tick" opacity="1" transform="translate(0,285.6192456192456)"><text fill="currentColor" x="0" dy="0.32em" dx="0" text-anchor="middle">40-44</text></g><g class="tick" opacity="1" transform="translate(0,308.42886842886844)"><text fill="currentColor" x="0" dy="0.32em" dx="0" text-anchor="middle">35-39</text></g><g class="tick" opacity="1" transform="translate(0,331.2384912384913)"><text fill="currentColor" x="0" dy="0.32em" dx="0" text-anchor="middle">30-34</text></g><g class="tick" opacity="1" transform="translate(0,354.04811404811403)"><text fill="currentColor" x="0" dy="0.32em" dx="0" text-anchor="middle">25-29</text></g><g class="tick" opacity="1" transform="translate(0,376.8577368577369)"><text fill="currentColor" x="0" dy="0.32em" dx="0" text-anchor="middle">20-24</text></g><g class="tick" opacity="1" transform="translate(0,399.6673596673596)"><text fill="currentColor" x="0" dy="0.32em" dx="0" text-anchor="middle">15-19</text></g><g class="tick" opacity="1" transform="translate(0,422.47698247698247)"><text fill="currentColor" x="0" dy="0.32em" dx="0" text-anchor="middle">10-14</text></g><g class="tick" opacity="1" transform="translate(0,445.2866052866053)"><text fill="currentColor" x="0" dy="0.32em" dx="0" text-anchor="middle">5-9</text></g><g class="tick" opacity="1" transform="translate(0,468.09622809622806)"><text fill="currentColor" x="0" dy="0.32em" dx="0" text-anchor="middle">0-4</text></g><text font-family="sans-serif" font-size="10" class="labels" fill="currentColor" transform="translate(-9.666666984558105, 0)">Age</text></g><g fill="none" font-size="10" font-family="sans-serif" text-anchor="middle" transform="translate(-402.5, 480)"><path class="domain" stroke="currentColor" d="M705,6V0H402.5V6"/><g class="tick" opacity="1" transform="translate(705,0)"><line stroke="currentColor" y2="6"/><text fill="currentColor" y="9" dy="0.71em" text-anchor="start" transform="rotate(45)">0</text></g><g class="tick" opacity="1" transform="translate(667.1875,0)"><line stroke="currentColor" y2="6"/><text fill="currentColor" y="9" dy="0.71em" text-anchor="start" transform="rotate(45)">50,000</text></g><g class="tick" opacity="1" transform="translate(629.375,0)"><line stroke="currentColor" y2="6"/><text fill="currentColor" y="9" dy="0.71em" text-anchor="start" transform="rotate(45)">100,000</text></g><g class="tick" opacity="1" transform="translate(591.5625,0)"><line stroke="currentColor" y2="6"/><text fill="currentColor" y="9" dy="0.71em" text-anchor="start" transform="rotate(45)">150,000</text></g><g class="tick" opacity="1" transform="translate(553.75,0)"><line stroke="currentColor" y2="6"/><text fill="currentColor" y="9" dy="0.71em" text-anchor="start" transform="rotate(45)">200,000</text></g><g class="tick" opacity="1" transform="translate(515.9375,0)"><line stroke="currentColor" y2="6"/><text fill="currentColor" y="9" dy="0.71em" text-anchor="start" transform="rotate(45)">250,000</text></g><g class="tick" opacity="1" transform="translate(478.125,0)"><line stroke="currentColor" y2="6"/><text fill="currentColor" y="9" dy="0.71em" text-anchor="start" transform="rotate(45)">300,000</text></g><g class="tick" opacity="1" transform="translate(440.3125,0)"><line stroke="currentColor" y2="6"/><text fill="currentColor" y="9" dy="0.71em" text-anchor="start" transform="rotate(45)">350,000</text></g><g class="tick" opacity="1" transform="translate(402.5,0)"><line stroke="currentColor" y2="6"/><text fill="currentColor" y="9" dy="0.71em" text-anchor="start" transform="rotate(45)">400,000</text></g><text font-family="sans-serif" font-size="10" class="labels" fill="currentColor" dx="389.1710510253906" transform="translate(10.558333396911621, -5)">Men</text></g><g fill="none" font-size="10" font-family="sans-serif" text-anchor="middle" transform="translate(402.5, 480)"><path class="domain" stroke="currentColor" d="M0,6V0H302.5V6"/><g class="tick" opacity="1" transform="translate(0,0)"><line stroke="currentColor" y2="6"/><text fill="currentColor" y="9" dy="0.71em" text-anchor="start" transform="rotate(45)">0</text></g><g class="tick" opacity="1" transform="translate(37.8125,0)"><line stroke="currentColor" y2="6"/><text fill="currentColor" y="9" dy="0.71em" text-anchor="start" transform="rotate(45)">50,000</text></g><g class="tick" opacity="1" transform="translate(75.625,0)"><line stroke="currentColor" y2="6"/><text fill="currentColor" y="9" dy="0.71em" text-anchor="start" transform="rotate(45)">100,000</text></g><g class="tick" opacity="1" transform="translate(113.4375,0)"><line stroke="currentColor" y2="6"/><text fill="currentColor" y="9" dy="0.71em" text-anchor="start" transform="rotate(45)">150,000</text></g><g class="tick" opacity="1" transform="translate(151.25,0)"><line stroke="currentColor" y2="6"/><text fill="currentColor" y="9" dy="0.71em" text-anchor="start" transform="rotate(45)">200,000</text></g><g class="tick" opacity="1" transform="translate(189.0625,0)"><line stroke="currentColor" y2="6"/><text fill="currentColor" y="9" dy="0.71em" text-anchor="start" transform="rotate(45)">250,000</text></g><g class="tick" opacity="1" transform="translate(226.875,0)"><line stroke="currentColor" y2="6"/><text fill="currentColor" y="9" dy="0.71em" text-anchor="start" transform="rotate(45)">300,000</text></g><g class="tick" opacity="1" transform="translate(264.6875,0)"><line stroke="currentColor" y2="6"/><text fill="currentColor" y="9" dy="0.71em" text-anchor="start" transform="rotate(45)">350,000</text></g><g class="tick" opacity="1" transform="translate(302.5,0)"><line stroke="currentColor" y2="6"/><text fill="currentColor" y="9" dy="0.71em" text-anchor="start" transform="rotate(45)">400,000</text></g><text font-family="sans-serif" font-size="10" class="labels" fill="currentColor" dx="327.50801277160645" transform="translate(-18.816667556762695, -5)">Women</text></g><g id="bars1"><rect x="132.51239375" y="457.19037719037715" height="21.811701811701813" width="169.98760625" fill="rgb(234, 60, 46)"/><rect x="137.0098125" y="434.3807543807544" height="21.811701811701813" width="165.4901875" fill="rgb(237, 65, 49)"/><rect x="138.68415" y="411.57113157113156" height="21.811701811701813" width="163.81585" fill="rgb(238, 67, 50)"/><rect x="132.116875" y="388.7615087615087" height="21.811701811701813" width="170.383125" fill="rgb(234, 59, 46)"/><rect x="100.86257499999999" y="365.95188595188597" height="21.811701811701813" width="201.637425" fill="rgb(204, 29, 31)"/><rect x="69.90548125000001" y="343.1422631422631" height="21.811701811701813" width="232.59451875" fill="rgb(167, 15, 22)"/><rect x="69.366275" y="320.3326403326404" height="21.811701811701813" width="233.133725" fill="rgb(166, 15, 22)"/><rect x="70.74038125000001" y="297.52301752301753" height="21.811701811701813" width="231.75961875" fill="rgb(168, 16, 22)"/><rect x="88.37461875" y="274.7133947133947" height="21.811701811701813" width="214.12538125" fill="rgb(190, 22, 27)"/><rect x="68.30676875" y="251.9037719037719" height="21.811701811701813" width="234.19323125" fill="rgb(165, 15, 22)"/><rect x="32.10659375" y="229.0941490941491" height="21.811701811701813" width="270.39340625" fill="rgb(103, 0, 13)"/><rect x="44.56581249999999" y="206.28452628452627" height="21.811701811701813" width="257.9341875" fill="rgb(126, 5, 16)"/><rect x="95.16196249999999" y="183.47490347490347" height="21.811701811701813" width="207.3380375" fill="rgb(198, 26, 29)"/><rect x="141.80973124999997" y="160.66528066528068" height="21.811701811701813" width="160.69026875000003" fill="rgb(240, 71, 53)"/><rect x="166.64725" y="137.85565785565785" height="21.811701811701813" width="135.85275" fill="rgb(249, 104, 75)"/><rect x="175.8266125" y="115.04603504603504" height="21.811701811701813" width="126.67338749999999" fill="rgb(250, 116, 85)"/><rect x="226.53846875" y="92.23641223641224" height="21.811701811701813" width="75.96153125000001" fill="rgb(252, 177, 150)"/><rect x="263.43590625" y="69.42678942678943" height="21.811701811701813" width="39.06409375" fill="rgb(254, 217, 201)"/><rect x="287.93689375" y="46.61716661716662" height="21.811701811701813" width="14.563106249999999" fill="rgb(255, 236, 227)"/><rect x="300.00815625" y="23.80754380754381" height="21.811701811701813" width="2.49184375" fill="rgb(255, 244, 238)"/><rect x="302.37975625" y="0.9979209979209998" height="21.811701811701813" width="0.12024375000000001" fill="rgb(255, 245, 240)"/></g><g id="bars2"><rect x="402.5" y="457.19037719037715" height="21.811701811701813" width="160.73110625" fill="rgb(75, 152, 201)"/><rect x="402.5" y="434.3807543807544" height="21.811701811701813" width="155.566675" fill="rgb(82, 156, 204)"/><rect x="402.5" y="411.57113157113156" height="21.811701811701813" width="155.73758750000002" fill="rgb(81, 156, 204)"/><rect x="402.5" y="388.7615087615087" height="21.811701811701813" width="160.22971249999998" fill="rgb(76, 152, 202)"/><rect x="402.5" y="365.95188595188597" height="21.811701811701813" width="190.7686" fill="rgb(44, 123, 186)"/><rect x="402.5" y="343.1422631422631" height="21.811701811701813" width="221.3074875" fill="rgb(19, 94, 165)"/><rect x="402.5" y="320.3326403326404" height="21.811701811701813" width="225.50165" fill="rgb(17, 90, 161)"/><rect x="402.5" y="297.52301752301753" height="21.811701811701813" width="228.33683125000002" fill="rgb(15, 87, 159)"/><rect x="402.5" y="274.7133947133947" height="21.811701811701813" width="212.97588125" fill="rgb(25, 102, 172)"/><rect x="402.5" y="251.9037719037719" height="21.811701811701813" width="238.4047875" fill="rgb(11, 77, 148)"/><rect x="402.5" y="229.0941490941491" height="21.811701811701813" width="268.25624375" fill="rgb(8, 48, 107)"/><rect x="402.5" y="206.28452628452627" height="21.811701811701813" width="258.93319375" fill="rgb(8, 57, 121)"/><rect x="402.5" y="183.47490347490347" height="21.811701811701813" width="217.83403125" fill="rgb(21, 97, 168)"/><rect x="402.5" y="160.66528066528068" height="21.811701811701813" width="178.94463125000001" fill="rgb(56, 135, 192)"/><rect x="402.5" y="137.85565785565785" height="21.811701811701813" width="159.922675" fill="rgb(76, 152, 202)"/><rect x="402.5" y="115.04603504603504" height="21.811701811701813" width="161.82842499999998" fill="rgb(74, 151, 201)"/><rect x="402.5" y="92.23641223641224" height="21.811701811701813" width="107.7263" fill="rgb(147, 195, 223)"/><rect x="402.5" y="69.42678942678943" height="21.811701811701813" width="69.47593125" fill="rgb(194, 218, 237)"/><rect x="402.5" y="46.61716661716662" height="21.811701811701813" width="35.2155375" fill="rgb(221, 235, 247)"/><rect x="402.5" y="23.80754380754381" height="21.811701811701813" width="9.743525" fill="rgb(240, 247, 253)"/><rect x="402.5" y="0.9979209979209998" height="21.811701811701813" width="0.7305375000000001" fill="rgb(247, 251, 255)"/></g></g></svg>