<svg id="Layer_1" data-name="Layer 1" xmlns="http://www.w3.org/2000/svg" xmlns:xlink="http://www.w3.org/1999/xlink" width="320" height="160" viewBox="0 0 320 160">
  <defs>
    <style>
      .cls-1 {
        fill: none;
      }

      .cls-2 {
        clip-path: url(#clip-path);
      }

      .cls-3 {
        fill: #fff;
      }

      .cls-4 {
        fill: #ccc;
      }

      .cls-5 {
        fill: #a0d9a3;
      }

      .cls-6 {
        fill: #4ba0b1;
      }

      .cls-7 {
        fill: #5e4fa2;
      }

      .cls-8 {
        fill: #9e0142;
      }

      .cls-9 {
        fill: #e1524a;
      }

      .cls-10 {
        fill: #fba35e;
      }

      .cls-11 {
        fill: #fee89a;
      }

      .cls-12 {
        fill: #ebf7a6;
      }

      .cls-13, .cls-14, .cls-15, .cls-16 {
        isolation: isolate;
        font-size: 10px;
        font-family: Helvetica;
      }

      .cls-13 {
        letter-spacing: -0.0547em;
      }

      .cls-15 {
        letter-spacing: -0.0366em;
      }

      .cls-16 {
        letter-spacing: -0.0176em;
      }
    </style>
    <clipPath id="clip-path">
      <rect class="cls-1" width="320" height="160"/>
    </clipPath>
  </defs>
  <g class="cls-2">
    <g>
      <rect id="backgorund" class="cls-3" x="60" y="-20" width="200" height="200"/>
      <g id="viz">
        <g>
          <path class="cls-4" d="M160.1225,32a48,48,0,0,1,45.1469,63.9585l-22.1433-7.87A24.5,24.5,0,0,0,160.1225,55.5Z"/>
          <path class="cls-3" d="M160.1225,32a48,48,0,0,1,45.1469,63.9585l-22.1433-7.87A24.5,24.5,0,0,0,160.1225,55.5V32m-1-1.0026V56.4953l.995.005a23.5,23.5,0,0,1,22.0647,31.2586l-.3286.9392.9376.3332,22.1433,7.87.9447.3357.3333-.9455A49,49,0,0,0,160.1251,31l-1.0026-.0026Z"/>
        </g>
        <g>
          <path class="cls-4" d="M205.1874,96.19a48,48,0,0,1-92.1584-6.3038l23.0087-4.7813A24.5,24.5,0,0,0,183.0441,88.32Z"/>
          <path class="cls-3" d="M136.0377,85.1045A24.5,24.5,0,0,0,183.0441,88.32l22.1433,7.87a48,48,0,0,1-92.1583-6.3038l23.0086-4.7813m.7707-1.1815-.9742.2025-23.0086,4.7812-.9816.204.2065.9811a48.9951,48.9951,0,0,0,94.0783,6.4351l.3381-.9438-.9446-.3358-22.1433-7.87-.9376-.3332-.3379.9359a23.3594,23.3594,0,0,1-17.2073,15.004,23.4734,23.4734,0,0,1-27.88-18.0881l-.2073-.9732Z"/>
        </g>
        <g>
          <path class="cls-4" d="M112.9792,89.6459A48,48,0,0,1,159.8775,32V55.5a24.5,24.5,0,0,0-23.89,29.3644Z"/>
          <path class="cls-3" d="M159.8775,32V55.5a24.5,24.5,0,0,0-23.89,29.3644l-23.0086,4.7812A48,48,0,0,1,159.8775,32m1-1.0026L159.8749,31A49,49,0,0,0,112,89.8469l.2014.9821.9817-.204,23.0085-4.7812.9742-.2025-.1975-.9752A23.5,23.5,0,0,1,159.8825,56.5l.995-.005V30.9976Z"/>
        </g>
        <g>
          <path class="cls-5" d="M160.1225,7.5a72.5013,72.5013,0,0,1,28.6492,5.9534L179.4092,35.008A48.9975,48.9975,0,0,0,160.1225,31Z"/>
          <path class="cls-3" d="M160.1225,7.5a72.5013,72.5013,0,0,1,28.6492,5.9534L179.4092,35.008A48.9975,48.9975,0,0,0,160.1225,31V7.5m-1-1.0017V31.9977L160.12,32a47.7325,47.7325,0,0,1,18.8931,3.926l.916.3951.3974-.9149,9.3623-21.5545.3992-.9188-.9195-.3975A73.0859,73.0859,0,0,0,160.1242,6.5l-1.0017-.0017Z"/>
        </g>
        <g>
          <path class="cls-6" d="M188.9964,13.5511a72.4993,72.4993,0,0,1,35.3188,32.9855L203.45,57.3481A49,49,0,0,0,179.634,35.1056Z"/>
          <path class="cls-3" d="M188.9964,13.5511a72.4993,72.4993,0,0,1,35.3188,32.9855L203.45,57.3481A49,49,0,0,0,179.634,35.1056l9.3624-21.5545m-.5181-1.3172-.3991.9188-9.3625,21.5545-.3974.9149.914.4a48.1614,48.1614,0,0,1,23.33,21.7886l.4611.8845.8857-.4589,20.8653-10.8115.8894-.4609-.4624-.8886a73.7354,73.7354,0,0,0-35.8059-33.44l-.9181-.4006Z"/>
        </g>
        <g>
          <path class="cls-7" d="M224.4279,46.7541a72.5,72.5,0,0,1,3.9269,57.4092l-22.1431-7.87a49,49,0,0,0-2.6491-38.728Z"/>
          <path class="cls-3" d="M224.428,46.7541a72.5,72.5,0,0,1,3.9269,57.4092l-22.1432-7.87a49,49,0,0,0-2.6491-38.7279L224.428,46.7541m.4293-1.3487-.8894.4608L203.1025,56.6778l-.8856.4589.4567.8868a48.19,48.19,0,0,1,2.595,37.9376l-.3317.9407.94.3341,22.1432,7.87.9439.3354.3338-.9444a73.7776,73.7776,0,0,0-3.981-58.2011l-.4594-.89Z"/>
        </g>
        <g>
          <path class="cls-8" d="M228.2728,104.3942a72.5,72.5,0,0,1-15.2037,25.0013l-17.1746-16.04A49.0008,49.0008,0,0,0,206.13,96.5245Z"/>
          <path class="cls-3" d="M206.13,96.5245l22.1432,7.87a72.5009,72.5009,0,0,1-15.2036,25.0013l-17.1747-16.04A49.0008,49.0008,0,0,0,206.13,96.5245m-.605-1.2763-.3364.939a47.7326,47.7326,0,0,1-10.0263,16.4876l-.679.7307.729.6808,17.1747,16.04.7321.6837.6824-.7333a73.0843,73.0843,0,0,0,15.4134-25.3462l.3371-.9432-.9439-.3355-22.1432-7.87-.94-.334Z"/>
        </g>
        <g>
          <path class="cls-9" d="M212.9019,129.5746a72.5,72.5,0,0,1-98.5607,6.7417l14.8306-18.2293a49,49,0,0,0,66.5554-4.5525Z"/>
          <path class="cls-3" d="M195.7272,113.5345l17.1747,16.04a72.4976,72.4976,0,0,1-98.5607,6.7417l14.8306-18.2293a48.9982,48.9982,0,0,0,66.5554-4.5525m-.0464-1.4116-.6827.7273a47.9984,47.9984,0,0,1-65.1971,4.46l-.7754-.6276-.63.7738-14.8306,18.2292-.6322.777.7781.6309a73.4975,73.4975,0,0,0,99.92-6.8348l.6849-.7309-.732-.6837-17.1747-16.04-.729-.6808Z"/>
        </g>
        <g>
          <path class="cls-10" d="M114.1512,136.1617a72.5,72.5,0,0,1-25.11-41.2912L112.05,90.0893a49,49,0,0,0,16.9318,27.8431Z"/>
          <path class="cls-3" d="M112.05,90.0892a49,49,0,0,0,16.9319,27.8432l-14.8306,18.2293a72.5,72.5,0,0,1-25.11-41.2912L112.05,90.0892m.7732-1.182-.9766.203L88.838,93.8914l-.9808.2038.2055.98a73.7347,73.7347,0,0,0,25.4561,41.8607l.7759.6335.6322-.777,14.83-18.2293.63-.7738-.7723-.6314a48.16,48.16,0,0,1-16.5862-27.275l-.2054-.9761Z"/>
        </g>
        <g>
          <path class="cls-11" d="M88.9916,94.6306a72.5,72.5,0,0,1,11.7075-56.34l19.1989,13.552A49,49,0,0,0,112,89.8494Z"/>
          <path class="cls-3" d="M100.6991,38.2908l19.1988,13.552A49.0006,49.0006,0,0,0,112,89.8494L88.9916,94.6306a72.5,72.5,0,0,1,11.7075-56.34m-.2417-1.3946-.5762.8193A73.7772,73.7772,0,0,0,88.0121,94.8324l.2022.9811.9807-.2038,23.0086-4.7813.9766-.2029-.2005-.9771a48.1884,48.1884,0,0,1,7.7367-37.2309l.5732-.8164-.815-.5752L101.2758,37.4738l-.8184-.5776Z"/>
        </g>
        <g>
          <path class="cls-12" d="M100.84,38.0907A72.5,72.5,0,0,1,159.8775,7.5V31a49,49,0,0,0-39.8383,20.6425Z"/>
          <path class="cls-3" d="M159.8775,7.5V31a49,49,0,0,0-39.8383,20.6425L100.84,38.0907A72.5,72.5,0,0,1,159.8775,7.5m1-1.0017L159.8758,6.5a73.625,73.625,0,0,0-59.8514,31.0125l-.579.8174.8183.5776L119.4626,52.46l.8149.5753.5773-.8135A48.0911,48.0911,0,0,1,159.88,32l.9975-.0024V6.4984Z"/>
        </g>
        <g>
          <path class="cls-6" d="M198.7572-8.9206a96.996,96.996,0,0,1,11.5377,5.9783l-12.21,20.0789a73.49,73.49,0,0,0-8.69-4.5027Z"/>
          <path class="cls-3" d="M198.7572-8.9206a96.996,96.996,0,0,1,11.5377,5.9783l-12.21,20.0789a73.4973,73.4973,0,0,0-8.69-4.5027l9.3624-21.5545m-.5183-1.3168-.3989.9184-9.3625,21.5545-.3977.9156.9151.3993a72.7518,72.7518,0,0,1,8.5716,4.4415l.8539.5173.5187-.853,12.21-20.0789.52-.8555-.8562-.5191a98.325,98.325,0,0,0-11.6567-6.04l-.9178-.4Z"/>
        </g>
        <g>
          <path class="cls-7" d="M246.1812,35.4825a97.0035,97.0035,0,0,1,8.765,24.6623l-23.0085,4.7813a73.5008,73.5008,0,0,0-6.6219-18.6321Z"/>
          <path class="cls-3" d="M246.1812,35.4825a97.0035,97.0035,0,0,1,8.765,24.6623l-23.0085,4.7813a73.5044,73.5044,0,0,0-6.6218-18.6321l20.8653-10.8115m.4289-1.3485-.889.4606L224.8558,45.4062l-.8864.4592.4578.8872a72.5065,72.5065,0,0,1,6.5317,18.3786l.2048.9771.9774-.2032L255.15,61.1239l.98-.2037-.2049-.98A98.0087,98.0087,0,0,0,247.07,35.0236l-.46-.89Z"/>
        </g>
        <g>
          <path class="cls-7" d="M254.996,60.3847a97.003,97.003,0,0,1,1.7694,12.8736L233.32,74.862a73.493,73.493,0,0,0-1.3327-9.6961Z"/>
          <path class="cls-3" d="M254.996,60.3847a96.9865,96.9865,0,0,1,1.7694,12.8736L233.32,74.862a73.493,73.493,0,0,0-1.3327-9.6961l23.0085-4.7812m.7768-1.1828-.98.2037L231.784,64.1869l-.9774.2031.2015.9778a72.7592,72.7592,0,0,1,1.3145,9.5641l.07.9959.9959-.0682,23.4453-1.6036.9989-.0684-.07-.9988a98.321,98.321,0,0,0-1.7877-13.0063l-.2025-.9806Z"/>
        </g>
        <g>
          <path class="cls-8" d="M251.3582,112.5987a97.0007,97.0007,0,0,1-5.177,11.9188L225.3158,113.706a73.4984,73.4984,0,0,0,3.8993-8.977Z"/>
          <path class="cls-3" d="M229.2151,104.729l22.1431,7.87a97.0007,97.0007,0,0,1-5.177,11.9188L225.3159,113.706a73.5133,73.5133,0,0,0,3.8992-8.977m-.6058-1.2765-.3359.94a72.78,72.78,0,0,1-3.8462,8.8548l-.4578.8872.8864.4592,20.8653,10.8116.889.4606.46-.89a98.3358,98.3358,0,0,0,5.23-12.0416l.3365-.943-.9434-.3353-22.1431-7.87-.9407-.3343Z"/>
        </g>
        <g>
          <path class="cls-9" d="M230.8074,146.2971a97,97,0,0,1-32.05,22.6235l-9.3624-21.5545a73.4991,73.4991,0,0,0,24.238-17.109Z"/>
          <path class="cls-3" d="M213.6328,130.2571l17.1746,16.04a97,97,0,0,1-32.05,22.6235l-9.3624-21.5545a73.4991,73.4991,0,0,0,24.238-17.109m-.0471-1.4122-.6826.7284A72.0921,72.0921,0,0,1,188.9949,146.45l-.9151.3993.3977.9156L197.84,169.319l.3989.9184.9178-.4a97.4441,97.4441,0,0,0,32.3807-22.8567l.6843-.7309-.7317-.6834-17.1747-16.04-.73-.6814Z"/>
        </g>
        <g>
          <path class="cls-10" d="M98.69,155.1666A97,97,0,0,1,80.8246,136.038l19.1988-13.552A73.4985,73.4985,0,0,0,113.52,136.9374Z"/>
          <path class="cls-3" d="M100.0234,122.486A73.4985,73.4985,0,0,0,113.52,136.9374L98.69,155.1666A97.0033,97.0033,0,0,1,80.8246,136.038l19.1988-13.552m.239-1.3927-.8156.5758L80.248,135.2211l-.818.5774.5784.8172a98.0078,98.0078,0,0,0,18.049,19.3258l.7759.6329.6319-.7767,14.8306-18.2292.63-.7744-.7733-.6314a72.508,72.508,0,0,1-13.3131-14.2547l-.577-.8147Z"/>
        </g>
        <g>
          <path class="cls-11" d="M65.004,99.6153a97,97,0,0,1,0-39.2306l23.0085,4.7812a73.499,73.499,0,0,0,0,29.6682Z"/>
          <path class="cls-3" d="M65.004,60.3847l23.0085,4.7812a73.499,73.499,0,0,0,0,29.6682L65.004,99.6153a97,97,0,0,1,0-39.2306m-.7768-1.1828-.2025.9806a97.443,97.443,0,0,0,0,39.635l.2025.9806.98-.2037,23.0084-4.7813.9775-.2031-.2015-.9778a72.0924,72.0924,0,0,1,0-29.2644l.2015-.9778-.9775-.2031L65.2075,59.4056l-.98-.2037Z"/>
        </g>
        <g>
          <path class="cls-12" d="M121.4675-9.0182A97.0157,97.0157,0,0,1,133.7118-13.37l6.34,22.6286a73.5011,73.5011,0,0,0-9.2221,3.2776Z"/>
          <path class="cls-3" d="M133.7118-13.37l6.34,22.6286a73.5011,73.5011,0,0,0-9.2221,3.2776L121.4675-9.0182A97.0157,97.0157,0,0,1,133.7118-13.37m.6928-1.2339-.9638.2714a98.3347,98.3347,0,0,0-12.37,4.3965l-.9189.3977.3988.9184,9.3625,21.5545.3977.9157.9163-.3963a72.7684,72.7684,0,0,1,9.0967-3.2329l.9608-.271-.2692-.9613-6.34-22.6286-.27-.9641Z"/>
        </g>
        <g>
          <path class="cls-12" d="M133.9477-13.436A96.9973,96.9973,0,0,1,159.8775-17V6.5a73.4985,73.4985,0,0,0-19.59,2.6925Z"/>
          <path class="cls-3" d="M159.8775-17V6.5a73.4985,73.4985,0,0,0-19.59,2.6925l-6.34-22.6285A96.9933,96.9933,0,0,1,159.8775-17m1-1.0013L159.8762-18a98.0075,98.0075,0,0,0-26.1971,3.6007l-.9644.2689.27.9642,6.34,22.6285.2694.9613.9617-.2677A72.51,72.51,0,0,1,159.8792,7.5l.9983-.0017v-25.5Z"/>
        </g>
      </g>
      <g>
        <text class="cls-13" transform="translate(189.315 63.5932) rotate(-35.2174)">A</text>
        <text class="cls-14" transform="translate(160.7473 120.2018) rotate(-86.0871)">B</text>
        <text class="cls-14" transform="translate(126.4549 57.2496) rotate(39.1306)">C</text>
        <text class="cls-14" transform="translate(175.6043 22.1702) rotate(-78.2606)">I</text>
        <text class="cls-15" transform="matrix(0.6826, -0.7308, 0.7308, 0.6826, 202.474, 39.5994)">L</text>
        <text class="cls-14" transform="translate(217.1808 79.626) rotate(-3.9129)">M</text>
        <text class="cls-14" transform="translate(207.4671 112.9127) rotate(31.3041)">D</text>
        <text class="cls-14" transform="translate(160.4322 138.009) rotate(86.0871)">E</text>
        <text class="cls-14" transform="translate(106.8484 116.44) rotate(-31.3041)">F</text>
        <text class="cls-14" transform="translate(95.4458 70.1712) rotate(11.7394)">G</text>
        <text class="cls-14" transform="matrix(0.4601, 0.8879, -0.8879, 0.4601, 127.0505, 24.1006)">H</text>
        <text class="cls-14" transform="matrix(0.4601, -0.8879, 0.8879, 0.4601, 201.233, 8.1878)">F</text>
        <text class="cls-14" transform="translate(238.5645 55.78) rotate(-19.5653)">U</text>
        <text class="cls-14" transform="translate(242.1843 72.2519) rotate(-7.8262)">V</text>
        <text class="cls-14" transform="translate(233.9428 115.915) rotate(23.4782)">N</text>
        <text class="cls-14" transform="translate(204.3448 148.8938) rotate(54.7826)">O</text>
        <text class="cls-16" transform="matrix(0.7308, -0.6826, 0.6826, 0.7308, 97.289, 143.4203)">P</text>
        <text class="cls-14" transform="translate(70.3608 83.5)">Q</text>
        <text class="cls-14" transform="translate(126.7882 -3.0332) rotate(70.4347)">R</text>
      </g>
    </g>
  </g>
</svg>
