<svg id="rawgraphs-icons" xmlns="http://www.w3.org/2000/svg" width="56" height="56" viewBox="0 0 56 56">
  <defs>
    <style>
      .cls-1 {
        fill: #95e5c0;
      }

      .cls-2 {
        fill: #06c26c;
      }
    </style>
  </defs>
  <g id="secundary">
    <path class="cls-1" d="M21.3809,16.8352l-3.3315-6.1467A20.0207,20.0207,0,0,0,9.2866,20.9942L15.96,23.1183A13.0486,13.0486,0,0,1,21.3809,16.8352Z"/>
    <path class="cls-1" d="M27,15.0507v-7a19.8756,19.8756,0,0,0-8.0724,2.16l3.3317,6.1473A12.9065,12.9065,0,0,1,27,15.0507Z"/>
    <path class="cls-1" d="M36.288,9.8245l-2.7429,6.4376A13.07,13.07,0,0,1,39.0645,21.2l6.0944-3.4295A20.0446,20.0446,0,0,0,36.288,9.8245Z"/>
    <path class="cls-1" d="M29,8.0505v7a12.93,12.93,0,0,1,3.6276.8141l2.7346-6.4183A19.9179,19.9179,0,0,0,29,8.0505Z"/>
    <path class="cls-1" d="M45.6652,18.6337l-6.102,3.4337a12.9061,12.9061,0,0,1,.102,11.634l6.052,3.56a19.941,19.941,0,0,0-.052-18.6275Z"/>
    <path class="cls-1" d="M33.049,39.9792A12.915,12.915,0,0,1,30.87,40.67l1.2833,6.8863a20.1278,20.1278,0,0,0,4.1029-1.3548Z"/>
    <path class="cls-1" d="M28,41a12.9119,12.9119,0,0,1-4.6613-.8786L20.5742,46.56a19.8067,19.8067,0,0,0,10.5965,1.1831l-1.2851-6.8956A12.9706,12.9706,0,0,1,28,41Z"/>
    <path class="cls-1" d="M15,28a12.9514,12.9514,0,0,1,.3568-2.9746L8.6812,22.9005A19.8792,19.8792,0,0,0,19.6576,46.16l2.7634-6.4355A13.0035,13.0035,0,0,1,15,28Z"/>
    <path class="cls-1" d="M34.8188,39.0472l3.2137,6.2356a20.08,20.08,0,0,0,6.6712-6.2971l-6.0495-3.5583A13.0845,13.0845,0,0,1,34.8188,39.0472Z"/>
  </g>
  <g id="primary">
    <path class="cls-2" d="M27,22.5956V16.0507a12.0185,12.0185,0,0,0-10.0878,7.3709l6.24,1.9861A5.513,5.513,0,0,1,27,22.5956Z"/>
    <path class="cls-2" d="M33.5,28a5.46,5.46,0,0,1-.3369,1.8768l5.6382,3.3164A11.9619,11.9619,0,0,0,29,16.0507v6.5449A5.5059,5.5059,0,0,1,33.5,28Z"/>
    <path class="cls-2" d="M22.5,28a5.5033,5.5033,0,0,1,.0475-.6858L16.31,25.3289A11.9871,11.9871,0,0,0,32.5878,39.0844l-3-5.82A5.4953,5.4953,0,0,1,22.5,28Z"/>
    <path class="cls-2" d="M31.3632,32.3423,34.36,38.1572a12.0783,12.0783,0,0,0,3.428-3.2393L32.1481,31.6A5.5383,5.5383,0,0,1,31.3632,32.3423Z"/>
  </g>
</svg>
