 <svg id="rawgraphs-icons" xmlns="http://www.w3.org/2000/svg" width="56" height="56" viewBox="0 0 56 56">
  <defs>
    <style>
      .cls-1 {
        fill: #95e5c0;
      }

      .cls-2 {
        fill: #06c26c;
      }
    </style>
  </defs>
  <g id="secundary">
    <path class="cls-1" d="M19.9971,24.5a6.3078,6.3078,0,0,0-1.4239-3.6611A7.1479,7.1479,0,0,1,16.9971,16.5v-.4971h-.9942V16.5a7.1479,7.1479,0,0,1-1.5761,4.3389A6.3078,6.3078,0,0,0,13.0029,24.5a12.4967,12.4967,0,0,1-.4853,3.38,13.5076,13.5076,0,0,0-.5147,3.62,6.3078,6.3078,0,0,0,1.4239,3.6611A7.1479,7.1479,0,0,1,15.0029,39.5a19.2486,19.2486,0,0,0,.5664,4.7246A13.6883,13.6883,0,0,1,16.0029,47.5v.4971h.9942V47.5a13.6883,13.6883,0,0,1,.4336-3.2754A19.2486,19.2486,0,0,0,17.9971,39.5a7.1479,7.1479,0,0,1,1.5761-4.3389A6.3078,6.3078,0,0,0,20.9971,31.5a13.5076,13.5076,0,0,0-.5147-3.62A12.4967,12.4967,0,0,1,19.9971,24.5Z"/>
    <path class="cls-1" d="M47.3975,35.7021a5.179,5.179,0,0,1-1.4-3.2021,14.5,14.5,0,0,0-.458-3.4932,18.1508,18.1508,0,0,1-.542-4.5068v-.4971h-.9942V24.5a18.1508,18.1508,0,0,1-.542,4.5068,14.5,14.5,0,0,0-.458,3.4932,5.179,5.179,0,0,1-1.4,3.2021,6.038,6.038,0,0,0-1.6,3.7979c0,1.582.9717,2.667,1.9121,3.7158,1.0264,1.1455,2.0879,2.3311,2.0879,4.2842v.4971h.9942V47.5c0-1.9531,1.0615-3.1387,2.0879-4.2842.94-1.0488,1.9121-2.1338,1.9121-3.7158A6.038,6.038,0,0,0,47.3975,35.7021Z"/>
  </g>
  <g id="primary">
    <path class="cls-2" d="M34.6436,12.6963c-1.793-1.1426-3.6465-2.3252-3.6465-4.1963V8.0029h-.9942V8.5c0,1.8711-1.8535,3.0537-3.6465,4.1963-1.7246,1.1006-3.3535,2.1387-3.3535,3.8037,0,1.6152,1.2188,2.7031,2.3975,3.7549,1.2793,1.1426,2.6025,2.3242,2.6025,4.2451a18.1508,18.1508,0,0,1-.542,4.5068,14.5,14.5,0,0,0-.458,3.4932,6.038,6.038,0,0,0,1.6,3.7979,5.179,5.179,0,0,1,1.4,3.2021v.4971h.9942V39.5a5.179,5.179,0,0,1,1.4-3.2021,6.038,6.038,0,0,0,1.6-3.7979,14.5,14.5,0,0,0-.458-3.4932,18.1508,18.1508,0,0,1-.542-4.5068c0-1.9209,1.3232-3.1025,2.6025-4.2451,1.1787-1.0518,2.3975-2.14,2.3975-3.7549C37.9971,14.835,36.3682,13.7969,34.6436,12.6963Z"/>
    <polygon class="cls-2" points="9.185 9.685 7.5 8 5.815 9.685 5.815 11.115 7.003 9.927 7.003 48 7.997 48 7.997 9.927 9.185 11.115 9.185 9.685"/>
  </g>
</svg>
