<svg id="Layer_1" data-name="Layer 1" xmlns="http://www.w3.org/2000/svg" width="320" height="160" viewBox="0 0 320 160">
  <defs>
    <style>
      .cls-1 {
        fill: none;
        stroke: #000;
      }

      .cls-2 {
        isolation: isolate;
        font-size: 10px;
        font-family: Helvetica;
      }

      .cls-3 {
        fill: #9e0142;
      }

      .cls-4 {
        fill: #a0d9a3;
      }

      .cls-5 {
        fill: #5e4fa2;
      }
    </style>
  </defs>
  <g>
    <path class="cls-1" d="M25.5,142.5h295"/>
    <line class="cls-1" x1="74.16666" y1="142" x2="74.16666" y2="148"/>
    <line class="cls-1" x1="172.5" y1="142" x2="172.5" y2="148"/>
    <line class="cls-1" x1="270.83334" y1="142" x2="270.83334" y2="148"/>
  </g>
  <g>
    <g>
      <line class="cls-1" x1="25" y1="142.5" x2="19" y2="142.5"/>
      <text class="cls-2" transform="translate(2.09863 145.7)">4.0</text>
    </g>
    <g>
      <line class="cls-1" x1="25" y1="125.375" x2="19" y2="125.375"/>
      <text class="cls-2" transform="translate(2.09863 128.575)">4.5</text>
    </g>
    <g>
      <line class="cls-1" x1="25" y1="108.25" x2="19" y2="108.25"/>
      <text class="cls-2" transform="translate(2.09863 111.45)">5.0</text>
    </g>
    <g>
      <line class="cls-1" x1="25" y1="91.125" x2="19" y2="91.125"/>
      <text class="cls-2" transform="translate(2.09863 94.325)">5.5</text>
    </g>
    <g>
      <line class="cls-1" x1="25" y1="74" x2="19" y2="74"/>
      <text class="cls-2" transform="translate(2.09863 77.2)">6.0</text>
    </g>
    <g>
      <line class="cls-1" x1="25" y1="56.875" x2="19" y2="56.875"/>
      <text class="cls-2" transform="translate(2.09863 60.07499)">6.5</text>
    </g>
    <g>
      <line class="cls-1" x1="25" y1="39.75" x2="19" y2="39.75"/>
      <text class="cls-2" transform="translate(2.09863 42.95)">7.0</text>
    </g>
    <g>
      <line class="cls-1" x1="25" y1="22.625" x2="19" y2="22.625"/>
      <text class="cls-2" transform="translate(2.09863 25.82501)">7.5</text>
    </g>
    <g>
      <line class="cls-1" x1="25" y1="5.5" x2="19" y2="5.5"/>
      <text class="cls-2" transform="translate(2.09863 8.70001)">8.0</text>
    </g>
  </g>
  <path class="cls-3" d="M74.16667,142a6.71935,6.71935,0,0,1,.8155-3.425c.70031-1.14166,2.04334-2.28332,2.93582-3.425a33.06169,33.06169,0,0,1,2.44651-3.425c1.11211-1.14167,2.89438-2.28334,4.07753-3.425s1.76718-2.28333,2.77271-3.425,2.43259-2.28333,3.262-3.425,1.06126-2.28333,2.44652-3.425a38.70607,38.70607,0,0,1,6.19784-3.425,62.1746,62.1746,0,0,0,6.03473-3.425c1.75174-1.14167,3.24613-2.28333,2.93582-3.425s-2.42534-2.28333-3.75132-3.425-1.86294-2.28333-3.42512-3.425a42.08544,42.08544,0,0,0-6.68714-3.425,30.2741,30.2741,0,0,1-6.36094-3.425A5.43331,5.43331,0,0,1,86.073,90.625,6.50925,6.50925,0,0,0,84.27893,87.2c-1.15353-1.14166-3.09475-2.28333-4.24063-3.425a6.73612,6.73612,0,0,1-1.79411-3.425,15.2364,15.2364,0,0,0-1.14171-3.425c-.59919-1.14167-1.55276-2.28333-2.12031-3.425a8.56248,8.56248,0,0,1-.8155-3.425c-.06644-1.14166-.01781-2.28333,0-3.425s.00477-2.28333,0-3.425-.00128-2.28334,0-3.425.00034-2.28334,0-3.425-.00009-2.28333,0-3.425,0-2.28333,0-3.425,0-2.28334,0-3.425V5h0V42.675q0,1.71249,0,3.425t0,3.425q0,1.71251,0,3.425.00014,1.7125,0,3.425-.00051,1.71249,0,3.425c.00127,1.14166.00477,2.28333,0,3.425s-.01781,2.28333,0,3.425.06644,2.28333,0,3.425a8.56233,8.56233,0,0,1-.81551,3.425c-.56754,1.14167-1.52111,2.28333-2.12031,3.425a15.2369,15.2369,0,0,0-1.14171,3.425A6.736,6.736,0,0,1,68.295,83.775c-1.14588,1.14166-3.0871,2.28333-4.24062,3.425a6.50918,6.50918,0,0,0-1.79411,3.425,5.43341,5.43341,0,0,1-1.79411,3.425,30.27461,30.27461,0,0,1-6.36094,3.425,42.085,42.085,0,0,0-6.68714,3.425c-1.56218,1.14166-2.09913,2.28333-3.42512,3.425s-3.441,2.28334-3.75132,3.425,1.18407,2.28333,2.93581,3.425a62.17484,62.17484,0,0,0,6.03474,3.425,38.70651,38.70651,0,0,1,6.19784,3.425c1.38525,1.14166,1.61708,2.28333,2.44651,3.425s2.25648,2.28334,3.262,3.425,1.58957,2.28333,2.77272,3.425,2.96542,2.28333,4.07752,3.425a33.06182,33.06182,0,0,1,2.44652,3.425c.89247,1.14168,2.2355,2.28334,2.93581,3.425A6.71946,6.71946,0,0,1,74.16667,142Z"/>
  <path class="cls-4" d="M172.5,142q.00009-1.71249,0-3.425-.00017-1.71249,0-3.425.0006-1.71249,0-3.425c-.00147-1.14167-.00547-2.28334,0-3.425s.02042-2.28333,0-3.425-.0762-2.28333,0-3.425a9.41552,9.41552,0,0,1,.81551-3.425,31.18636,31.18636,0,0,1,2.12031-3.425c.73521-1.14167,1.35164-2.28334,1.95721-3.425a14.94819,14.94819,0,0,0,1.46791-3.425,6.26068,6.26068,0,0,0-.1631-3.425c-.37126-1.14166-1.05431-2.28333-.97861-3.425s.91015-2.28333,2.28342-3.425A34.80929,34.80929,0,0,1,185.385,94.05c2.097-1.14167,4.37891-2.28333,6.36094-3.425a13.51241,13.51241,0,0,0,4.40372-3.425,2.9951,2.9951,0,0,0-.1631-3.425c-.69968-1.14167-1.89606-2.28333-2.60961-3.425a26.54476,26.54476,0,0,1-1.46792-3.425,22.848,22.848,0,0,1-1.631-3.425,11.347,11.347,0,0,1,0-3.425,5.42365,5.42365,0,0,0-.81551-3.425,26.15115,26.15115,0,0,0-3.262-3.425,7.53107,7.53107,0,0,1-2.28341-3.425c-.23052-1.14167.21958-2.28334.1631-3.425a14.58786,14.58786,0,0,0-.9786-3.425,18.72525,18.72525,0,0,1-.65241-3.425,10.25033,10.25033,0,0,0-.8155-3.425,15.30344,15.30344,0,0,0-2.60962-3.425,26.9162,26.9162,0,0,1-2.93582-3.425,15.67918,15.67918,0,0,1-1.46791-3.425c-.41018-1.14167-.90513-2.28333-1.3048-3.425A14.78438,14.78438,0,0,1,172.5,28.975a27.70546,27.70546,0,0,1,0-3.425c.02986-1.14167.008-2.28334,0-3.425s-.00214-2.28333,0-3.425.00058-2.28334,0-3.425-.00015-2.28334,0-3.425,0-2.28334,0-3.425,0-2.28334,0-3.425h0q0,1.71249,0,3.425t0,3.425q.00024,1.71249,0,3.425-.00086,1.71249,0,3.425c.00215,1.14167.008,2.28333,0,3.425s-.02985,2.28333,0,3.425a27.7035,27.7035,0,0,1,0,3.425,14.78486,14.78486,0,0,1-.8155,3.425c-.39968,1.14167-.89462,2.28333-1.30481,3.425a15.67918,15.67918,0,0,1-1.46791,3.425,26.91608,26.91608,0,0,1-2.93581,3.425,15.30344,15.30344,0,0,0-2.60962,3.425,10.25035,10.25035,0,0,0-.81551,3.425,18.72606,18.72606,0,0,1-.6524,3.425,14.58786,14.58786,0,0,0-.9786,3.425c-.05649,1.14166.39361,2.28333.1631,3.425a7.531,7.531,0,0,1-2.28342,3.425,26.15181,26.15181,0,0,0-3.262,3.425,5.42357,5.42357,0,0,0-.8155,3.425,11.34732,11.34732,0,0,1,0,3.425,22.84812,22.84812,0,0,1-1.631,3.425,26.54467,26.54467,0,0,1-1.46791,3.425c-.71355,1.14167-1.90993,2.28333-2.60962,3.425a2.99512,2.99512,0,0,0-.1631,3.425,13.51247,13.51247,0,0,0,4.40373,3.425c1.982,1.14167,4.26394,2.28333,6.36094,3.425a34.80977,34.80977,0,0,1,5.38233,3.425c1.37326,1.14167,2.20771,2.28333,2.28341,3.425s-.60735,2.28333-.9786,3.425a6.26058,6.26058,0,0,0-.1631,3.425,14.94814,14.94814,0,0,0,1.4679,3.425c.60558,1.14166,1.222,2.28333,1.95721,3.425a31.185,31.185,0,0,1,2.12032,3.425,9.41529,9.41529,0,0,1,.8155,3.425c.07621,1.14168.02042,2.28334,0,3.425s-.00547,2.28333,0,3.425.00147,2.28333,0,3.425-.00039,2.28333,0,3.425.00012,2.28334,0,3.425S172.5,140.85834,172.5,142Z"/>
  <path class="cls-5" d="M270.83334,142q.00017-1.71249,0-3.425-.00033-1.71249,0-3.425c.00076-1.14166.00284-2.28332,0-3.425s-.01059-2.28334,0-3.425.03951-2.28333,0-3.425a20.94874,20.94874,0,0,1,0-3.425c.14746-1.14166.55032-2.28333.8155-3.425a23.94361,23.94361,0,0,0,.48931-3.425c.09663-1.14167.16238-2.28334.1631-3.425s-.06363-2.28333-.1631-3.425a25.90856,25.90856,0,0,0-.48931-3.425c-.25522-1.14166-.631-2.28333-.8155-3.425a10.86926,10.86926,0,0,1,0-3.425c.17755-1.14167.52574-2.28334.8155-3.425a9.77528,9.77528,0,0,1,1.30481-3.425c.7837-1.14167,2.11975-2.28333,3.09892-3.425a22.866,22.866,0,0,0,2.28341-3.425c.682-1.14167,1.42358-2.28333,1.95721-3.425a10.68617,10.68617,0,0,0,.97861-3.425,12.00156,12.00156,0,0,1,.4893-3.425,8.7902,8.7902,0,0,1,2.93582-3.425c1.47818-1.14166,3.4338-2.28333,5.21923-3.425s3.40069-2.28333,3.75132-3.425-.56335-2.28334-.8155-3.425.15751-2.28334-.65241-3.425-2.83941-2.28333-3.91442-3.425-1.19554-2.28333-1.79411-3.425-1.67518-2.28334-2.28341-3.425-.7481-2.28334-1.46791-3.425-2.01956-2.28334-2.60962-3.425a10.18089,10.18089,0,0,1-.6524-3.425c-.182-1.14167-.66556-2.28333-.81551-3.425a18.91093,18.91093,0,0,0-.3262-3.425c-.36-1.14167-1.26358-2.28333-1.46791-3.425a7.38743,7.38743,0,0,1,.65241-3.425,31.13085,31.13085,0,0,0,.8155-3.425,22.0582,22.0582,0,0,0,.48931-3.425,6.9892,6.9892,0,0,0-.65241-3.425,15.01485,15.01485,0,0,0-2.60961-3.425c-1.07573-1.14167-2.25043-2.28334-3.42512-3.425h-2.60962c-1.17469,1.14166-2.34939,2.28333-3.42512,3.425a15.01456,15.01456,0,0,0-2.60961,3.425,6.98909,6.98909,0,0,0-.65241,3.425,22.057,22.057,0,0,0,.4893,3.425,31.13091,31.13091,0,0,0,.81551,3.425,7.38742,7.38742,0,0,1,.6524,3.425c-.20432,1.14167-1.10794,2.28333-1.46791,3.425a18.91093,18.91093,0,0,0-.3262,3.425c-.14994,1.14167-.63353,2.28333-.8155,3.425a10.18066,10.18066,0,0,1-.65241,3.425c-.59006,1.14166-1.8898,2.28333-2.60961,3.425s-.85967,2.28333-1.46791,3.425-1.68485,2.28333-2.28341,3.425-.7191,2.28333-1.79411,3.425-3.10451,2.28333-3.91443,3.425-.40024,2.28333-.6524,3.425-1.16614,2.28333-.81551,3.425,1.96589,2.28333,3.75133,3.425,3.74105,2.28333,5.21923,3.425a8.79024,8.79024,0,0,1,2.93581,3.425,12.00193,12.00193,0,0,1,.48931,3.425,10.68615,10.68615,0,0,0,.9786,3.425c.53363,1.14167,1.27526,2.28333,1.95721,3.425a22.86613,22.86613,0,0,0,2.28342,3.425c.97917,1.14168,2.31522,2.28334,3.09892,3.425a9.77525,9.77525,0,0,1,1.3048,3.425c.28977,1.14166.638,2.28333.81551,3.425a10.86926,10.86926,0,0,1,0,3.425c-.18446,1.14166-.56029,2.28333-.81551,3.425a25.91019,25.91019,0,0,0-.4893,3.425c-.09947,1.14167-.16381,2.28333-.1631,3.425s.06647,2.28333.1631,3.425a23.94358,23.94358,0,0,0,.4893,3.425c.26518,1.14166.668,2.28333.81551,3.425a20.94874,20.94874,0,0,1,0,3.425c-.03951,1.14167-.01059,2.28333,0,3.425s.00284,2.28333,0,3.425-.00077,2.28333,0,3.425.00022,2.28334,0,3.425S270.83323,140.85834,270.83334,142Z"/>
  <text class="cls-2" transform="translate(71.31506 159.01062)">a</text>
  <text class="cls-2" transform="translate(169.98578 159.01062)">b</text>
  <text class="cls-2" transform="translate(268.65417 159.01062)">c</text>
  <line class="cls-1" x1="25" y1="5.5" x2="25.5" y2="142.5"/>
</svg>
