<svg id="rawgraphs-icons" xmlns="http://www.w3.org/2000/svg" width="56" height="56" viewBox="0 0 56 56">
  <defs>
    <style>
      .cls-1 {
        fill: #95e5c0;
      }

      .cls-2 {
        fill: #06c26c;
      }
    </style>
  </defs>
  <g id="secundary">
    <path class="cls-1" d="M45,25a90.3265,90.3265,0,0,1-18.2163-1.6064A77.3649,77.3649,0,0,0,11,22V8A90.3265,90.3265,0,0,1,29.2163,9.6064,77.3649,77.3649,0,0,0,45,11Z"/>
    <path class="cls-1" d="M20,34a11.2837,11.2837,0,0,1-6.6768-2.1445A3.5143,3.5143,0,0,0,11,31V23a11.2837,11.2837,0,0,1,6.6768,2.1445A3.5143,3.5143,0,0,0,20,26Z"/>
    <path class="cls-1" d="M11,40V38a6.3605,6.3605,0,0,0,3.9556-1.3389A8.3093,8.3093,0,0,1,20,35v2a6.3605,6.3605,0,0,0-3.9556,1.3389A8.3093,8.3093,0,0,1,11,40Z"/>
    <path class="cls-1" d="M11,48V41a46.4412,46.4412,0,0,0,9.8623-.9414A53.0311,53.0311,0,0,1,32,39v7a46.4412,46.4412,0,0,0-9.8623.9414A53.0311,53.0311,0,0,1,11,48Z"/>
    <path class="cls-1" d="M32,38a19.419,19.419,0,0,1-5.334-.6641A8.857,8.857,0,0,0,24,37V26a19.419,19.419,0,0,1,5.334.6641A8.857,8.857,0,0,0,32,27Z"/>
    <path class="cls-1" d="M36,46V27a9.243,9.243,0,0,0,2.4922-.2852A27.6609,27.6609,0,0,1,45,26V45a9.243,9.243,0,0,0-2.4922.2852A27.6609,27.6609,0,0,1,36,46Z"/>
  </g>
  <g id="primary">
    <rect class="cls-2" x="8" y="8" width="2" height="23"/>
    <rect class="cls-2" x="8" y="38" width="2" height="10"/>
    <rect class="cls-2" x="46" y="11" width="2" height="34"/>
    <rect class="cls-2" x="21" y="26" width="2" height="11"/>
    <rect class="cls-2" x="33" y="27" width="2" height="19"/>
  </g>
</svg>
