<svg id="rawgraphs-icons" xmlns="http://www.w3.org/2000/svg" width="56" height="56" viewBox="0 0 56 56">
  <defs>
    <style>
      .cls-1 {
        fill: #95e5c0;
      }

      .cls-2 {
        fill: #06c26c;
      }
    </style>
  </defs>
  <g id="secundary">
    <path class="cls-1" d="M25.25,11H11v8.57l8.2656-.5908ZM18,14a1,1,0,1,1,1-1A1,1,0,0,1,18,14Z"/>
    <path class="cls-1" d="M23.5752,23.667l-4.2188-3.6914L11,20.5732V33.5518L19.5889,37.62ZM19,26a1,1,0,1,1,1,1A1,1,0,0,1,19,26Z"/>
    <path class="cls-1" d="M33.8789,30.4365,30.0166,24H24.52L20.4717,38.1689,23.79,41.292l9.7657-8.2627ZM26,29a1,1,0,1,1,1-1A1,1,0,0,1,26,29Z"/>
    <path class="cls-1" d="M24.3076,42.1641,24.7275,45H45V38.8223L34.1084,33.8711ZM37,40a1,1,0,1,1-1,1A1,1,0,0,1,37,40Z"/>
    <path class="cls-1" d="M34.5693,32.9824,45,37.7236V23L34.8662,30.6ZM42,30a1,1,0,1,1-1,1A1,1,0,0,1,42,30Z"/>
  </g>
  <g id="primary">
    <path class="cls-2" d="M19.6221,38.7422,11,34.6582V45H23.7168l-.4131-2.793ZM13,44a1,1,0,1,1,1-1A1,1,0,0,1,13,44Z"/>
    <path class="cls-2" d="M24.33,23h5.6308l4.4219-11.0527L33.9834,11H26.5l-6.2939,8.3906ZM26,18a1,1,0,1,1-1,1A1,1,0,0,1,26,18Z"/>
    <path class="cls-2" d="M30.8564,23.4551l3.6836,6.14L45,21.75V20.125l-9.8555-7.3916ZM36,22a1,1,0,1,1-1,1A1,1,0,0,1,36,22Z"/>
    <path class="cls-2" d="M35.0684,11l.2627.624L45,18.875V11ZM43,14a1,1,0,1,1,1-1A1,1,0,0,1,43,14Z"/>
    <polygon class="cls-2" points="46.305 46.805 44.865 46.805 46.061 48 8 48 8 9.939 9.195 11.135 9.195 9.695 7.5 8 5.805 9.695 5.805 11.135 7 9.939 7 49 46.061 49 44.865 50.195 46.305 50.195 48 48.5 46.305 46.805"/>
  </g>
</svg>
