<svg id="rawgraphs-icons" xmlns="http://www.w3.org/2000/svg" width="56" height="56" viewBox="0 0 56 56">
  <defs>
    <style>
      .cls-1 {
        fill: #95e5c0;
      }

      .cls-2 {
        fill: #06c26c;
      }
    </style>
  </defs>
  <rect class="cls-1" x="8" y="8" width="1" height="40"/>
  <rect class="cls-1" x="47" y="8" width="1" height="40"/>
  <g>
    <path class="cls-2" d="M47.5,21A1.5,1.5,0,1,0,46,19.5a1.47578,1.47578,0,0,0,.01672.16595l-10.73986,5.2323L28.6474,22.68848,46.56372,11.66327a1.48885,1.48885,0,1,0-.52924-.848L27.41028,22.27606,9.99713,16.47168a1.5103,1.5103,0,1,0-.32013.948l16.62152,5.54053L9.43628,33.33673a1.48885,1.48885,0,1,0,.52924.848L27.53564,23.37256l6.45588,2.152L9.55121,37.43152A1.49891,1.49891,0,1,0,10,38.5a1.47578,1.47578,0,0,0-.01672-.166L35.348,25.97668l10.65491,3.55164a1.5103,1.5103,0,1,0,.32013-.948l-9.68964-3.22986,9.81543-4.782A1.49419,1.49419,0,0,0,47.5,21Z"/>
    <path class="cls-2" d="M47.5,40a1.4975,1.4975,0,0,0-1.45349,1.14606L9.851,44.85883a1.49887,1.49887,0,1,0,.10248.99511L46.149,42.14117A1.498,1.498,0,1,0,47.5,40Z"/>
  </g>
</svg>
