<svg id="rawgraphs-icons" xmlns="http://www.w3.org/2000/svg" width="56" height="56" viewBox="0 0 56 56">
  <defs>
    <style>
      .cls-1 {
        fill: #95e5c0;
      }

      .cls-2 {
        fill: #06c26c;
      }
    </style>
  </defs>
  <g id="secundary">
    <path class="cls-1" d="M28.0254,19.15a5.3777,5.3777,0,0,0-1.1025-.1138,4.7429,4.7429,0,0,0-4.4849,2.9287c-.8335,1.8345-1.3682,2.5152-4.0947,2.9581-5.1436.1757-7.3677,4.0483-7.3189,7.811.0532,4.0791,2.811,8.2285,7.979,8.2661a8.2277,8.2277,0,0,0,8.0943-7.8311c.07-3.1079.562-3.7363,2.47-4.8789A5.0592,5.0592,0,0,0,32,24.0029,4.8548,4.8548,0,0,0,28.0254,19.15ZM24.9912,33.0933C24.3091,36.6816,21.9575,39,19,39a6.0377,6.0377,0,0,1-6-5.9873,6.3225,6.3225,0,0,1,1.9824-4.9409,4.8185,4.8185,0,0,1,4.1016-1.0645c2.6738.4566,4.4116,1.31,5.313,2.6074A4.4407,4.4407,0,0,1,24.9912,33.0933ZM27,27a3,3,0,1,1,3-3A3.0033,3.0033,0,0,1,27,27Z"/>
    <path class="cls-1" d="M18.916,27.9927a4.7526,4.7526,0,0,0-.7978-.0694,3.7068,3.7068,0,0,0-2.4815.9048A5.3167,5.3167,0,0,0,14,32.9873,5.0429,5.0429,0,0,0,19,38c2.979,0,4.5405-2.6309,5.0088-5.0933a3.4386,3.4386,0,0,0-.4336-2.7216C22.8354,29.1191,21.311,28.4019,18.916,27.9927ZM19,36a3,3,0,1,1,3-3A3.0033,3.0033,0,0,1,19,36Z"/>
    <path class="cls-1" d="M39,33a5,5,0,1,0,5,5A5.0059,5.0059,0,0,0,39,33Zm0,8a3,3,0,1,1,3-3A3.0033,3.0033,0,0,1,39,41Z"/>
  </g>
  <g id="primary">
    <polygon class="cls-2" points="46.305 46.805 44.865 46.805 46.061 48 8 48 8 9.939 9.195 11.135 9.195 9.695 7.5 8 5.805 9.695 5.805 11.135 7 9.939 7 49 46.061 49 44.865 50.195 46.305 50.195 48 48.5 46.305 46.805"/>
    <circle class="cls-2" cx="19" cy="33" r="2"/>
    <circle class="cls-2" cx="27" cy="24" r="2"/>
    <circle class="cls-2" cx="39" cy="38" r="2"/>
  </g>
</svg>
