<svg id="Layer_1" data-name="Layer 1" xmlns="http://www.w3.org/2000/svg" xmlns:xlink="http://www.w3.org/1999/xlink" width="320" height="160" viewBox="0 0 320 160">
  <defs>
    <style>
      .cls-1, .cls-18 {
        fill: none;
      }

      .cls-2 {
        clip-path: url(#clip-path);
      }

      .cls-3 {
        fill: #fee89a;
      }

      .cls-4 {
        fill: #f8da93;
      }

      .cls-5 {
        fill: #f2cb8d;
      }

      .cls-6 {
        fill: #ecbd86;
      }

      .cls-7 {
        fill: #e6af80;
      }

      .cls-8 {
        fill: #dfa179;
      }

      .cls-9 {
        fill: #d99273;
      }

      .cls-10 {
        fill: #d2846d;
      }

      .cls-11 {
        fill: #cb7666;
      }

      .cls-12 {
        fill: #c46760;
      }

      .cls-13 {
        fill: #bd585a;
      }

      .cls-14 {
        fill: #b54954;
      }

      .cls-15 {
        fill: #ae384e;
      }

      .cls-16 {
        fill: #a62448;
      }

      .cls-17 {
        fill: #9e0142;
      }

      .cls-18 {
        stroke: #000;
      }

      .cls-19 {
        isolation: isolate;
        font-size: 9.93099px;
        font-family: ArialMT, Arial;
      }
    </style>
    <clipPath id="clip-path">
      <rect class="cls-1" x="19.98424" y="2.36511" width="297.93069" height="139.03432"/>
    </clipPath>
  </defs>
  <g>
    <g class="cls-2">
      <g>
        <path class="cls-3" d="M187.2012,132.46151l3.59664-.58367,3.97241-1.39208,3.35721-1.99666.6152-.3862,3.97241-3.53965.04549-.04656,3.92692-3.81056.17763-.16184,3.79478-2.13132,3.97241-1.7273.54621-.11379,3.4262-.44353,3.97241.04206,3.05983.40147.91258.22068,3.97241,1.39722,3.9724,1.7889,1.85668.56561,2.11573.7373,3.97241.64,3.97241.03083,3.97241-.45412,3.56349-.954.40892-.11035,3.97241-1.15506,3.97241-1.30011,3.44546-1.40689.52695-.25565,3.97241-2.521,1.30205-1.19577,2.67036-2.40331,1.72429-1.5691,2.24812-1.74854,2.45466-2.22387,1.51775-1.07975,3.84827-2.89266.12414-.09207,3.9724-3.5028.46146-.37754,3.511-3.21838.87564-.754,3.09677-1.94594,2.99916-2.02647.97325-.60828,3.5412-3.36413.43121-.40211,3.59233-3.5703.38008-.35972,3.2571-3.61269.71531-.84025,2.93612-3.13216,1.03629-1.28988,3.59057-2.68252.38184-.29447,3.97241-1.88325,1.9862-1.79469V41.0961l-1.9862-.12338-3.97241.108-3.97241-.24027-3.97241-.95519-3.97241-1.81967-1.69159-.94195-2.28082-1.57064-2.56216-2.40177-1.41025-1.34635-2.28821-2.62606-1.6842-2-1.79763-1.97241-2.17478-2.3375-1.50208-1.63491-2.47033-2.20812-2.14834-1.76429L286.13567,15.656l-3.56084-2.36679-.41157-.35413-3.97241-2.59434-2.0607-1.02394-1.91171-.93255L270.246,7.603l-3.97241.00967-3.97241.56367L258.3288,9.19094l-.34377.12589-3.62864.92494-3.97241.19916-3.97241-.25334L242.43916,9.966l-3.97241-.00385-3.97241-.06043-3.9724.04484-3.97241.08182-3.97241-.22608-1.734-.48551-2.23842-.89822L214.6323,6.801l-2.76243-1.45655-1.21-.86286L206.68748,1.3863l-.016-.01429-3.95639-3.86294-.12195-.10947-3.85046-3.204-1.75448-.76838-2.21793-.8813-3.97241-.52866-3.97241.2732-3.544,1.13676-.42839.141-3.9724,2.63662-1.4994,1.19483-2.473,1.6274-3.82606,2.345-.14635.072-3.97241,1.53309-3.97241.59211-3.97241.38206-3.97241.70985-1.98621.68326-1.9862,1.095L148.0812,9.31683l-.97986,1.67021-1.25058,2.3022-2.72183,2.75586-3.97241-.24616-3.97241-1.54764-1.84717-.96206L131.2117,12.0317l-3.97241-2.32591-.88906-.389-3.08334-1.704-3.97241-1.43079-3.97241-.784-.92691-.05368-3.0455-.25521-3.04552.25521-.92689.05473L103.40484,5.86l-3.97241.79287L95.46,7.75161,91.48761,9.07646l-.712.24037L87.5152,10.236l-3.97241,1.65508L81.2819,13.28924,79.57038,14.369,75.598,17.17529l-.22068.08635L71.62556,18.967l-3.9724.39658-3.97241-1.54216-.68414-.55975-3.28827-2.14452L55.8864,13.28924l-.15047-.07524-3.97241-1.48924-3.97241-1.19622-3.97241-.20588-3.97241.7774-3.97241,1.57938-.92689.6098-3.04552,3.80689-.08275.16551-.72083,3.97241.35358,3.97241.45,1.2,1.3442,2.77241,2.62821,2.40919,1.89694,1.56322,2.07547,1.45446,3.97241,2.50471.03009.01324L47.79111,39.051l3.97241,1.5047,1.28929.54036,2.68312,1.08466,3.97241.50712,3.97241-.32366,3.97241-.073,3.9724.43714L75.598,44.01092l.60772,1.05759,1.28454,3.97241.00315,3.97241-.57449,3.97241-1.20126,3.97241-.11966.34643-1.72284,3.626L71.73266,68.903l-.1071.18515-3.69335,3.78725-.279.23948-3.97241,2.10929L59.70834,76.549l-1.0232.29881-2.94921,1.47461-2.22777,2.4978L52.33427,84.7926l.44394,3.97241L54.687,92.73742l1.0489,1.11133,2.93086,2.86108,1.04155,1.22009,1.66087,2.75232,1.89073,3.97241.42081,1.05649.80616,2.91592,1.12812,3.97241,1.40192,3.97241.63621,1.05758,2.91482,2.91483,1.05758.696,3.97241,1.51558,3.97241.70564,3.97241-.28122,3.97241-1.38085,2.61949-1.25516,1.35292-.59084,3.97241-2.381,1.1374-1.00056,2.835-2.69672,1.42646-1.27569,2.54595-1.87956,3.97241-.95592,3.97241,1.33078,2.05186,1.5047,1.92055,1.44339,3.15637,2.529.816.6156,3.97241,2.33087,3.31034,1.02594.66206.27586,3.97241.88275,3.97241.26279,3.97241.142,3.97241.184,3.97241.56184,3.97241,1.2842.74805.37894,3.22436,2.08635,3.97241,1.8703.04053.01576,3.93188,1.3961,3.97241,1.04555,3.97241.76083,3.97241.54266,2.28413.22727,1.68828.22214,3.9724.17752,3.97241-.31539Z"/>
        <path class="cls-4" d="M60.3704,29.17887l-.66206-1.85378-.963-2.11863-3.0094-2.283-3.34044-1.68942-.632-.25987-3.97241-1.61954-3.97241.979-.7421.90041-.33453,3.97241,1.07663,1.92,1.95468,2.05241,2.01773,1.03347,3.97241.89131,3.97241,1.47192L59.70834,30.503Zm134.67125,95.33782,3.701-2.54641,1.55927-1.426,2.41314-1.91975,2.74709-2.05266,1.22532-.72226,3.97241-1.70724,3.97241-1.24378,1.57635-.29913,2.39606-.32816,3.97241-.23254,3.97241.04813,3.97241.22794,2.3427.28463,1.6297.31939,3.97241.38162,3.97241-.1695,2.09656-.53151,1.87585-.603,3.97241-2.38925,1.42407-.9802,2.54834-3.97241h0l3.97241-3.0486,3.97241,1.00871,3.97241.36346,3.97241-.29645,3.97241-1.60461.71843-.39492,3.254-1.68992,2.95094-2.28249,1.02147-.88276,3.60087-3.08965.37154-.26347,3.9724-3.26988.59163-.43906,3.38078-2.13762,2.86126-1.83479,1.11115-.60188,3.97241-2.62342.7868-.74711,3.18561-2.80306,1.21677-1.16935,2.75564-2.69311,1.14015-1.2793,2.73049-3.9724.10177-.19771,2.67084-3.7747,1.30157-2.06819,2.54019-1.90422,1.43222-2.09536,2.94333-1.877,1.02908-2.76636,1.9862-1.206-1.9862-.46294-3.97241-1.72213-2.59811-1.78734-1.3743-.4369-3.97241-2.28537L312.331,45.06851l-2.36092-1.30135-3.97241-2.306-.49319-.36505-3.47922-2.89717-1.04765-1.07524-2.92476-3.44161-.44457-.5308-3.52784-3.59269-.38975-.37972-3.58266-3.76748-.19269-.20493-3.77971-3.95689-.01892-.01552-3.95349-2.7954-2.55162-1.177-1.42079-.80433-3.97241-1.85916L270.246,13.898l-3.97241.18246-3.97241.61077-3.97241.429-3.97241.31324-3.97241-.47168-3.97241-.72585-3.97241-.47838-3.97241-.07364-3.97241.02568-3.9724.22946-3.97241.42042-3.97241.27332-3.97241-.56445-3.97241-.7369-.1589-.04225-3.81351-1.52135-3.97241-2.42742-.02684-.02364-3.94557-3.29912-.80521-.67329-3.1672-2.7412L196.81112,1.372,194.77025.09353,190.79784-.895l-3.97241.1616L182.853.772l-.91428.6-3.05812,1.705L175.194,5.34442l-.28578.16148L170.9358,7.46879l-3.57183,1.848-.40058.22379L162.991,10.96447l-3.97241,2.17429-.18916.15048-3.65832,3.9724-.12493.24223-2.095,3.73018-1.87737,2.56165-3.97241,1.38513-3.97241-1.304-3.97241-1.81571-1.68886-.8271-2.28355-1.45-3.83463-2.52241-.13778-.08994-3.97241-2.7674L124.942,13.28924l-1.67511-.92382-3.97241-1.566L115.32207,9.905l-3.97241-.25371-3.97241.333-3.97241.59437-3.97241.96533L95.46,12.91448l-.94582.37476-3.02659,1.16835L87.5152,16.11705l-2.04639,1.14459-1.926,1.65088-2.03134,2.32153L79.57038,25.1608l-.02942.04566-.9994,3.97241.56148,3.97241.46734.89519.97975,3.07722L81.9757,41.0961l1.17165,3.97241.39544,3.12118.09768.85123-.09768.62722-.50244,3.34519-.98721,3.97241L80.449,60.95815l-.87864,2.27452-.73358,1.69789L77.00436,68.903,75.598,72.38646l-.29425.48891-2.645,3.97241-1.03319,2.00348-1.84087,1.96893-2.13153,2.9131L66.8717,84.7926l-.921,3.97241.48019,3.97241,1.22228,3.17792.2998.79449,1.27013,3.97241,1.34317,3.97241,1.0593,2.57038.681,1.402,2.77329,3.97241.51813.53681,3.97241,2.6354,3.97241.208,3.97241-1.64683,3.17793-1.73341.79448-.36669,3.97241-2.385,1.50238-1.22068,2.47-1.68264,3.10271-2.28977.8697-.60987,3.97241-1.02583,3.97241,1.06276.59586.57294,3.37655,3.24668.53339.72573,3.439,3.2659.87.70651,3.10243,2.33163,3.9724,1.63054.04845.01024,3.924.96337,3.97241.24815,3.97241-.14059,3.97241-.43765,3.97241-.29664,3.97241.14244,3.97241,1.0309,3.97241,1.25007,3.06071,1.21236.9117.3889,3.97241,1.82945,3.97241,1.73148.05441.02257,3.918,1.46674,3.97241,1.15262,3.9724.55242,3.97241-.12626,3.97241-.876,3.97241-1.97789Z"/>
        <path class="cls-5" d="M194.19731,120.54429l.57294-.302,3.97241-2.84977,1.01441-.82068,2.958-2.14709,3.23719-1.82532.73522-.28993,3.97241-1.15717,3.97241-.89321,3.97241-.6865,3.97241-.50369,3.97241-.31911,1.757-.1228,2.21539-.15079,3.9724-.26083,3.97241-.82328,3.97241-2.059.75339-.67851,3.219-3.73407.15848-.23834,2.67149-3.97241,1.14244-1.50441,2.5566-2.468,1.41581-1.227,3.97241-1.28345,3.97241.87666,3.97241,1.4008.54883.233,3.42358,1.63643,3.97241-.38377,2.44966-1.25266,1.52275-.71009,3.97241-3.14852.16184-.1138,3.81057-2.17058,2.65238-1.80183,1.32-.72782,3.97241-2.1419,1.8922-1.10269,2.08021-.98476,3.97241-2.59832.42964-.38933,3.54277-3.17336.81308-.799,3.12045-3.9724.03888-.0707,2.189-3.90171,1.593-3.97241.19039-1.8584.377-2.114-.377-1.10606-.7508-2.86635-3.07065-3.97241-.151-.12545-3.97241-3.3033-.599-.54366-3.37342-2.61974-1.54339-1.35267-2.429-2.48609-1.40164-1.48632-2.57077-2.99763-.83071-.97478-3.1417-3.074-.924-.89838-3.04843-3.211-.91-.76138-3.0624-2.58808-2.52237-1.38433-1.45-.73176-3.97241-1.6053L270.246,18.38l-3.97241.40591-3.97241.65434-3.97241.029-3.97241-.22139-3.97241-.916-3.97241-1.05047-.10565-.01975-3.86676-.79361-3.97241-.1596-3.97241.08237-3.9724.40862-2.47662.46222-1.49579.2404-3.97241.532-3.97241-.16538-3.97241-.2464-3.59665-.36064-.37576-.057-3.97241-1.096-3.97241-2.31676-.79838-.50268-3.174-2.9702-.79738-1.00221-3.175-2.51433L191.2668,5.34442l-.469-.15927-3.97241-.21532-1.12377.37459-2.84864.94129-3.9724,2.02187-1.78617,1.00925-2.18624,1.28766-3.97241,2.1423-.89655.54245-3.07586,1.7788-3.7931,2.1936-.17931.16447-3.13009,3.80794-.84232,1.562-1.20522,2.41044-2.76719,2.75382-2.80275,1.21859-1.16966.26855-3.50895-.26855-.46346-.04414L143.12893,27.444l-3.97241-1.90516-.6753-.33234-3.29711-1.944-3.59843-2.02837-.374-.27167-3.97241-3.011-1.223-.68973-2.74942-1.515-3.97241-1.58046-3.4023-.877-.57011-.15993-3.97241-.31129-3.55225.47122-.42016.05573-3.97241.82037-3.97241,1.19721L95.46,16.938l-.69381.32363-3.2786,2.0812L88.819,21.23405,87.5152,22.6897l-1.819,2.51676-1.1864,3.97241.193,3.97241,1.23171,3.97241,1.4047,3.97241.176.65172.84671,3.32069.39675,3.97241-1.08687,3.97241-.15659.37-1.22482,3.60243L84.273,60.95815l-.73022,1.58137-1.06043,2.391L80.66858,68.903l-1.0982,2.82392-.498,1.14848-1.79551,3.97241L76.0295,80.82019l-.43153,1.576L74.56775,84.7926,73.85282,88.765l.13011,3.97241,1.13962,3.97241L75.598,98.3349l.67242,2.34734,1.93062,3.97241,1.36937,1.76375,3.97241,1.988,3.97241-.85477,3.97241-1.26481,3.41266-1.63214.55975-.23682,3.97241-2.46891,1.73922-1.26668,2.23319-1.75206,3.97241-1.5888,3.97241.42125,2.59363,2.91961,1.37878,1.32723,1.66982,2.64518,2.30259,2.95673.77051,1.01568,3.2019,2.75807,2.47774,1.21434,1.49466.76274,3.97241,1.061,3.97241.24022,3.97241-.32423,3.97241-.85,3.97241-.7776.93793-.11217,3.03448-.38465,3.97241.13126,2.05241.25339,1.92.26181,3.97241,1.02338,3.97241,1.31145,2.96947,1.37577,1.00294.62145,3.97241,2.64931,1.067.70165,2.90544,1.40623,3.9724,1.09721,3.97241.10385,3.97241-.86283Z"/>
        <path class="cls-6" d="M193.73049,116.57188l1.03976-.59817,3.97241-2.84368.75944-.53056,3.213-1.64686,3.97241-1.3476,3.93756-.97795.03485-.00657,3.97241-.72761,3.97241-.68056,3.97241-.637,3.97241-.59944,3.97241-.74925,2.29982-.572,1.67258-.4226,3.97241-1.71639,2.4164-1.83342,1.556-1.29867,2.3328-2.67374,1.63961-1.75128,1.8067-2.22113,2.16571-2.653,1.47774-1.3194,2.49467-1.85065,3.97241-1.18559,3.97241.29339,3.97241.62424L270.246,87.744l3.97241-.02521,3.97241-1.57931,2.02463-1.34687,1.94778-1.30131,3.97241-1.76013,1.79493-.911,2.17747-.75567,3.97241-1.61348,3.10284-1.60326.86957-.39544,3.97241-2.57861,1.08991-.99836,2.8825-3.40928.46112-.56312,2.30765-3.97241,1.20364-3.366.24346-.60644.10265-3.97241-.34611-.8701-1.2769-3.10231L305.99771,49.869l-.67318-.828-3.29923-3.04365-.98128-.92876-2.99113-2.65177-1.48965-1.32064-2.48276-2.62329L292.837,37.12369l-2.72888-3.15927-.675-.81314-3.29744-3.21679-.99665-.75562-2.97576-2.5312-2.67072-1.44121-1.30169-.74083-3.97241-1.76872-3.97241-.444-3.97241.70293-3.97241.74568-3.97241-.385-3.97241-.69581L250.384,21.252l-.04181-.01794-3.9306-1.48471-3.97241-.94209-3.97241-.20576-3.97241.10032-3.9724.43848-3.97241.8248-3.97241.82758-3.97241.11116-3.97241.08262-3.97241.14735-3.97241-.05079-3.97241-.49155-3.97241-.0288-3.97241-2.1302-1.14667-1.17082L190.79784,14.037l-.94864-.74774-3.02377-1.58276-3.97241.92876-1.53222.654-2.44018.7908-3.97241,1.5468-3.66421,1.6348-.3082.1744-3.97241,3.44629-.37727.35172-2.88165,3.97241-.71349.8496-2.71482,3.12281-1.25759.98918L155.04616,32.319l-3.97241.29522-3.97241-.8834-3.97241-1.641-1.84731-.91092-2.1251-1.19641-3.97241-2.05561-1.39033-.72039-2.58208-1.59715-3.91835-2.37526-.05406-.04148-3.9724-2.33215-3.65821-1.59878-.3142-.13273-3.97241-1.10231-3.97241-.24524-3.97241.73039-2.882.74989-1.09046.34119-3.97241,1.58679-3.736,2.04443-.23646.16483-3.73019,3.80758-.24222.51368-1.66478,3.45873-.099,3.97241.99591,3.97241.7679,2.321.46809,1.65145,1.12365,3.97241.69354,3.97241-.96657,3.97241-1.31871,3.00715-.41985.96526-3.02391,3.97241-.52865.7435-1.63191,3.22891-1.936,3.97241-.4045,1.03282-1.15731,2.93958L80.7338,76.84778l-1.01795,3.97241-.14547.73774-.7211,3.23467-.157,3.97241.51982,3.97241.35829.98242,1.38343,2.99,2.56319,3.97241.02579.02613,3.97241.64269,3.97241-.36584.83144-.303,3.141-1.047,3.97241-2.35793.70869-.56748,3.26372-2.63323,2.42153-1.33918,1.55088-1.31644,3.97241-2.10805,3.2296,3.42449.74281.85389.93207,3.11852,1.66943,3.97241,1.37091,2.07612,1.05687,1.89629,2.91554,3.61128.46393.36113,3.50847,2.00276,3.97241,1.09193,3.97241.22317,3.97241-.46167,3.97241-1.19446,3.97241-1.24112,1.55442-.42061,2.418-.827,3.97241-.5683,3.97241.23936L162.991,108.481l.60188.146,3.37053.98431,3.97241,1.608,2.42941,1.38009,1.543.89761,3.97241,2.9004.286.1744,3.6864,1.86558,3.97241.48573,3.97241-.83932Z"/>
        <path class="cls-7" d="M191.62967,112.59947l3.14058-1.50594,3.97241-1.87865,1.48575-.58782,2.48666-.6525,3.97241-.75513,3.97241-.65081,3.97241-.72421,3.97241-.81,1.83471-.37981,2.1377-.41832,3.97241-.78376,3.97241-.9977,3.9724-1.52436.45761-.24827,3.5148-2.1027,2.1395-1.86971,1.83291-1.60177,2.24552-2.37064,1.72689-1.79677,1.84052-2.17564,2.13189-2.319,2.15115-1.65341,1.82126-1.49106,3.97241-1.38863,3.97241-.144,3.97241.02426,3.97241.52876,3.97241-.22131,2.71233-1.28045,1.26008-.44055,3.97241-1.57136,3.97241-.81029,3.9724-1.12467.06286-.02554,3.90955-1.28958,3.97241-1.9144,1.12094-.76843,2.85147-2.46857,1.30445-1.50383,2.32758-3.97241.34038-1.05377,1.05514-2.91864-.158-3.97241-.89718-1.78463-1.0686-2.18778-2.90381-3.46489-.44321-.50752-3.5292-3.35367-.6753-.61874-3.29711-2.93635-1.18021-1.03606-2.7922-3.02928-.80192-.94313-3.17048-3.78838-.1933-.184-3.77911-2.91-2.37656-1.06239-1.59585-.8521-3.97241-1.65168-3.97241-.30885-3.97241,1.06144-3.97241.9055-3.97241-.97442-3.97241-1.37351-1.32757-.77879L250.384,24.0542l-3.97241-1.85983-3.11047-.96032-.86194-.24128-3.97241-.28725-3.97241.12925-2.94158.39928-1.03082.14017-3.97241.97226-3.97241,1.007-3.97241.37228-3.97241.38333-3.97241.65149-2.88563.44588-1.08678.17669-3.97241.54233-3.97241,1.12006-3.97241.51829-3.97241-.76086-2.4975-1.59651-1.47491-1.55172L182.853,21.43268l-.94993-.19863-3.02247-.44278-2.31725.44278-1.65516.32668-3.97241,2.56573-.92407,1.08-3.04834,3.434-.44914.53843L162.991,32.66708l-.66208.4842-3.31033,1.64956-3.97241.82317-3.97241-.42741-3.97241-1.12735-2.02954-.918-1.94287-.92119-3.97241-2.09556-1.97382-.95566-1.99859-1.108-3.97241-2.10543-1.46778-.759-2.50463-1.56477-3.9724-1.8361-1.61882-.57154-2.35359-1.01539-3.97241-1.14815-3.97241-.18522-3.97241,1.08327L103.862,21.23405l-.45714.19659L99.43243,23.474l-2.36171,1.73249L95.46,27.22991l-1.07529,1.949-.37445,3.97241.691,3.97241L95.46,39.64228l.56635,1.45382,1.83936,3.97241,1.44315,3.97241-.67306,3.97241-1.69259,3.97241L95.46,58.17539l-2.43967,2.78276-1.53274,1.6374-1.70347,2.335L87.5152,68.25124l-.32671.65173-1.46466,3.9724-1.66567,3.97241-.51537,2.38881-.3301,1.5836L82.703,84.7926l.2969,3.97241.54294,1.98621,1.14534,1.9862,2.82707,1.95611,3.97241.95226L95.46,94.99638l3.97241-2.11261.17825-.14635,3.57164-3.97241.22252-.26948,3.55982-3.70293.41259-.62341,2.99878-3.349.97363-1.25181,3.97241-1.56789,2.10538,2.8197L118.629,84.7926l.54583,3.97241-.17859,3.97241.29825,1.50567.29754,2.46674,1.17918,3.97241,2.42735,3.97241.06834.08464,3.9724,3.22413,1.677.66364,2.29544.73016,3.97241.23661,3.97241-.67541.78783-.29136,3.18458-1.508,3.97241-1.95686,1.14917-.50751,2.82324-1.56227,3.97241-.91849,3.97241.4509,3.97241,1.403,2.30582.6269,1.66659.49485,3.97241,1.1333,3.97241,1.31889,2.23643,1.02537,1.736,1.28179,3.76248,2.69062.20992.1272,3.97241.93786,3.97241-.63632Z"/>
        <path class="cls-8" d="M209.50126,104.65465l1.15863-.12526,3.97241-.64,3.97241-.80182,3.97241-.90989,3.97241-1.03678,1.47478-.45864,2.49763-.87627,3.9724-1.89674,1.79261-1.1994,2.1798-1.52862,2.74232-2.44379,1.23009-1.12174,2.7509-2.85067,1.22151-1.19756,2.56721-2.77485,1.4052-1.67485,2.77808-2.29756,1.19433-1.128,3.97241-1.56889,3.97241-.44742,3.97241-.49589,3.97241-.24948,1.80563-.08276,2.16678-.08247,3.97241-.82143,3.97241-.71749,3.97241-.26595,3.9724-.6943,3.97241-1.29954.1836-.09123,3.78881-2.26567,1.93529-1.70673,2.03712-2.61917.833-1.35324,1.315-3.97241-.30811-3.97241-1.83985-3.36127-.37932-.61114-3.48365-3.97241-.10944-.104-3.97241-3.639-.26088-.22938-3.71153-3.24638-.77889-.726-3.19351-3.78765-.186-.18476-3.78641-3.60553-.72452-.36688-3.24789-1.38448-3.97241-1.20166-3.97241.06545-3.97241,1.6537-2.12119.867-1.85122,1.3334-3.34517-1.3334-.62724-.18817-3.97241-2.713-.79448-1.07121L250.384,27.15041l-2.78978-1.944-1.18263-.60164-3.97241-1.45353-3.97241-.36541-3.97241.14111-3.9724.58385-3.97241,1.13024-1.91173.56538-2.06068.70451-3.97241.64722-3.97241.64436-3.97241,1.00237-3.92827.97395-.04414.012-3.97241,1.06788-3.97241,1.31409-3.97241.86257-3.97241.23534-3.97241-.5566L182.853,31.3393l-3.9724-.606-3.97241-.08079-3.97241,2.23-.26881.26881-3.7036,3.42069-.77891.55172-3.1935,1.147-3.97241.27539-3.97241-.15522-3.97241-.84174-1.21131-.42539-2.7611-1.0127-3.97241-1.94378-1.91622-1.01593-2.05619-1.14439-3.97241-1.97234-1.78522-.85568-2.18719-1.19495-3.97241-2.02971-2.03155-.74775-1.94085-.86744-3.97241-1.20473-3.97241-.89955-3.97241-.00758-3.97241,1.49429-3.09538,1.485-.877.66533-3.83621,3.30708-.1362.55429-.6228,3.41812.6228,3.58486.08635.38755,1.95131,3.97241,1.93475,2.82884.541,1.14357,1.65906,3.97241.40507,3.97241.79587,3.97241-.15826,3.97241-3.24278,1.485-3.97241.21388L95.46,64.51136l-.39164.4192-3.58077,3.79453-.12328.17788-1.74861,3.9724-1.88825,3.97241-.21227,2.05978-.17446,1.91263.17446,3.44274.04318.52967,2.458,3.97241,1.47126,1.11585,3.97241.01375,1.64376-1.1296,2.32865-1.796,1.779-2.17638,2.19346-3.45545.34942-.517,1.9286-3.97241.85317-3.97241.84122-1.93252,3.97241-1.02132,3.97241.87139,2.71676,2.08245,1.25565,1.109,1.9451,2.86336,1.19647,3.97241-.08588,3.97241-.2116,3.97241-.477,3.97241.34561,3.97241,1.25177,3.97241.008.013,3.522,3.95942.45036.36712,3.97241,1.77578,3.97241.30357,3.97241-.93022,2.728-1.51625,1.24436-.94754,3.97241-2.92521.16751-.09966,3.8049-2.871,3.97241-.55406,3.97241,1.13866,3.97241,1.84154,1.42345.44483,2.549.8665,3.97241.95138,3.97241.85865,3.97241,1.14093.66207.15495L182.853,105.695l3.97241.72057,3.97241.29682,3.97241-.27563,3.97241-.52986,3.97241-.49721,3.97241-.39524ZM250.384,58.32l-3.97241.73949-3.97241.25819-3.97241-.49739-3.97241-1.55819-.5341-.27634-.20152-3.97241.73562-.59886,3.97241-3.28527.13242-.08828,3.84-1.23871,3.97241-1.631,2.59614-1.10271,1.37627-.7375,3.97241-.6253,1.58224,1.3628,1.49881,3.97241-1.52163,3.97241-1.55942,2.71495-1.32413,1.25746ZM198.74266,69.44343l-3.97241.69162L192.0274,68.903l-1.22956-1.94873-.50591-2.02368.50591-1.32414,3.97241-.38621,3.62191,1.71035.3505.91671L199.34,68.903Z"/>
        <path class="cls-9" d="M96.22109,80.82019l2.61806-3.97241L95.46,73.6747l-2.00149,3.17308,1.11633,3.97241.88516.81435Zm124.34632,19.862,2.00971-.6232,3.97241-1.31277,3.97241-1.54823.94465-.48821,3.02775-1.74842,3.076-2.224.89637-.67173L242.0651,88.765l.37406-.344,3.70066-3.62846.27175-.30429,3.06246-3.66812.91-1.29136,2.85038-2.681,1.122-1.49429,3.97241-1.76371,3.97241-.45306,1.73793-.26135,2.23448-.36185,3.97241-.32066,3.97241.2742,3.97241-.25988,3.97241-.20313,3.97241.07387,3.9724-.56572,3.97241-1.4549,1.85131-1.15433,2.1211-1.81322,1.72514-2.15919,1.57539-3.97241-.46806-3.97241-2.53215-3.97241-.30032-.342-3.44312-3.63037-.52929-.48482L290.114,45.06851l-.00594-.00519-3.9724-3.67945-.36836-.28777-3.60405-3.578-.75862-.39437-3.21379-1.54778-3.97241-1.09313-3.97241.72232-2.533,1.91859-1.43943,1.85667-1.39034,2.11574-1.60676,3.97241-.77922,3.97241-.19609.5131-1.53748,3.45931-1.78093,3.97241-.654,1.12505L255.876,60.95815l-1.51957,1.31379-3.97241.60991-3.97241-.05209-3.97241.02071-3.97241-.27884-3.97241-.5296-3.9724-.38162-3.02515-.70226-.94726-.72438-1.36675-3.248,1.16328-3.97241.20347-.22546,3.97241-3.22175.63884-.5252,3.33356-1.55325,3.97241-1.59711,2.33415-.822,1.63826-.56821,3.97241-2.18608L248.236,41.0961l2.148-2.85965.98254-1.11276-.082-3.97241-.90053-1.2214-1.50526-2.751-2.46715-1.81609-3.97241-2.03607-.8597-.12025-3.11271-.34816-3.97241.15154-1.24666.19662-2.72574.5024-3.97241,1.399-3.97241,1.4556-2.88.61538-1.09242.30345-3.97241.959-3.97241,1.33359-3.97241,1.16638-.66207.21-3.31034,1.1863L198.74266,35.626l-3.97241.92-3.15665.57769-.81576.18956-3.97241.65038-3.97241.60976-3.9724,1.57891-2.89295.9438-1.07946.39724-3.97241.79-3.97241.07392-3.97241-.03508-3.97241-.7118L156.5,41.0961l-1.45381-.276L151.07375,39.504l-3.97241-1.53938-1.72356-.84094-2.24885-1.17289-3.97241-2.15513-1.34442-.64439-2.628-1.34586-3.97241-1.88716-1.6996-.73939-2.27281-1.13831-3.9724-1.29385-3.97241-.77421-3.97241-.55425-3.97241.43373-3.97241,2.60848-.90768.71841-1.20032,3.97241.31056,3.97241.99281,3.97241.80463,1.736.73965,2.23643,1.24655,3.97241.59532,3.97241,1.15383,3.97241.23706.639,1.35935,3.33337,2.61306,3.818.09579.15437,3.43619,3.97241.44043.35794,3.11858,3.61446.85383,1.19172,1.7757,2.78069.9437,3.97241-.36786,3.97241-.48705,3.97241-.77044,3.97241.30991,3.97241,1.70509,3.97241.86335.95448,3.97241,2.42107,3.97241.42563,3.97241-1.29257,3.14807-2.50861.82434-1.16782,2.39444-2.80459,1.578-3.533.38493-.43942,3.58748-3.95543,3.97241,1.27782,2.83933,2.67761,1.13308.75707,3.43071,3.21534.5417.29483,3.97241,1.55626,3.97241.81025,3.97241.46774,3.97241.40136,3.9724.07539,3.97241-.017,1.6864.3836,2.286.5314,3.97241,1.04569,3.97241.52682,3.97241.171,3.97241-.00541,3.97241-.28626,3.97241-.60164,3.97241-.8744Zm-17.85234-25.905-3.97241,1.16846-3.97241-.25592-3.97241-1.95494-.75755-.85949-3.21486-3.843-.08214-.12936-1.34859-3.97241L184.68,60.95815l1.49156-3.97241.65384-.67916,3.97241-.382,3.46845,1.06113.504.14127,3.97241,1.60087,3.20941,2.23027.763.699,2.30681,3.27336.82558,3.97241-1.35618,3.9724Z"/>
        <path class="cls-10" d="M216.72684,60.95815l1.26357-3.97241.6143-.91672,1.18226-3.05569,2.79015-3.32443.56748-.648,3.40493-2.17537,3.97241-1.29744,1.25283-.4996,2.71957-.9848,3.97241-1.325,3.97241-1.40116.4358-.26148,3.53661-3.47792.40262-.49449.46147-3.97241-.86409-1.52948-1.711-2.44293-2.26146-1.26055-3.97241-.65033-3.97241.15145-3.9724.72349-2.79541,1.03594-1.177.65045-3.97241,1.97594-3.97241,1.12533-.87306.22069-3.09935,1.18009-3.97241,1.728-3.52552,1.0643-.44689.1824L202.71507,39.047l-3.97241,1.15415-3.65205.895-.32036.1564L190.79784,44.149l-1.07946.91954.81464,3.97241.26482.12651,3.97241,2.24725,3.40493,1.59865.56748.19862,3.97241,2.04279,1.84434,1.731,2.12807,2.44874,2.26995,1.52367,1.70246,1.53065,3.97241.45555ZM286.89231,68.903l3.21576-.39608,3.97241-1.84507,1.99991-1.73126,1.9725-3.40492.2354-.56749-.2354-1.83343-.34329-2.139-3.06507-3.97241-.564-.5965-3.48734-3.37591-.48507-.42114-3.80181-3.55127-.17059-.158-3.97241-3.0174-2.12086-.797-1.85155-.87045-3.97241-.6446-3.16252,1.51505-.80989.4485-2.45488,3.52391-1.32172,3.97241-.19581.59163-1.10345,3.38078-1.0679,3.97241-.99089,3.97241L264.56,64.93056l1.71359.79448,3.97241.81856,3.97241,1.35253,3.97241.37184,3.97241.304,3.0377.331.93471.07925Zm-75.40483,31.77927,3.14482-.55294,3.97241-1.08613,3.97241-1.26188,2.9793-1.07146.99311-.47245,3.97241-1.85779,2.81052-1.64217,1.16188-.73124,3.97241-2.96088.30558-.28029,3.66683-3.3717.61266-.60071,3.35975-3.76217.17553-.21024,2.65284-3.97241,1.144-2.82249.7838-1.14992.8633-3.9724L250.384,67.965l-3.97241-1.57225-3.97241-.44927-3.97241-.35546-3.97241-.1789-3.9724.45742-3.97241,1.05018-3.97241-.40261-3.97241-.127L216.24609,68.903l-1.61379,1.16048-2.5279,2.81192-1.44451.7901-3.97241,3.16118-.01956.02113-3.95285,2.83544-3.97241.8779-3.97241-.03575-3.97241-1.99495-1.21937-1.68264-2.753-3.11812-.5648-.85429L183.7229,68.903l-.86988-2.03135-1.2795-1.94106-2.405-3.97241-.28785-.85124-1.27768-3.12117-2.2975-3.97241-.39723-.34377-3.97241-2.9085-1.00938-.72014-2.963-1.61379L162.991,45.9292l-1.55547-.86069-2.41694-.84466-3.97241-1.25957L151.07375,41.43l-.694-.33391-3.27844-1.463-3.97241-1.99236-1.00722-.51709-2.96519-1.67064-3.97241-1.90347-.931-.3983-3.04138-1.42079-3.97241-1.61616-3.66286-.93546-.30954-.08994-3.97241-.2495-3.97241.15628-.67616.18316-3.29625,2.64827-.64822,1.32414-.51444,3.97241.1239,3.97241,1.03876,3.97241h0l.956,3.97241.64338,3.97241,1.34982,3.97241,1.0232,1.76937,1.23348,2.203,2.73893,3.84955.07623.12286,2.87734,3.97241,1.01884,1.15328,2.33331,2.81912,1.63909,2.42047,1.4579,1.55194,1.32138,3.97241-.6339,3.97241-.82582,3.97241-1.23533,3.97241.48535,3.97241,3.02148,3.97241.38135.24075,3.97241.50286,2.06784-.74361,1.90457-1.209,1.98621-2.76341,1.32852-3.97241.65768-3.54679.10592-.42562L145.448,84.7926l1.65337-1.7088,3.97241-.76676,3.97241,1.59488.86437.88068,3.108,2.85675.81931,1.11566,3.09511,3.97241.058.05517,3.97241,2.73326,3.97241,1.1148.81786.06918,3.15455.24885,3.97241-.0465,1.23731-.20235,2.73509-.49655,3.97241-.97685,3.97241.13161,2.76975,1.34179,1.20266.58,3.97241,2.01677,3.97241,1.187,1.27417.18863,2.69824.23444,3.97241-.11515Z"/>
        <path class="cls-11" d="M232.08252,41.0961l2.41182-.70936,3.97241-1.34753,3.95781-1.91552.0146-.03894.68937-3.93347-.68937-.95074-3.97241-1.83327-3.97241.08481-3.9724,1.0049-3.31448,1.6943-.65793.816-3.77011,3.15637,1.86666,3.97241,1.90345.21754,3.97241.14782Zm57.40132,23.83446.62423-.10115,3.97241-3.36171.31095-.50955-.31095-2.37376-.30628-1.59865-3.66613-3.75384-.24169-.21857-3.73071-3.77061-.2207-.2018L282.16326,46.164l-2.87418-1.09553-1.09823-.33221-3.97241.25614-.11759.07607-2.94225,3.97241-.91257,2.91081-.24828,1.0616-.11553,3.97241.36381.93025,1.613,3.04216,2.35944,1.47095,3.97241,1.23351,3.97241.88515,1.87979.3828,2.09262.35085ZM137.10241,92.73742,135.5695,88.765l-.38539-.99311-.20492.99311-2.23465,3.97241,2.43957,3.34986Zm81.8019,3.97241,3.67281-1.656,3.97241-1.8295,1.09025-.48691,2.88216-1.48548,3.9724-2.33376.20593-.15317,3.76648-2.88025,1.19283-1.09216,2.77958-3.10965.76056-.86276,2.5886-3.97241.62325-3.06346.19018-.90895-.19018-.4469-3.97241-3.27064L241.553,68.903l-3.08626-.46117-3.97241-.04137-2.10656.50254-1.86584.59015-3.97241,2.37747-2.669,1.00478-1.30344.61641-3.97241,2.50477-1.562.85123-2.41044.96606-3.97241,1.53537-2.815,1.471-1.15743.47319-3.97241,2.2001-3.97241,1.175-.61866.12414-3.35375,2.22369-3.97241.62607-.36014-2.84976L188.2,80.82019,186.82543,78.813l-.91709-1.96519L183.319,72.87537l-.466-.72292L179.92633,68.903l-1.04571-1.49672-2.00912-2.47569L174.90821,62.258l-1.07947-1.29987L170.9358,57.021l-.027-.03526-3.73811-3.97241-.20734-.16337L162.991,50.13263l-1.17058-1.09171-2.80183-1.85613-3.97241-2.11228-.00621-.004-3.9662-1.8394-3.97241-1.93018-.34679-.20283L143.12893,39.151l-3.94887-2.02728-.02354-.01326-3.97241-1.90125-3.97241-1.66929-1.24137-.38861-2.731-.97828-3.9724-.50723-3.97241.82946-1.48286.65605-2.48955,2.61493-.68366,1.35748L113.641,41.0961l.43095,3.97241.80916,3.97241.44093,2.2852.28738,1.68721,1.375,3.97241,2.31,3.5973.21368.37511,2.50941,3.97241,1.24932,1.62307,1.85177,2.34934,2.12063,2.50969,1.69991,1.46271,2.2725,2.40236,2.04366,1.57,1.92875,3.15377,2.24368.81864,1.72873,1.72873,1.0147-1.72873,2.95771-.95813,3.97241-1.748,3.97241-.37841,3.97241.81349,2.95924,2.271,1.01317,1.03406L160.778,84.7926l2.213,3.00008.74008.97233,3.23233,3.21187,1.68063.76054,2.29178.81523,3.97241.37063,3.97241-.27356,3.27911-.9123.69329-.2363,3.97241-2.05358,3.97241-1.53064,3.97241,1.24709,1.885,2.57343,2.08741,1.5606,3.24668,2.41181.72573.31624,3.97241,1.16553,3.97241.19433,3.97241-.53021,3.97241-1.04926Z"/>
        <path class="cls-12" d="M286.2692,56.98574l-.13353-.11432-3.97241-1.47466-2.45912,1.589,2.45912,1.14759,3.97241-.72944ZM182.28554,88.765l.56748-.54791,1.82557-3.4245-.24764-3.97241L182.853,76.87537l-.0151-.02759-3.61247-3.97241-.34483-.38492L175.47778,68.903l-.56957-.69473-3.35286-3.27768-.61955-.75454-2.69159-3.21787-1.28082-1.692-1.72632-2.28045-2.24609-2.099-1.312-1.87345L159.01857,50.499l-1.6274-1.45808-2.345-1.46563-3.88552-2.50678-.08689-.0403-3.97241-2.08289-3.16171-1.84922-.8107-.43494-3.97241-2.08529-3.43979-1.45218-.53262-.25491L131.2117,35.339l-3.97241-1.04477-3.9724.09727-3.97241,2.584-.14445.14822-2.38169,3.97241-.12992,3.97241.53078,3.97241.71384,3.97241,1.41144,3.60115.123.37126,2.28008,3.97241,1.56935,2.28745,1.27519,1.685,2.69721,3.32463.74621.64778,3.2262,2.80742,1.654,1.165,2.31837,1.856,3.97241,1.42963,3.97241-.12782,3.97241-.97881,3.97241-.42856,3.97241-.02568,3.97241.87905,1.75128,1.36864,1.8751,3.97241.346.63255,1.56059,3.33986,2.41182,3.10487,1.21734.86754,2.75507,1.42741,3.97241.472,3.97241-.51767Zm38.16069,3.97241,2.13089-1.44939,3.97241-2.24128.72888-.28174,3.24353-1.43135,3.9724-2.0592.66208-.48186,3.31033-3.12009.744-.85232,2.00058-3.97241-1.61765-3.97241-1.12693-.52614-3.97241-.29741-2.36951.82355-1.60289.90015-3.23145,3.07226-.741.97284-3.97241,1.9444-2.13256,1.05517-1.83985.80547-3.97241.845-3.97241.98137-3.54913,1.34053-.42328.28219L203.01731,88.765l.95456,3.97241,2.71561,1.78685,3.97241.90456,3.97241-.51936,3.97241-1.41847Z"/>
        <path class="cls-13" d="M145.30349,72.87537l1.79785-.42648,3.97241-.65484,3.97241-.73217,3.97241-1.03826L161.6455,68.903l.56747-3.97241-.02278-3.97241-1.36033-3.97241-1.81129-2.51013-1.00113-1.46228-2.97128-2.70846-1.309-1.264-2.66343-1.8396-3.06458-2.13281-.90783-.4768L143.12893,42.244,141.156,41.0961l-1.99951-1.05634-3.97241-1.62369-3.97241-1.27864-.10345-.01374-3.869-.65161-3.2869.65161-.6855.18576-3.52463,3.78665-.44778,2.53932-.222,1.43309.222,2.63288.0882,1.33953.6186,3.97241,1.33782,3.97241,1.92779,3.09788.60823.87453,3.08209,3.97241.28208.3477,3.97241,3.461.22543.16368,3.747,2.72052,3.07156,1.25188.90085.38518,3.97241.14812ZM178.93288,84.7926l1.10289-3.97241-1.15515-2.30069-1.09621-1.67172-2.8762-2.82981-1.6867-1.1426L170.9358,70.993l-3.97241-1.46937-1.07256,3.35172.23745,3.97241.334,3.97241.50108,1.099L169.22,84.7926l1.71584,1.23205,3.97241.474,3.97241-1.65507Z"/>
        <path class="cls-14" d="M151.28441,68.903l3.76175-2.113,1.762-1.85942L158.31,60.95815l-.83968-3.97241-2.42419-3.46313-.33026-.50928-3.64215-3.525-.46017-.44746-3.51224-2.49275-1.9297-1.47966-2.04271-1.21236-3.97241-2.284-1.07-.476L135.18411,39.943l-3.97241-1.08857-3.97241-.23079-3.9724,1.66276-.7537.80972-1.2601,3.97241.03064,3.97241.58148,3.97241,1.39552,3.97241.00616.00988,2.75594,3.96253,1.21646,1.55213,2.78271,2.42028,1.1897,1.044,3.97241,2.88572.08988.04272,3.88253,1.76188,3.97241.24406,3.97241-.99863,3.97241-.944Z"/>
        <path class="cls-15" d="M151.652,64.93056l3.02061-3.97241-.35181-3.97241-2.55354-3.97241-.69352-.6712-3.39486-3.30121-.57755-.40991-3.97241-3.028-.762-.53448L139.15652,43.282l-3.97241-1.70508-1.76679-.48084-2.20562-.52471-3.97241.19254-.698.33217-3.08185,3.97241-.19251,2.39514-.08213,1.57727.08213.5893.52716,3.38311,1.49474,3.97241,1.9505,2.73786,1.246,1.23455L131.2117,63.357l2.25917,1.5736,1.71324,1.26006,3.97241,1.9019,3.97241.29745,3.97241-1.30007,3.97241-1.75626Z"/>
        <path class="cls-16" d="M145.045,64.93056l2.0563-.98749,3.84241-2.98492.13-1.19171.20447-2.7807-.20447-.32085-2.327-3.65156-1.64543-1.59842-2.28164-2.374-1.69077-1.28276-3.83475-2.68965-.13766-.07661-3.97241-1.45076-3.97241-.72788-3.97241,1.24532-.84518,1.00993-.882,3.97241.40753,3.97241,1.3196,3.741.10984.2314,3.86257,3.8273.1853.14511,3.78711,2.64019,2.86222,1.33222,1.11019.53749,3.97241.18157Z"/>
        <path class="cls-17" d="M146.30514,60.95815l.7962-1.5654.78245-2.407-.78245-1.32106-1.47679-2.65135-2.49562-2.6106-1.52275-1.36181-2.44966-1.61033-3.97241-1.64684-3.97241-.28852-2.91863,3.54569.1689,3.97241,1.74748,3.97241,1.00225.9931,3.80448,2.97931.16793.11707,3.97241,1.74154,3.97241-.08726Z"/>
      </g>
    </g>
    <circle cx="38.18089" cy="22.8132" r="0.9931"/>
    <circle cx="52.25586" cy="24.61986" r="0.9931"/>
    <circle cx="60.15102" cy="84.1939" r="0.9931"/>
    <circle cx="65.27969" cy="32.28887" r="0.9931"/>
    <circle cx="74.2095" cy="112.45883" r="0.9931"/>
    <circle cx="77.35435" cy="91.68731" r="0.9931"/>
    <circle cx="86.14471" cy="75.11478" r="0.9931"/>
    <circle cx="86.19557" cy="84.50099" r="0.9931"/>
    <circle cx="86.94219" cy="109.97293" r="0.9931"/>
    <circle cx="88.43286" cy="25.6804" r="0.9931"/>
    <circle cx="89.89499" cy="67.7429" r="0.9931"/>
    <circle cx="91.4689" cy="43.60803" r="0.9931"/>
    <circle cx="91.9551" cy="27.06827" r="0.9931"/>
    <circle cx="92.09832" cy="89.22466" r="0.9931"/>
    <circle cx="92.5046" cy="95.54871" r="0.9931"/>
    <circle cx="93.70207" cy="68.448" r="0.9931"/>
    <circle cx="96.4004" cy="59.43294" r="0.9931"/>
    <circle cx="99.85806" cy="83.28565" r="0.9931"/>
    <circle cx="101.93814" cy="36.24864" r="0.9931"/>
    <circle cx="102.65901" cy="39.32426" r="0.9931"/>
    <circle cx="102.76997" cy="76.06515" r="0.9931"/>
    <circle cx="103.18911" cy="61.27976" r="0.9931"/>
    <circle cx="104.73486" cy="34.02334" r="0.9931"/>
    <circle cx="106.46707" cy="92.58216" r="0.9931"/>
    <circle cx="107.87419" cy="23.17589" r="0.9931"/>
    <circle cx="112.3566" cy="74.74978" r="0.9931"/>
    <circle cx="112.75267" cy="20.91379" r="0.9931"/>
    <circle cx="113.52484" cy="46.98448" r="0.9931"/>
    <circle cx="118.07262" cy="25.15226" r="0.9931"/>
    <circle cx="118.72996" cy="61.08147" r="0.9931"/>
    <circle cx="119.07343" cy="26.64484" r="0.9931"/>
    <circle cx="120.49252" cy="58.10851" r="0.9931"/>
    <circle cx="122.76485" cy="37.90155" r="0.9931"/>
    <circle cx="122.9646" cy="47.05883" r="0.9931"/>
    <circle cx="123.26346" cy="50.23662" r="0.9931"/>
    <circle cx="123.87099" cy="37.26342" r="0.9931"/>
    <circle cx="125.33568" cy="77.20316" r="0.9931"/>
    <circle cx="125.47181" cy="98.77111" r="0.9931"/>
    <circle cx="129.32038" cy="100.873" r="0.9931"/>
    <circle cx="130.08977" cy="90.95205" r="0.9931"/>
    <circle cx="130.30451" cy="67.76746" r="0.9931"/>
    <circle cx="130.43034" cy="40.07523" r="0.9931"/>
    <circle cx="131.14653" cy="63.41513" r="0.9931"/>
    <circle cx="131.52809" cy="43.96809" r="0.9931"/>
    <circle cx="131.53907" cy="50.70142" r="0.9931"/>
    <circle cx="132.47602" cy="55.61116" r="0.9931"/>
    <circle cx="132.97203" cy="90.82994" r="0.9931"/>
    <circle cx="133.0027" cy="33.83347" r="0.9931"/>
    <circle cx="133.12332" cy="102.08097" r="0.9931"/>
    <circle cx="133.91647" cy="106.73506" r="0.9931"/>
    <circle cx="134.5593" cy="65.13652" r="0.9931"/>
    <circle cx="135.34789" cy="41.50554" r="0.9931"/>
    <circle cx="135.58979" cy="62.44736" r="0.9931"/>
    <circle cx="135.85969" cy="87.38032" r="0.9931"/>
    <circle cx="136.04817" cy="50.74019" r="0.9931"/>
    <circle cx="136.91503" cy="81.19321" r="0.9931"/>
    <circle cx="139.48931" cy="97.8843" r="0.9931"/>
    <circle cx="140.02556" cy="51.72618" r="0.9931"/>
    <circle cx="140.72526" cy="49.56914" r="0.9931"/>
    <circle cx="141.17325" cy="48.20778" r="0.9931"/>
    <circle cx="143.62606" cy="52.86419" r="0.9931"/>
    <circle cx="144.54101" cy="77.94635" r="0.9931"/>
    <circle cx="145.20448" cy="62.53546" r="0.9931"/>
    <circle cx="146.05155" cy="83.63808" r="0.9931"/>
    <circle cx="146.44984" cy="64.16139" r="0.9931"/>
    <circle cx="148.35143" cy="63.15197" r="0.9931"/>
    <circle cx="149.85251" cy="63.75145" r="0.9931"/>
    <circle cx="151.05481" cy="43.44292" r="0.9931"/>
    <circle cx="151.89107" cy="70.28554" r="0.9931"/>
    <circle cx="152.29309" cy="51.87091" r="0.9931"/>
    <circle cx="153.65623" cy="106.07278" r="0.9931"/>
    <circle cx="153.82791" cy="58.04902" r="0.9931"/>
    <circle cx="153.87256" cy="13.8911" r="0.9931"/>
    <circle cx="156.92424" cy="101.86469" r="0.9931"/>
    <circle cx="159.13178" cy="88.17874" r="0.9931"/>
    <circle cx="160.48031" cy="62.55904" r="0.9931"/>
    <circle cx="160.72393" cy="41.05825" r="0.9931"/>
    <circle cx="164.63173" cy="78.55137" r="0.9931"/>
    <circle cx="164.70215" cy="122.06457" r="0.9931"/>
    <circle cx="165.32121" cy="78.22372" r="0.9931"/>
    <circle cx="165.9529" cy="53.13856" r="0.9931"/>
    <circle cx="166.16687" cy="53.69688" r="0.9931"/>
    <circle cx="167.90744" cy="68.46841" r="0.9931"/>
    <circle cx="168.09699" cy="36.62369" r="0.9931"/>
    <circle cx="168.68731" cy="88.62242" r="0.9931"/>
    <circle cx="168.73814" cy="25.85086" r="0.9931"/>
    <circle cx="169.64935" cy="87.97181" r="0.9931"/>
    <circle cx="172.00598" cy="90.03507" r="0.9931"/>
    <circle cx="173.25885" cy="25.26018" r="0.9931"/>
    <circle cx="173.56715" cy="74.8266" r="0.9931"/>
    <circle cx="173.62273" cy="50.62623" r="0.9931"/>
    <circle cx="173.78839" cy="78.86548" r="0.9931"/>
    <circle cx="174.43254" cy="59.89589" r="0.9931"/>
    <circle cx="174.61846" cy="69.8568" r="0.9931"/>
    <circle cx="175.89173" cy="104.18086" r="0.9931"/>
    <circle cx="176.44052" cy="95.30617" r="0.9931"/>
    <circle cx="177.80456" cy="85.37491" r="0.9931"/>
    <circle cx="178.1422" cy="72.84292" r="0.9931"/>
    <circle cx="178.8606" cy="32.52189" r="0.9931"/>
    <circle cx="180.74432" cy="15.42438" r="0.9931"/>
    <circle cx="181.73845" cy="118.98539" r="0.9931"/>
    <circle cx="185.34433" cy="113.91707" r="0.9931"/>
    <circle cx="185.65437" cy="55.88621" r="0.9931"/>
    <circle cx="186.5971" cy="45.28672" r="0.9931"/>
    <circle cx="187.41826" cy="85.28533" r="0.9931"/>
    <circle cx="187.64315" cy="13.87477" r="0.9931"/>
    <circle cx="188.63396" cy="93.60942" r="0.9931"/>
    <circle cx="188.63624" cy="42.5448" r="0.9931"/>
    <circle cx="190.07166" cy="82.01256" r="0.9931"/>
    <circle cx="190.58456" cy="1.37201" r="0.9931"/>
    <circle cx="191.39804" cy="114.53631" r="0.9931"/>
    <circle cx="192.0982" cy="79.6504" r="0.9931"/>
    <circle cx="192.34119" cy="50.32086" r="0.9931"/>
    <circle cx="195.20534" cy="38.40848" r="0.9931"/>
    <circle cx="195.75423" cy="107.91547" r="0.9931"/>
    <circle cx="196.46208" cy="17.90103" r="0.9931"/>
    <circle cx="199.87387" cy="49.20781" r="0.9931"/>
    <circle cx="200.4733" cy="91.23637" r="0.9931"/>
    <circle cx="203.27468" cy="92.70239" r="0.9931"/>
    <circle cx="203.64859" cy="63.79395" r="0.9931"/>
    <circle cx="204.25384" cy="43.60966" r="0.9931"/>
    <circle cx="205.18396" cy="86.75995" r="0.9931"/>
    <circle cx="205.6464" cy="38.92268" r="0.9931"/>
    <circle cx="205.66753" cy="95.59415" r="0.9931"/>
    <circle cx="206.03642" cy="94.55009" r="0.9931"/>
    <circle cx="206.66167" cy="51.29419" r="0.9931"/>
    <circle cx="209.01803" cy="94.46355" r="0.9931"/>
    <circle cx="209.68115" cy="16.39382" r="0.9931"/>
    <circle cx="209.87916" cy="61.37972" r="0.9931"/>
    <circle cx="210.0274" cy="31.00561" r="0.9931"/>
    <circle cx="213.15013" cy="98.90674" r="0.9931"/>
    <circle cx="213.29565" cy="71.73208" r="0.9931"/>
    <circle cx="213.82258" cy="81.93446" r="0.9931"/>
    <circle cx="215.06667" cy="36.81449" r="0.9931"/>
    <circle cx="215.0993" cy="57.89118" r="0.9931"/>
    <circle cx="215.65366" cy="68.0232" r="0.9931"/>
    <circle cx="216.04405" cy="42.36954" r="0.9931"/>
    <circle cx="217.69503" cy="60.82093" r="0.9931"/>
    <circle cx="218.90396" cy="88.02485" r="0.9931"/>
    <circle cx="220.00937" cy="91.41524" r="0.9931"/>
    <circle cx="220.66663" cy="34.05206" r="0.9931"/>
    <circle cx="222.6152" cy="39.77462" r="0.9931"/>
    <circle cx="224.29363" cy="90.74323" r="0.9931"/>
    <circle cx="226.38138" cy="52.33777" r="0.9931"/>
    <circle cx="226.7197" cy="91.14194" r="0.9931"/>
    <circle cx="228.55823" cy="36.20612" r="0.9931"/>
    <circle cx="230.93308" cy="81.90603" r="0.9931"/>
    <circle cx="232.5965" cy="99.59966" r="0.9931"/>
    <circle cx="233.57916" cy="33.69144" r="0.9931"/>
    <circle cx="233.79124" cy="73.64263" r="0.9931"/>
    <circle cx="235.57726" cy="29.65945" r="0.9931"/>
    <circle cx="236.16849" cy="44.66779" r="0.9931"/>
    <circle cx="236.67777" cy="36.30567" r="0.9931"/>
    <circle cx="236.97422" cy="85.94241" r="0.9931"/>
    <circle cx="237.80063" cy="81.8687" r="0.9931"/>
    <circle cx="237.99369" cy="73.57564" r="0.9931"/>
    <circle cx="238.48185" cy="24.4579" r="0.9931"/>
    <circle cx="239.76137" cy="92.67165" r="0.9931"/>
    <circle cx="239.78519" cy="63.9526" r="0.9931"/>
    <circle cx="239.94992" cy="78.46231" r="0.9931"/>
    <circle cx="240.15348" cy="68.19464" r="0.9931"/>
    <circle cx="241.84543" cy="75.95655" r="0.9931"/>
    <circle cx="243.11216" cy="29.82888" r="0.9931"/>
    <circle cx="243.14762" cy="112.22214" r="0.9931"/>
    <circle cx="247.62172" cy="32.59968" r="0.9931"/>
    <circle cx="248.85987" cy="37.67702" r="0.9931"/>
    <circle cx="249.81909" cy="37.19037" r="0.9931"/>
    <circle cx="253.61967" cy="61.07196" r="0.9931"/>
    <circle cx="257.8257" cy="62.86431" r="0.9931"/>
    <circle cx="258.96973" cy="71.63517" r="0.9931"/>
    <circle cx="259.44137" cy="67.2132" r="0.9931"/>
    <circle cx="261.92849" cy="108.63085" r="0.9931"/>
    <circle cx="264.97542" cy="34.56487" r="0.9931"/>
    <circle cx="266.33051" cy="39.16219" r="0.9931"/>
    <circle cx="266.3956" cy="76.44448" r="0.9931"/>
    <circle cx="266.69777" cy="15.71306" r="0.9931"/>
    <circle cx="267.87026" cy="61.44244" r="0.9931"/>
    <circle cx="268.89054" cy="51.94134" r="0.9931"/>
    <circle cx="270.25994" cy="91.77431" r="0.9931"/>
    <circle cx="271.97183" cy="77.53072" r="0.9931"/>
    <circle cx="273.67973" cy="54.92682" r="0.9931"/>
    <circle cx="274.91214" cy="29.74608" r="0.9931"/>
    <circle cx="276.11854" cy="50.54379" r="0.9931"/>
    <circle cx="276.35978" cy="27.53719" r="0.9931"/>
    <circle cx="277.61041" cy="88.22951" r="0.9931"/>
    <circle cx="279.33015" cy="54.95093" r="0.9931"/>
    <circle cx="279.55045" cy="40.45763" r="0.9931"/>
    <circle cx="281.12509" cy="70.05012" r="0.9931"/>
    <circle cx="281.50244" cy="59.41894" r="0.9931"/>
    <circle cx="286.24256" cy="64.36686" r="0.9931"/>
    <circle cx="287.22599" cy="42.41605" r="0.9931"/>
    <circle cx="288.70316" cy="40.39828" r="0.9931"/>
    <circle cx="289.70881" cy="66.02374" r="0.9931"/>
    <circle cx="293.23543" cy="80.7131" r="0.9931"/>
    <circle cx="294.50272" cy="57.09806" r="0.9931"/>
    <circle cx="294.9629" cy="61.50212" r="0.9931"/>
    <circle cx="296.23917" cy="53.01796" r="0.9931"/>
    <circle cx="300.97265" cy="65.92786" r="0.9931"/>
    <circle cx="303.72777" cy="60.661" r="0.9931"/>
    <circle cx="317.91494" cy="54.38808" r="0.9931"/>
    <g>
      <path class="cls-18" d="M14.02563,140.90288H20.4808V1.86856H14.02563"/>
      <g>
        <line class="cls-18" x1="19.98424" y1="140.90288" x2="14.02563" y2="140.90288"/>
        <text class="cls-19" transform="translate(5.49328 144.05646)">0</text>
      </g>
      <g>
        <line class="cls-18" x1="19.98424" y1="124.19965" x2="14.02563" y2="124.19965"/>
        <text class="cls-19" transform="translate(-0.03016 127.35334)">10</text>
      </g>
      <g>
        <line class="cls-18" x1="19.98424" y1="107.49643" x2="14.02563" y2="107.49643"/>
        <text class="cls-19" transform="translate(-0.03016 110.65021)">20</text>
      </g>
      <g>
        <line class="cls-18" x1="19.98424" y1="90.7932" x2="14.02563" y2="90.7932"/>
        <text class="cls-19" transform="translate(-0.03016 93.94709)">30</text>
      </g>
      <g>
        <line class="cls-18" x1="19.98424" y1="74.08998" x2="14.02563" y2="74.08998"/>
        <text class="cls-19" transform="translate(-0.03016 77.24445)">40</text>
      </g>
      <g>
        <line class="cls-18" x1="19.98424" y1="57.38675" x2="14.02563" y2="57.38675"/>
        <text class="cls-19" transform="translate(-0.03016 60.54132)">50</text>
      </g>
      <g>
        <line class="cls-18" x1="19.98424" y1="40.68352" x2="14.02563" y2="40.68352"/>
        <text class="cls-19" transform="translate(-0.03016 43.8382)">60</text>
      </g>
      <g>
        <line class="cls-18" x1="19.98424" y1="23.98029" x2="14.02563" y2="23.98029"/>
        <text class="cls-19" transform="translate(-0.03016 27.13507)">70</text>
      </g>
      <g>
        <line class="cls-18" x1="19.98424" y1="7.27707" x2="14.02563" y2="7.27707"/>
        <text class="cls-19" transform="translate(-0.03016 10.43146)">80</text>
      </g>
    </g>
    <g>
      <path class="cls-18" d="M20.4808,146.365v-5.46207H318.41149V146.365"/>
      <g>
        <line class="cls-18" x1="20.4808" y1="140.40633" x2="20.4808" y2="146.36495"/>
        <text class="cls-19" transform="translate(17.68859 156.3714)">0</text>
      </g>
      <g>
        <line class="cls-18" x1="57.23035" y1="140.40633" x2="57.23035" y2="146.36495"/>
        <text class="cls-19" transform="translate(51.67687 156.3714)">10</text>
      </g>
      <g>
        <line class="cls-18" x1="93.97991" y1="140.40633" x2="93.97991" y2="146.36495"/>
        <text class="cls-19" transform="translate(88.42687 156.3714)">20</text>
      </g>
      <g>
        <line class="cls-18" x1="130.72946" y1="140.40633" x2="130.72946" y2="146.36495"/>
        <text class="cls-19" transform="translate(125.1759 156.3714)">30</text>
      </g>
      <g>
        <line class="cls-18" x1="167.47902" y1="140.40633" x2="167.47902" y2="146.36495"/>
        <text class="cls-19" transform="translate(161.92492 156.3714)">40</text>
      </g>
      <g>
        <line class="cls-18" x1="204.22856" y1="140.40633" x2="204.22856" y2="146.36495"/>
        <text class="cls-19" transform="translate(198.67492 156.3714)">50</text>
      </g>
      <g>
        <line class="cls-18" x1="240.97812" y1="140.40633" x2="240.97812" y2="146.36495"/>
        <text class="cls-19" transform="translate(235.42394 156.3714)">60</text>
      </g>
      <g>
        <line class="cls-18" x1="277.72766" y1="140.40633" x2="277.72766" y2="146.36495"/>
        <text class="cls-19" transform="translate(272.17394 156.3714)">70</text>
      </g>
      <g>
        <line class="cls-18" x1="314.47724" y1="140.40633" x2="314.47724" y2="146.36495"/>
        <text class="cls-19" transform="translate(308.92297 156.3714)">80</text>
      </g>
    </g>
  </g>
</svg>
