<svg id="rawgraphs-icons" xmlns="http://www.w3.org/2000/svg" width="56" height="56" viewBox="0 0 56 56">
  <defs>
    <style>
      .cls-1 {
        fill: #95e5c0;
      }

      .cls-2 {
        fill: #06c26c;
      }
    </style>
  </defs>
  <g id="secundary">
    <path class="cls-1" d="M11,22V10a20.9062,20.9062,0,0,0,6.5132-.8467A28.83,28.83,0,0,1,26,8V20a17.3874,17.3874,0,0,0-5.3887.7461A32.6927,32.6927,0,0,1,11,22Z"/>
    <path class="cls-1" d="M26,31c-3.7344,0-5.6812-1.5605-7.563-3.0693C16.5571,26.4238,14.7822,25,11,25V23a12.3663,12.3663,0,0,1,8.688,3.37C21.4482,27.7812,22.9683,29,26,29Z"/>
    <path class="cls-1" d="M26,48a23.5,23.5,0,0,1-7.0669-.9668A26.3491,26.3491,0,0,0,11,46V45a27.1771,27.1771,0,0,1,8.1914,1.0674A22.6573,22.6573,0,0,0,26,47Z"/>
    <path class="cls-1" d="M21.2993,35.2588C19.2412,31.1338,16.68,26,11,26v5c2.4126,0,3.81,2.4521,5.8252,6.4912C18.8149,41.48,21.07,46,26,46V41C24.291,41,23.0293,38.7266,21.2993,35.2588Z"/>
    <path class="cls-1" d="M12.5836,37.842c.1-.0185.198-.0409.296-.0628a6.124,6.124,0,0,0,2.342-1.2278,20.3684,20.3684,0,0,0-1.9436-3.2A4.2569,4.2569,0,0,1,11,34v4a8.8714,8.8714,0,0,0,1.108-.0754C12.2734,37.9028,12.43,37.8738,12.5836,37.842Z"/>
    <path class="cls-1" d="M12.5836,37.842c-.1534.0318-.31.0608-.4756.0826C12.2714,37.9042,12.4261,37.8712,12.5836,37.842Z"/>
    <path class="cls-1" d="M20.2266,31.1521q.1554-.2645.3068-.5248c-.38-.2127-.7429-.4356-1.0826-.6712C19.7243,30.347,19.98,30.7478,20.2266,31.1521Z"/>
    <path class="cls-1" d="M22.6331,27.217C23.6544,25.8058,24.6485,25,26,25V21c-3.049,0-5.0381,1.722-6.6038,3.8708.3185.2433.626.4855.9177.7194A14.7276,14.7276,0,0,0,22.6331,27.217Z"/>
    <path class="cls-1" d="M15.6867,37.4536A7.0944,7.0944,0,0,1,11,39v5a11.9758,11.9758,0,0,0,7.0875-2.1011A43.2363,43.2363,0,0,1,15.93,37.9376C15.8469,37.77,15.7673,37.6132,15.6867,37.4536Z"/>
    <path class="cls-1" d="M22.1942,34.8124c.488.9783.9567,1.8891,1.4092,2.6751A5.5643,5.5643,0,0,1,26,37V32a10.382,10.382,0,0,0-4.6966,1.0617C21.6182,33.6611,21.9141,34.2512,22.1942,34.8124Z"/>
    <path class="cls-1" d="M45,21a32.2725,32.2725,0,0,1-9.4824-1.2363A17.7621,17.7621,0,0,0,30,19V8a28.3864,28.3864,0,0,1,8.3574,1.1367A21.5746,21.5746,0,0,0,45,10Z"/>
    <path class="cls-1" d="M30,33V29c2.5938,0,3.8428-1.168,5.5713-2.7852C37.5791,24.3369,40.0771,22,45,22v4c-3.3438,0-4.8232,1.3838-6.6963,3.1357C36.3672,30.9473,34.1729,33,30,33Z"/>
    <path class="cls-1" d="M32.9,27.1582a15.8624,15.8624,0,0,0,1.9886-1.6743c.5388-.5039,1.1334-1.0568,1.8121-1.5978C35.1165,21.7252,33.05,20,30,20v5C31.0908,25,31.9682,25.7776,32.9,27.1582Z"/>
    <path class="cls-1" d="M39.8439,37.2858A8.31,8.31,0,0,0,45,39V34a3.5994,3.5994,0,0,1-2.3789-.918A18.517,18.517,0,0,0,39.8439,37.2858Z"/>
    <path class="cls-1" d="M30,48V46a22.2335,22.2335,0,0,0,6.68-.916A27.6268,27.6268,0,0,1,45,44v2a25.8976,25.8976,0,0,0-7.8037,1.0166A24.2237,24.2237,0,0,1,30,48Z"/>
    <path class="cls-1" d="M30,45V41c2.0371,0,3.3135-2.1133,5.1738-5.5928C37.1758,31.6621,39.668,27,45,27v4c-2.7373,0-4.2051,2.3779-6.2988,6.293C36.7705,40.9053,34.582,45,30,45Z"/>
    <path class="cls-1" d="M37.8054,40.8811A11.9848,11.9848,0,0,0,45,43V40a9.0475,9.0475,0,0,1-5.6929-1.721C38.8468,39.1355,38.3541,40.0225,37.8054,40.8811Z"/>
    <path class="cls-1" d="M34.2919,34.9358l.0362-.0675A10.4945,10.4945,0,0,0,30,34v3a7.7192,7.7192,0,0,1,2.842.4883C33.2766,36.7889,33.7477,35.9537,34.2919,34.9358Z"/>
  </g>
  <g id="primary">
    <rect class="cls-2" x="8" y="10" width="2" height="21"/>
    <rect class="cls-2" x="8" y="34" width="2" height="12"/>
    <rect class="cls-2" x="46" y="10" width="2" height="21"/>
    <rect class="cls-2" x="46" y="34" width="2" height="12"/>
    <rect class="cls-2" x="27" y="8" width="2" height="17"/>
    <rect class="cls-2" x="27" y="29" width="2" height="8"/>
    <rect class="cls-2" x="27" y="41" width="2" height="7"/>
  </g>
</svg>
