<svg id="rawgraphs-icons" xmlns="http://www.w3.org/2000/svg" width="56" height="56" viewBox="0 0 56 56">
  <defs>
    <style>
      .cls-1 {
        fill: #95e5c0;
      }

      .cls-2 {
        fill: #06c26c;
      }
    </style>
  </defs>
  <g id="secundary">
    <path class="cls-1" d="M32,34c-4,0-4,3-8,3s-4-3-8-3-4-2-8-2v1c4,0,4,3,8,3s4,8,8,8,4-9,8-9,4,5,8,5,4-7,8-7V32c-4,0-4,4-8,4S36,34,32,34Z"/>
    <path class="cls-1" d="M32,29c-4,0-4,1-8,1s-4-1-8-1H8v2c4,0,4,2,8,2s4,3,8,3,4-3,8-3,4,2,8,2,4-4,8-4V29c-4,0-4,2-8,2S36,29,32,29Z"/>
  </g>
  <g id="primary">
    <polygon class="cls-2" points="46.305 46.805 44.865 46.805 46.061 48 7.5 48 7.5 49 46.061 49 44.865 50.195 46.305 50.195 48 48.5 46.305 46.805"/>
    <path class="cls-2" d="M40,16c-4,0-4,5-8,5s-4-9-8-9-4,8-8,8-4,3-8,3v2c4,0,4-2,8-2s4-3,8-3,4,3,8,3h8c4,0,4,2,8,2V23C44,23,44,16,40,16Z"/>
    <path class="cls-2" d="M32,24c-4,0-4-3-8-3s-4,3-8,3-4,2-8,2v2h8c4,0,4,1,8,1s4-1,8-1,4,2,8,2,4-2,8-2V26c-4,0-4-2-8-2Z"/>
  </g>
</svg>
