<svg id="Layer_1" data-name="Layer 1" xmlns="http://www.w3.org/2000/svg" width="320" height="160" viewBox="0 0 320 160">
  <defs>
    <style>
      .cls-1 {
        fill: #9e0142;
      }

      .cls-2 {
        fill: #e0f3a1;
      }

      .cls-3 {
        fill: #f0704a;
      }

      .cls-4 {
        fill: #fedd8d;
      }

      .cls-5 {
        fill: #5e4fa2;
      }

      .cls-6 {
        fill: #69bda9;
      }

      .cls-7 {
        fill: none;
        stroke: #000;
      }

      .cls-8 {
        font-size: 10px;
        font-family: Helvetica;
      }
    </style>
  </defs>
  <g>
    <path class="cls-1" d="M49.30307,104.9359c17.26325,0,17.26325-3.334,34.5265-3.334,17.2538,0,17.2538,8.46788,34.5076,8.46788s17.25379-7.92986,34.5076-7.92986,17.25379,22.76886,34.50759,22.76886c17.26324,0,17.26324-21.68757,34.5265-21.68757,17.25379,0,17.25379-37.08151,34.50758-37.08151S273.64023,87.5315,290.89405,87.5315c13.80493,0,13.80493,11.3125,27.60985,11.3125V94.96949c-13.80492,0-13.80492-17.27063-27.60985-17.27063-17.25382,0-17.25382-36.62338-34.50761-36.62338s-17.25379-24.7692-34.50758-24.7692C204.6156,16.30628,204.6156,0,187.35236,0c-17.2538,0-17.2538,1.88305-34.50759,1.88305S135.591,67.46977,118.33717,67.46977s-17.2538,28.303-34.5076,28.303C66.56632,95.77276,66.56632,104.9359,49.30307,104.9359Z"/>
    <path class="cls-2" d="M187.35236,137.91575c17.26324,0,17.26324-26.08116,34.5265-26.08116,17.25379,0,17.25379-24.81226,34.50758-24.81226s17.25379-10.31567,34.50761-10.31567c13.80493,0,13.80493,17.27063,27.60985,17.27063v-5.38c-13.80492,0-13.80492-27.58951-27.60985-27.58951-17.25382,0-17.25382,6.12414-34.50761,6.12414s-17.25379,37.0815-34.50758,37.0815c-17.26326,0-17.26326,33.70233-34.5265,33.70233"/>
    <path class="cls-3" d="M83.82957,103.58632c17.2538,0,17.2538,12.81955,34.5076,12.81955s17.25379,16.88376,34.5076,16.88376,17.25379,2.13675,34.50759,2.13675c17.26324,0,17.26324-17.53365,34.5265-17.53365,17.25379,0,17.25379-22.71816,34.50758-22.71816s17.25379-1.43534,34.50761-1.43534c13.80493,0,13.80493,12.19748,27.60985,12.19748v-1.93133C304.699,104.00538,304.699,91.82,290.89405,91.82c-17.25382,0-17.25382.59558-34.50761.59558s-17.25379,20.41121-34.50758,20.41121c-17.26326,0-17.26326,19.96343-34.5265,19.96343-17.2538,0-17.2538-1.82836-34.50759-1.82836S135.591,114.283,118.33717,114.283,101.08337,103.58632,83.82957,103.58632Z"/>
    <path class="cls-4" d="M187.35236,138.908c17.26324,0,17.26324-18.62461,34.5265-18.62461,17.25379,0,17.25379-28.86,34.50758-28.86s17.25379-31.4078,34.50761-31.4078c13.80493,0,13.80493,27.58951,27.60985,27.58951V31.979c-13.80492,0-13.80492,12.19748-27.60985,12.19748-17.25382,0-17.25382,43.838-34.50761,43.838s-17.25379,30.8704-34.50758,30.8704c-17.26326,0-17.26326,20.023-34.5265,20.023"/>
    <path class="cls-5" d="M221.87886,122.49366c-17.26326,0-17.26326,3.40734-34.5265,3.40734-17.2538,0-17.2538-22.76886-34.50759-22.76886S135.591,20.51768,118.33717,20.51768s-17.2538,13.81175-34.5076,13.81175c-17.26325,0-17.26325,45.53772-34.5265,45.53772-17.25379,0-17.25379,3.13162-34.50759,3.13162-6.89774,0-6.89774.47888-13.79548.47888v21.0574c6.89774,0,6.89774-.82368,13.79548-.82368,17.2538,0,17.2538.23233,34.50759.23233,17.26325,0,17.26325-33.52436,34.5265-33.52436,17.2538,0,17.2538-3.94177,34.5076-3.94177s17.25379,63.49209,34.5076,63.49209,17.25379,1.82836,34.50759,1.82836C204.6156,131.798,204.6156,122.49366,221.87886,122.49366Z"/>
    <path class="cls-6" d="M1,82.48545c6.89774,0,6.89774-.47887,13.79548-.47887,17.2538,0,17.2538-3.13163,34.50759-3.13163,17.26325,0,17.26325,15.90561,34.5265,15.90561,17.2538,0,17.2538,18.51026,34.5076,18.51026s17.25379,21.74968,34.5076,21.74968,17.25379,1.883,34.50759,1.883c17.26324,0,17.26324-15.42209,34.5265-15.42209,17.25379,0,17.25379-24.66119,34.50758-24.66119s17.25379-6.01247,34.50761-6.01247c13.80493,0,13.80493,12.18538,27.60985,12.18538v-3.177c-13.80492,0-13.80492-11.3125-27.60985-11.3125-17.25382,0-17.25382,7.64307-34.50761,7.64307s-17.25379,25.10877-34.50758,25.10877c-17.26326,0-17.26326,15.143-34.5265,15.143-17.2538,0-17.2538-2.13675-34.50759-2.13675S135.591,111.062,118.33717,111.062s-17.2538-39.65046-34.5076-39.65046c-17.26325,0-17.26325-40.41609-34.5265-40.41609-17.25379,0-17.25379.23233-34.50759.23233-6.89774,0-6.89774-.82368-13.79548-.82368Z"/>
    <g>
      <path class="cls-7" d="M1.4961,144.86115v-5.4571H319v5.4571"/>
      <g>
        <line class="cls-7" x1="15.29079" y1="138.90795" x2="15.29079" y2="144.86115"/>
        <text class="cls-8" transform="translate(4.25488 154.88281)">1975</text>
      </g>
      <g>
        <line class="cls-7" x1="49.79839" y1="138.90795" x2="49.79839" y2="144.86115"/>
        <text class="cls-8" transform="translate(38.7627 154.88281)">1980</text>
      </g>
      <g>
        <line class="cls-7" x1="84.32488" y1="138.90795" x2="84.32488" y2="144.86115"/>
        <text class="cls-8" transform="translate(73.28809 154.88281)">1985</text>
      </g>
      <g>
        <line class="cls-7" x1="118.83248" y1="138.90795" x2="118.83248" y2="144.86115"/>
        <text class="cls-8" transform="translate(107.7959 154.88281)">1990</text>
      </g>
      <g>
        <line class="cls-7" x1="153.34008" y1="138.90795" x2="153.34008" y2="144.86115"/>
        <text class="cls-8" transform="translate(142.30371 154.88281)">1995</text>
      </g>
      <g>
        <line class="cls-7" x1="187.84768" y1="138.90795" x2="187.84768" y2="144.86115"/>
        <text class="cls-8" transform="translate(176.81152 154.88281)">2000</text>
      </g>
      <g>
        <line class="cls-7" x1="222.37417" y1="138.90795" x2="222.37417" y2="144.86115"/>
        <text class="cls-8" transform="translate(211.33691 154.88281)">2005</text>
      </g>
      <g>
        <line class="cls-7" x1="256.88175" y1="138.90795" x2="256.88175" y2="144.86115"/>
        <text class="cls-8" transform="translate(245.84473 154.88281)">2010</text>
      </g>
      <g>
        <line class="cls-7" x1="291.38937" y1="138.90795" x2="291.38937" y2="144.86115"/>
        <text class="cls-8" transform="translate(280.35352 154.88281)">2015</text>
      </g>
    </g>
  </g>
</svg>
