<svg id="rawgraphs-icons" xmlns="http://www.w3.org/2000/svg" width="56" height="56" viewBox="0 0 56 56">
  <defs>
    <style>
      .cls-1 {
        fill: #95e5c0;
      }

      .cls-2 {
        fill: #06c26c;
      }
    </style>
  </defs>
  <g id="secundary">
    <path class="cls-1" d="M23.5286,24.4514c1.2226-.9042,2.1708-2.8385,3.027-5.0461C25.4194,16.268,24.0343,14,22,14c-6.6416,0-7.3584,3-14,3v8c6.6416,0,7.3584-1,14-1A2.8974,2.8974,0,0,1,23.5286,24.4514Z"/>
    <path class="cls-1" d="M35,38a11.8359,11.8359,0,0,0-5.2772,1.04C30.9988,42.9069,32.5164,46,35,46c4.7651,0,5.9744-5.1755,8.7442-8.08a17.9385,17.9385,0,0,1-2.57-4.2376C39.9042,35.8521,38.3113,38,35,38Z"/>
    <path class="cls-1" d="M48,36V28a7.1682,7.1682,0,0,0-.9037.0736,5.4882,5.4882,0,0,0-2.8935,1.4053C45.2312,33.1176,46.457,36,48,36Z"/>
  </g>
  <g id="primary">
    <path class="cls-2" d="M8,33c6.6416,0,7.3584,7,14,7,6.6235,0,6.3765-3,13-3s5-10,13-10V15c-6.6235,0-6.3765,11-13,11s-6.3765,9-13,9c-6.6416,0-7.3584-9-14-9Z"/>
    <path class="cls-2" d="M15.7742,29.867C17.5874,32.0847,19.1533,34,22,34a6.2,6.2,0,0,0,.9881-.0869c2.1463-.3934,3.3405-2.0781,4.6959-3.9912q.1486-.21.3-.4224c1.29-2.0409,2.7418-4.0632,5.9826-4.4244A7.6248,7.6248,0,0,1,35,25c2.7355,0,4.0791-2.3177,5.6349-5.0015.0734-.1267.1479-.2547.2224-.3825C39.4494,13.4455,37.87,8,35,8c-6.6235,0-6.3765,18-13,18-2.9321,0-4.7091,1.7546-6.3513,3.714Z"/>
    <path class="cls-2" d="M43.3555,30.1727A17.9405,17.9405,0,0,0,41.7832,32.62C43.2888,35.9017,44.8841,39,48,39V37C45.9127,37,44.5082,34.1176,43.3555,30.1727Z"/>
    <path class="cls-2" d="M10.5426,34.4705A6.2893,6.2893,0,0,1,8,35v4a10.3825,10.3825,0,0,0,6.1459-1.931A11.4313,11.4313,0,0,0,10.5426,34.4705Z"/>
    <polygon class="cls-2" points="46.305 46.805 44.865 46.805 46.061 48 7.5 48 7.5 49 46.061 49 44.865 50.195 46.305 50.195 48 48.5 46.305 46.805"/>
  </g>
</svg>
