<svg id="rawgraphs-icons" xmlns="http://www.w3.org/2000/svg" width="56" height="56" viewBox="0 0 56 56">
  <defs>
    <style>
      .cls-1 {
        fill: #95e5c0;
      }

      .cls-2 {
        fill: #06c26c;
      }
    </style>
  </defs>
  <g id="secundary">
    <polygon class="cls-1" points="24.671 41.145 16.489 37.054 7.706 41.026 7.294 40.114 16.511 35.946 24.329 39.855 32.235 28.076 40.156 23.125 46.1 15.2 46.9 15.8 40.765 23.924 32.856 28.867 24.671 41.145"/>
  </g>
  <g id="primary">
    <polygon class="cls-2" points="46.305 46.805 44.865 46.805 46.061 48 8 48 8 9.939 9.195 11.135 9.195 9.695 7.5 8 5.805 9.695 5.805 11.135 7 9.939 7 49 46.061 49 44.865 50.195 46.305 50.195 48 48.5 46.305 46.805"/>
    <polygon class="cls-2" points="40.639 35 32.312 35 24.34 28.024 16.562 28.996 7.613 31.084 7.387 30.109 16.387 28.013 24.66 26.976 32.687 34 40.361 34 45.243 31.071 45.757 31.929 40.639 35"/>
  </g>
</svg>
