<svg id="Layer_1" data-name="Layer 1" xmlns="http://www.w3.org/2000/svg" width="320" height="160" viewBox="0 0 320 160">
  <defs>
    <style>
      .cls-1 {
        fill: #fff;
      }

      .cls-10, .cls-11, .cls-2, .cls-5, .cls-7, .cls-8, .cls-9 {
        fill: none;
        stroke-linejoin: round;
        stroke-width: 1.5px;
      }

      .cls-2 {
        stroke: #161616;
      }

      .cls-3, .cls-4 {
        font-size: 10px;
      }

      .cls-12, .cls-3, .cls-4, .cls-6 {
        font-family: Helvetica;
      }

      .cls-12, .cls-4, .cls-6 {
        isolation: isolate;
      }

      .cls-5 {
        stroke: #69bda9;
      }

      .cls-10, .cls-11, .cls-5, .cls-7, .cls-8, .cls-9 {
        stroke-linecap: round;
      }

      .cls-12, .cls-6 {
        font-size: 12px;
        fill: #161616;
      }

      .cls-7 {
        stroke: #9e0142;
      }

      .cls-8 {
        stroke: #f0704a;
      }

      .cls-9 {
        stroke: #fedd8d;
      }

      .cls-10 {
        stroke: #e0f3a1;
      }

      .cls-11 {
        stroke: #5e4fa2;
      }

      .cls-12 {
        letter-spacing: -0.0547em;
      }
    </style>
  </defs>
  <rect id="backgorund" class="cls-1" width="320" height="160"/>
  <g id="viz">
    <g>
      <g id="axes">
        <g>
          <path class="cls-2" d="M30.5,150v-5.5h280V150"/>
          <g>
            <line class="cls-2" x1="30" y1="144" x2="30" y2="150"/>
            <text class="cls-3" transform="translate(18.7539 160.1)">1970</text>
          </g>
          <g>
            <line class="cls-2" x1="86.4939" y1="144" x2="86.4939" y2="150"/>
            <text class="cls-4" transform="translate(75.3708 160.1)">1980</text>
          </g>
          <g>
            <line class="cls-2" x1="142.5031" y1="144" x2="142.5031" y2="150"/>
            <text class="cls-4" transform="translate(131.38 160.1)">1990</text>
          </g>
          <g>
            <line class="cls-2" x1="198.4969" y1="144" x2="198.4969" y2="150"/>
            <text class="cls-4" transform="translate(187.3739 160.1)">2000</text>
          </g>
          <g>
            <line class="cls-2" x1="254.5061" y1="144" x2="254.5061" y2="150"/>
            <text class="cls-4" transform="translate(243.3831 160.1)">2010</text>
          </g>
          <g>
            <line class="cls-2" x1="310.5" y1="144" x2="310.5" y2="150"/>
            <text class="cls-4" transform="translate(299.377 160.1)">2020</text>
          </g>
        </g>
        <g>
          <path class="cls-2" d="M24,144.5h6.5V7.5H24"/>
          <g>
            <line class="cls-2" x1="30" y1="144.5" x2="24" y2="144.5"/>
            <text class="cls-3" transform="translate(15.4385 147.7)">0</text>
          </g>
          <g>
            <line class="cls-2" x1="30" y1="132.0455" x2="24" y2="132.0455"/>
            <text class="cls-3" transform="translate(9.877 135.2455)">20</text>
          </g>
          <g>
            <line class="cls-2" x1="30" y1="119.5909" x2="24" y2="119.5909"/>
            <text class="cls-3" transform="translate(9.877 122.7909)">40</text>
          </g>
          <g>
            <line class="cls-2" x1="30" y1="107.1364" x2="24" y2="107.1364"/>
            <text class="cls-3" transform="translate(9.877 110.3364)">60</text>
          </g>
          <g>
            <line class="cls-2" x1="30" y1="94.6818" x2="24" y2="94.6818"/>
            <text class="cls-3" transform="translate(9.877 97.8818)">80</text>
          </g>
          <g>
            <line class="cls-2" x1="30" y1="82.2273" x2="24" y2="82.2273"/>
            <text class="cls-3" transform="translate(4.3154 85.4273)">100</text>
          </g>
          <g>
            <line class="cls-2" x1="30" y1="69.7727" x2="24" y2="69.7727"/>
            <text class="cls-3" transform="translate(4.3154 72.9727)">120</text>
          </g>
          <g>
            <line class="cls-2" x1="30" y1="57.3182" x2="24" y2="57.3182"/>
            <text class="cls-3" transform="translate(4.3154 60.5182)">140</text>
          </g>
          <g>
            <line class="cls-2" x1="30" y1="44.8636" x2="24" y2="44.8636"/>
            <text class="cls-3" transform="translate(4.3154 48.0636)">160</text>
          </g>
          <g>
            <line class="cls-2" x1="30" y1="32.4091" x2="24" y2="32.4091"/>
            <text class="cls-3" transform="translate(4.3154 35.6091)">180</text>
          </g>
          <g>
            <line class="cls-2" x1="30" y1="19.9545" x2="24" y2="19.9545"/>
            <text class="cls-3" transform="translate(4.3154 23.1545)">200</text>
          </g>
          <g>
            <line class="cls-2" x1="30" y1="7.5" x2="24" y2="7.5"/>
            <text class="cls-3" transform="translate(4.3154 10.7)">220</text>
          </g>
        </g>
      </g>
      <g id="viz-2" data-name="viz">
        <g id="Tape">
          <path class="cls-5" d="M46.8043,123.1815s3.7309-.2191,5.5963-.1623,3.7309.8722,5.5963.5032a16.7749,16.7749,0,0,0,5.5964-2.7176,39.0713,39.0713,0,0,0,5.6116-4.6682c1.868-1.8227,3.7309-6.2888,5.5963-6.2679s3.7309,4.672,5.5963,6.3933,3.7284,3.3276,5.5964,3.9346,3.7436-.3541,5.6116-.2927,3.7309,1.4692,5.5963.6609,3.7309-3.3288,5.5964-5.5109,3.7283-6.46,5.5963-7.5821,3.7436.811,5.6116.8477,3.7309.3726,5.5964-.6272,3.7308-3.7015,5.5963-5.3714,3.7283-4.0183,5.5963-4.6477,3.7436.7233,5.6116.8713,3.7309-1.2273,5.5964.017,3.7308,6.3348,5.5963,7.4492,3.7283-1.1926,5.5963-.7633,3.7437,2.7011,5.6117,3.3387,3.7308-.9935,5.5963.4866,3.7309,6.1153,5.5963,8.3942a45.4179,45.4179,0,0,0,5.5963,5.2794c1.868,1.6842,3.7437,3.7482,5.6117,4.8254s3.7309.6671,5.5963,1.6379a38.9481,38.9481,0,0,1,5.5963,4.187c1.8655,1.4933,3.7283,3.55,5.5963,4.7733a24.9565,24.9565,0,0,0,5.6117,2.5633,41.9942,41.9942,0,0,0,5.5963,1.41c1.8654.3885,3.7309.6451,5.5963.9213s3.7284.5975,5.5964.7356,3.7436.0645,5.6116.0929,3.7309.0636,5.5963.0776,3.7309.0024,5.5963.0062,5.5964.0163,5.5964.0163"/>
          <text class="cls-6" transform="translate(127.13 91.6732)">B</text>
        </g>
        <g id="Disc">
          <path class="cls-7" d="M102.7982,143.7251a22.0942,22.0942,0,0,0,5.5963-1.308,19.035,19.035,0,0,0,5.6116-4.18,66.8337,66.8337,0,0,0,5.5964-7.7476c1.8654-2.7617,3.7308-6.3651,5.5963-8.8229a49.9309,49.9309,0,0,1,5.5963-5.9236c1.868-1.8151,3.7436-2.6566,5.6116-4.9666s3.7309-5.9114,5.5964-8.893,3.7308-5.8576,5.5963-8.9971,3.7283-6.3183,5.5963-9.84,3.7437-6.1943,5.6117-11.2908,3.7308-14.8091,5.5963-19.2883,3.7309-5.73,5.5963-7.5865,3.7283-3.2321,5.5963-3.5548,3.7437,3.4369,5.6117,1.6186,3.7309-8.6046,5.5963-12.5285,3.7309-9.3636,5.5963-11.0149,3.7283-.1986,5.5963,1.1074,3.7437,3.94,5.6117,6.7285,3.7309,6.832,5.5963,10.0041,3.7309,7.3579,5.5963,9.0282,3.7284-.9733,5.5964.9937,3.7436,7.0388,5.6116,10.8083,3.7309,7.0463,5.5963,11.8087,3.7309,11.1635,5.5963,16.7658,3.7284,12.6376,5.5964,16.8484,3.7436,5.795,5.6116,8.416,3.7309,5.6253,5.5963,7.31,3.7309,1.5467,5.5963,2.7988,3.7284,3.4926,5.5964,4.7137a41.6052,41.6052,0,0,0,5.6116,2.6128c1.868.8821,3.7309,1.8576,5.5964,2.68s3.7308,1.51,5.5963,2.2536a47.7586,47.7586,0,0,0,5.5963,2.2106c1.868.4731,3.7436.1154,5.6116.6281s3.7309,1.9395,5.5964,2.4481a32.3769,32.3769,0,0,0,5.5963.6037"/>
          <text class="cls-6" transform="translate(188.0676 13.4009)">C</text>
        </g>
        <g id="Download">
          <path class="cls-8" d="M220.3976,142.4535s3.7436-4.0743,5.6116-5.9882,3.7309-3.689,5.5963-5.4954,3.7309-4.2049,5.5963-5.3433a12.8413,12.8413,0,0,1,5.5964-1.4873,40.3869,40.3869,0,0,1,5.6116.1213c1.868.0326,3.7309.2077,5.5963.0747s3.7309-.6649,5.5963-.8733a34.4892,34.4892,0,0,1,5.5964-.3771,20.8728,20.8728,0,0,1,5.6116.9575c1.868.6243,3.7309,2.0485,5.5964,2.7879s3.7308.8287,5.5963,1.6489,3.7283,2.2034,5.5963,3.2723,3.7436,2.1957,5.6116,3.1412a44.15,44.15,0,0,0,5.5964,2.532,49.43,49.43,0,0,0,5.5963,1.2563"/>
          <text class="cls-6" transform="translate(260.8657 117.0849)">E</text>
        </g>
        <g id="Other">
          <path class="cls-9" d="M136.4067,142.5184a44.91,44.91,0,0,1,5.5964-.6172c1.8654.0169,3.7308.6662,5.5963.7183a49.32,49.32,0,0,0,5.5963-.4056c1.868-.1616,3.7437-.4479,5.6117-.564s3.7308-.1406,5.5963-.1325,3.7309.1667,5.5963.1812,3.7283.0576,5.5963-.0943a39.3276,39.3276,0,0,0,5.6117-.8172c1.868-.4276,3.7309-1.6843,5.5963-1.7488s3.7309.9693,5.5963,1.3619a37.0841,37.0841,0,0,0,5.5963.9935c1.868.0978,3.7437-.4035,5.6117-.407s3.7309.4719,5.5963.3858a32.1484,32.1484,0,0,0,5.5963-.9018c1.8655-.4242,3.7284-1.3964,5.5964-1.643a20.74,20.74,0,0,1,5.6116.1638c1.868.2627,3.7309,1.205,5.5963,1.4122s3.7309-.4837,5.5963-.1692,3.7284,1.9469,5.5964,2.0566,3.7436-1.2284,5.6116-1.3982a38.362,38.362,0,0,1,5.5963.3794c1.8655.1044,3.7309.1518,5.5963.247s3.7284.2545,5.5964.3238,3.7436.051,5.6116.092,3.7309.1261,5.5964.1541,3.7308.0017,5.5963.0133,3.7283.0385,5.5963.0565,3.7436.0808,5.6116.0512,3.7309-.2087,5.5964-.2286,5.5963.109,5.5963.109"/>
          <text class="cls-6" transform="translate(215.7306 132.8277)">D</text>
        </g>
        <g id="Streaming">
          <path class="cls-10" d="M220.3976,143.9418s3.7436-1.0195,5.6116-1.3243a55.8679,55.8679,0,0,1,5.5963-.5049c1.8655-.1154,3.7309-.1062,5.5963-.1877s3.7284-.2,5.5964-.3015,3.7436-.1419,5.6116-.3075,3.7309-.3624,5.5963-.6861a36.49,36.49,0,0,0,5.5963-1.2558,54.687,54.687,0,0,0,5.5964-2.5357c1.868-.8859,3.7436-1.9245,5.6116-2.7791s3.7309-1.3958,5.5964-2.3489,3.7308-1.0377,5.5963-3.37,3.7283-7.1,5.5963-10.6222,3.7436-7.1053,5.6116-10.5094,3.7309-6.8811,5.5964-9.9151,5.5963-8.2889,5.5963-8.2889"/>
          <text class="cls-6" transform="translate(300.4017 83.005)">F</text>
        </g>
        <g id="Vinyl">
          <path class="cls-11" d="M46.8043,92.51a41.0066,41.0066,0,0,0,5.5963,1.4363,13.7111,13.7111,0,0,0,5.5963-.1485c1.8655-.5557,3.7284-.8679,5.5964-3.1854s3.7436-8.4926,5.6116-10.7193,3.7309-4.5155,5.5963-2.6413,3.7309,10.6512,5.5963,13.8866a14.4226,14.4226,0,0,0,5.5964,5.5258c1.868,1.2264,3.7436.0146,5.6116,1.8325s3.7309,6.7079,5.5963,9.0748a25.7173,25.7173,0,0,0,5.5964,5.1268c1.8654,1.3533,3.7283,1.6268,5.5963,2.9932a63.47,63.47,0,0,1,5.6116,5.2051c1.868,1.7861,3.7309,3.9882,5.5964,5.5115s3.7308,2.2946,5.5963,3.6284,3.7283,2.7672,5.5963,4.374,3.7436,4.036,5.6116,5.2671a18.5641,18.5641,0,0,0,5.5964,2.1194,34.354,34.354,0,0,0,5.5963,1.1129c1.8654.2162,3.7283.1157,5.5963.1839s3.7437.1911,5.6117.2258,3.7308-.0058,5.5963-.0174,3.7309-.0256,5.5963-.0518,3.7283-.1164,5.5963-.1053,3.7437.1266,5.6117.172,3.7309.0815,5.5963.1,3.7309-.0014,5.5963.0126,3.7283.0643,5.5963.0712,3.7437-.0455,5.6117-.0293,3.7309.101,5.5963.1268,3.7309.0161,5.5963.028,3.7284.0183,5.5964.0434,3.7436.0857,5.6116.107,3.7309.0184,5.5963.0212,3.7309.0354,5.5963-.0044,3.7284-.1865,5.5964-.2341,3.7436-.0138,5.6116-.0513,3.7309-.11,5.5963-.1739,3.7309-.1315,5.5963-.2117,3.7284-.1726,5.5964-.27,3.7436-.2249,5.6116-.3132,3.7309-.08,5.5964-.2162,3.7308-.4823,5.5963-.6012,3.7283-.0646,5.5963-.1121,3.7436-.1225,5.6116-.1728,3.7309-.0322,5.5964-.1286,5.5963-.4494,5.5963-.4494"/>
          <text class="cls-12" transform="translate(70.7993 71.2513)">A</text>
        </g>
      </g>
    </g>
  </g>
</svg>
