<svg id="rawgraphs-icons" xmlns="http://www.w3.org/2000/svg" width="56" height="56" viewBox="0 0 56 56">
  <defs>
    <style>
      .cls-1 {
        fill: #95e5c0;
      }

      .cls-2 {
        fill: #06c26c;
      }
    </style>
  </defs>
  <g id="secundary">
    <path class="cls-1" d="M20.5,34.5A8.5,8.5,0,1,1,29,26,8.51,8.51,0,0,1,20.5,34.5Zm0-16A7.5,7.5,0,1,0,28,26,7.5083,7.5083,0,0,0,20.5,18.5Z"/>
    <path class="cls-1" d="M34.5,30A4.5,4.5,0,1,1,39,25.5,4.505,4.505,0,0,1,34.5,30Zm0-8A3.5,3.5,0,1,0,38,25.5,3.5042,3.5042,0,0,0,34.5,22Z"/>
    <path class="cls-1" d="M31.5,46A7.5,7.5,0,1,1,39,38.5,7.5083,7.5083,0,0,1,31.5,46Zm0-14A6.5,6.5,0,1,0,38,38.5,6.5075,6.5075,0,0,0,31.5,32Z"/>
    <path class="cls-1" d="M31.5,21A4.5,4.5,0,1,1,36,16.5,4.505,4.505,0,0,1,31.5,21Zm0-8A3.5,3.5,0,1,0,35,16.5,3.5042,3.5042,0,0,0,31.5,13Z"/>
    <path class="cls-1" d="M22.5,17A3.5,3.5,0,1,1,26,13.5,3.5042,3.5042,0,0,1,22.5,17Zm0-6A2.5,2.5,0,1,0,25,13.5,2.5026,2.5026,0,0,0,22.5,11Z"/>
  </g>
  <g id="primary">
    <path class="cls-2" d="M28.0933,47.9844a20.5,20.5,0,1,1,20.5-20.5A20.5233,20.5233,0,0,1,28.0933,47.9844Zm0-40a19.5,19.5,0,1,0,19.5,19.5A19.5222,19.5222,0,0,0,28.0933,7.9844Z"/>
    <circle class="cls-2" cx="17.5" cy="25.5" r="3.5"/>
    <circle class="cls-2" cx="24.5" cy="25.5" r="2.5"/>
    <circle class="cls-2" cx="32.5" cy="25.5" r="0.5"/>
    <circle class="cls-2" cx="35.5" cy="25.5" r="1.5"/>
    <circle class="cls-2" cx="28" cy="38" r="2"/>
    <circle class="cls-2" cx="34" cy="38" r="3"/>
    <circle class="cls-2" cx="31.5" cy="16.5" r="2.5"/>
    <circle class="cls-2" cx="22.5" cy="13.5" r="1.5"/>
  </g>
</svg>
