<svg id="Layer_1" data-name="Layer 1" xmlns="http://www.w3.org/2000/svg" width="320" height="160" viewBox="0 0 320 160">
  <defs>
    <style>
      .cls-1 {
        fill: #9e0142;
      }

      .cls-1, .cls-2, .cls-3, .cls-4 {
        stroke: #fff;
      }

      .cls-2 {
        fill: #fdbe70;
      }

      .cls-3 {
        fill: #bee5a0;
      }

      .cls-4 {
        fill: #5e4fa2;
      }
    </style>
  </defs>
  <g id="viz">
    <g id="pie">
      <path class="cls-1" d="M40,12.15253A27.84746,27.84746,0,0,1,63.049,55.62764L40,40Z"/>
      <path class="cls-2" d="M63.049,55.62764a27.84753,27.84753,0,0,1-6.19647,6.54154L40,40Z"/>
      <path class="cls-3" d="M56.85257,62.16918A27.84747,27.84747,0,0,1,13.16757,32.55L40,40Z"/>
      <path class="cls-4" d="M13.16757,32.55A27.84747,27.84747,0,0,1,40,12.15253V40Z"/>
    </g>
    <g id="pie-2" data-name="pie">
      <path class="cls-1" d="M120,10.51994a29.48006,29.48006,0,0,1,7.055,58.10348L120,40Z"/>
      <path class="cls-2" d="M127.055,68.62342A29.48007,29.48007,0,0,1,90.73488,36.44657L120,40Z"/>
      <path class="cls-3" d="M90.73488,36.44657A29.48008,29.48008,0,0,1,106.29993,13.8967L120,40Z"/>
      <path class="cls-4" d="M106.29993,13.8967A29.48,29.48,0,0,1,120,10.51994V40Z"/>
    </g>
    <g id="pie-3" data-name="pie">
      <path class="cls-1" d="M200,10.74759a29.25242,29.25242,0,0,1,22.61242,47.81L200,40Z"/>
      <path class="cls-2" d="M222.61242,58.55754a29.25243,29.25243,0,0,1-48.41075-4.76805L200,40Z"/>
      <path class="cls-3" d="M174.20167,53.78949a29.25244,29.25244,0,0,1,22.93109-42.901L200,40Z"/>
      <path class="cls-4" d="M197.13276,10.88844q1.42931-.14076,2.86724-.14085V40Z"/>
    </g>
    <g id="pie-4" data-name="pie">
      <path class="cls-1" d="M280,14.93194a25.06805,25.06805,0,0,1,15.53592,5.39466L280,40Z"/>
      <path class="cls-2" d="M295.53592,20.3266A25.06806,25.06806,0,1,1,256.607,30.99035L280,40Z"/>
      <path class="cls-3" d="M256.607,30.99035A25.068,25.068,0,0,1,267.2249,18.43141L280,40Z"/>
      <path class="cls-4" d="M267.2249,18.43141A25.068,25.068,0,0,1,280,14.93194V40Z"/>
    </g>
    <g id="pie-5" data-name="pie">
      <path class="cls-1" d="M40,107.33333a12.6667,12.6667,0,0,1,10.96966,6.33334L40,120Z"/>
      <path class="cls-2" d="M50.96966,113.66667a12.66667,12.66667,0,0,1-4.63633,17.303L40,120Z"/>
      <path class="cls-3" d="M46.33333,130.96966a12.66667,12.66667,0,0,1-17.303-17.303L40,120Z"/>
      <path class="cls-4" d="M29.03034,113.66667A12.6667,12.6667,0,0,1,40,107.33333V120Z"/>
    </g>
    <g id="pie-6" data-name="pie">
      <path class="cls-1" d="M120,82a38,38,0,0,1,36.4036,48.89852L120,120Z"/>
      <path class="cls-2" d="M156.4036,130.89852a38,38,0,0,1-15.52226,20.85L120,120Z"/>
      <path class="cls-3" d="M140.88134,151.74854a38,38,0,0,1-56.58966-44.74531L120,120Z"/>
      <path class="cls-4" d="M84.29168,107.00323A38,38,0,0,1,120,82v38Z"/>
    </g>
    <g id="pie-7" data-name="pie">
      <path class="cls-1" d="M200,94.93194a25.06806,25.06806,0,0,1,1.67436,50.08014L200,120Z"/>
      <path class="cls-2" d="M201.67436,145.01208a25.06806,25.06806,0,0,1-11.46066-48.091L200,120Z"/>
      <path class="cls-3" d="M190.2137,96.9211a25.068,25.068,0,0,1,6.44506-1.76549L200,120Z"/>
      <path class="cls-4" d="M196.65876,95.15561A25.069,25.069,0,0,1,200,94.93194V120Z"/>
    </g>
    <g id="pie-8" data-name="pie">
      <path class="cls-1" d="M280,89.40709a30.59291,30.59291,0,0,1,8.13884,60.08334L280,120Z"/>
      <path class="cls-2" d="M288.13884,149.49043a30.59291,30.59291,0,0,1-23.82992-55.75287L280,120Z"/>
      <path class="cls-3" d="M264.30892,93.73756a30.59275,30.59275,0,0,1,10.22851-3.83882L280,120Z"/>
      <path class="cls-4" d="M274.53743,89.89874A30.59179,30.59179,0,0,1,280,89.40709V120Z"/>
    </g>
  </g>
</svg>
