<svg id="rawgraphs-icons" xmlns="http://www.w3.org/2000/svg" width="56" height="56" viewBox="0 0 56 56">
  <defs>
    <style>
      .cls-1 {
        fill: #95e5c0;
      }

      .cls-2 {
        fill: #06c26c;
      }
    </style>
  </defs>
  <g id="secundary">
    <path class="cls-1" d="M46.5,11V10a16.5921,16.5921,0,0,0-9.2656,2.5674A15.49,15.49,0,0,1,28.5,15v.5l-.0107-.5c-4.7373.1006-7.0948,3.48-9.3741,6.75C16.873,24.9639,14.7559,28,10.5,28v1c4.1914,0,6.31,4.2373,8.5527,8.7236C21.333,42.2842,23.6914,47,28.5,47h18V46h-18c-4.1914,0-6.31-4.2373-8.5527-8.7236C18.6091,34.6,17.24,31.8778,15.3685,30.079a17.68,17.68,0,0,1,3.8,2.7945C21.45,34.9023,23.81,37,28.5,37a23.7614,23.7614,0,0,1,8.8193,1.4717A25.01,25.01,0,0,0,46.5,40V39a23.88,23.88,0,0,1-8.8643-1.4766,31.9956,31.9956,0,0,0-3.1731-.9251c1.1684-.1783,2.159-.3938,3.1233-.6086A35.3274,35.3274,0,0,1,46.5,35V34a36.1757,36.1757,0,0,0-9.1309,1.0137A34.7618,34.7618,0,0,1,28.5,36c-4.31,0-6.4268-1.8818-8.668-3.8735A16.691,16.691,0,0,0,15.13,28.8706c1.6782-.1031,2.9668-.2536,4.2171-.4028A57.2912,57.2912,0,0,1,28.4922,28l.0078-.5V28h18V27H28.5078a59.012,59.012,0,0,0-9.28.4746c-1.3172.1573-2.6679.317-4.4952.4185,2.1915-1.266,3.7161-3.4392,5.2032-5.5713C22.1693,19.1177,24.28,16.0919,28.507,16a15.4916,15.4916,0,0,1,8.7274,2.4324A16.5921,16.5921,0,0,0,46.5,21V20a15.5584,15.5584,0,0,1-8.7793-2.4409A23.5,23.5,0,0,0,34.5081,16H46.5V15H34.5081a23.5,23.5,0,0,0,3.2126-1.5591A15.5584,15.5584,0,0,1,46.5,11Z"/>
  </g>
  <g id="primary">
    <circle class="cls-2" cx="10.5" cy="28.5" r="1.5"/>
    <circle class="cls-2" cx="46.5" cy="10.5" r="1.5"/>
    <circle class="cls-2" cx="46.5" cy="15.5" r="1.5"/>
    <circle class="cls-2" cx="46.5" cy="20.5" r="1.5"/>
    <circle class="cls-2" cx="46.5" cy="27.5" r="1.5"/>
    <circle class="cls-2" cx="28.5" cy="27.5" r="1.5"/>
    <circle class="cls-2" cx="28.5" cy="36.5" r="1.5"/>
    <circle class="cls-2" cx="28.5" cy="46.5" r="1.5"/>
    <circle class="cls-2" cx="28.5" cy="15.5" r="1.5"/>
    <circle class="cls-2" cx="46.5" cy="34.5" r="1.5"/>
    <circle class="cls-2" cx="46.5" cy="39.5" r="1.5"/>
    <circle class="cls-2" cx="46.5" cy="46.5" r="1.5"/>
  </g>
</svg>
