<svg id="rawgraphs-icons" xmlns="http://www.w3.org/2000/svg" width="56" height="56" viewBox="0 0 56 56">
  <defs>
    <style>
      .cls-1 {
        fill: #95e5c0;
      }

      .cls-2 {
        fill: #06c26c;
      }
    </style>
  </defs>
  <g id="secundary">
    <path class="cls-1" d="M48,18V12c-4,0-4-3-8-3s-4,6-8,6-4,3-8,3Z"/>
    <path class="cls-1" d="M11.2476,30.78C12.3657,25.8057,13.4258,22,16,22c2.7388,0,3.8662,3.6631,4.9565,7.2061.1539.5.3077.999.4649,1.4863L21.5206,31H32c-4,0-4-5-8-5-1.6895,0-2.665-2.3207-3.53-5H12.2233C11.1431,25.8076,10.1485,31,8,31h3.1982Z"/>
    <path class="cls-1" d="M40,41c2.0234,0,3.1045,2.0664,3.7412,3.6211L43.8966,45H48c-2.7537,0-3.6119-6.1607-5.1843-10h-5.73C35.5755,38.5543,34.6954,44,32,44c-2.0786,0-3.0771-4.59-4.118-9H18.6439c-.6781,1.1745-1.496,2-2.6439,2-4,0-4,8-8,8h9.4893l.2885-.5A23.6038,23.6038,0,0,0,19.07,41.6289C20.126,38.99,21.3228,36,24,36c2.7861,0,3.8379,4.459,4.855,8.77l.0541.23h7.09l.1664-.3916C36.8242,43.06,37.938,41,40,41Z"/>
  </g>
  <g id="primary">
    <path class="cls-2" d="M24,37c-2.8521,0-3.6713,5.082-5.3561,8H27.882C26.92,40.9232,25.9214,37,24,37Z"/>
    <path class="cls-2" d="M40,42c-1.3046,0-2.1827,1.28-2.9139,3h5.73C42.1041,43.2624,41.2463,42,40,42Z"/>
    <path class="cls-2" d="M16,23c-1.8515,0-2.8458,3.8572-3.7767,8H20.47C19.2868,27.3359,18.3105,23,16,23Z"/>
    <polygon class="cls-2" points="46.305 46.805 44.865 46.805 46.061 48 7.5 48 7.5 49 46.061 49 44.865 50.195 46.305 50.195 48 48.5 46.305 46.805"/>
  </g>
</svg>
