<svg id="Layer_1" data-name="Layer 1" xmlns="http://www.w3.org/2000/svg" xmlns:xlink="http://www.w3.org/1999/xlink" width="320" height="160" viewBox="0 0 320 160">
  <defs>
    <style>
      .cls-1, .cls-11 {
        fill: none;
      }

      .cls-2 {
        fill: #fff;
      }

      .cls-3 {
        clip-path: url(#clip-path);
      }

      .cls-4 {
        fill: #69bda9;
      }

      .cls-4, .cls-5 {
        opacity: 0.5;
      }

      .cls-12, .cls-4, .cls-5 {
        isolation: isolate;
      }

      .cls-5 {
        fill: #9e0142;
      }

      .cls-6 {
        clip-path: url(#clip-path-2);
      }

      .cls-7 {
        clip-path: url(#clip-path-3);
      }

      .cls-8 {
        clip-path: url(#clip-path-4);
      }

      .cls-9 {
        clip-path: url(#clip-path-5);
      }

      .cls-10 {
        clip-path: url(#clip-path-6);
      }

      .cls-11 {
        stroke: #000;
      }

      .cls-12 {
        font-size: 10px;
        font-family: Helvetica;
      }
    </style>
    <clipPath id="clip-path">
      <rect class="cls-1" x="15" width="304" height="23.0441"/>
    </clipPath>
    <clipPath id="clip-path-2">
      <rect class="cls-1" x="15" y="23.9912" width="304" height="23.0441"/>
    </clipPath>
    <clipPath id="clip-path-3">
      <rect class="cls-1" x="15" y="47.9823" width="304" height="23.0441"/>
    </clipPath>
    <clipPath id="clip-path-4">
      <rect class="cls-1" x="15" y="71.9735" width="304" height="23.0441"/>
    </clipPath>
    <clipPath id="clip-path-5">
      <rect class="cls-1" x="15" y="95.9647" width="304" height="23.0441"/>
    </clipPath>
    <clipPath id="clip-path-6">
      <rect class="cls-1" x="15" y="119.9558" width="304" height="23.0441"/>
    </clipPath>
  </defs>
  <rect id="backgorund" class="cls-2" width="320" height="160"/>
  <g id="areas">
    <g class="cls-3">
      <g id="a">
        <g id="positive">
          <path class="cls-4" d="M15-23.0441C25.1333-10.7495,35.2667,1.5452,45.4,6.7235s20.2667,3.24,30.4,2.404,20.2667-.5707,30.4-1.8546S126.4667,3.1553,136.6.922,156.8667-2.9446,167,.9006s20.2667,13.1687,30.4,14.8542,20.2667-4.2671,30.4-4.4754,20.2667,5.3277,30.4,2.1973S278.4667-1.45,288.6-4.5908,308.8667-2.2154,319,3.3005V23.0441H15Z"/>
          <path class="cls-4" d="M15,0C25.1333,12.2947,35.2667,24.5894,45.4,29.7677s20.2667,3.24,30.4,2.4039,20.2667-.5706,30.4-1.8546,20.2667-4.1175,30.4-6.3509S156.8667,20.1,167,23.9448s20.2667,13.1687,30.4,14.8541,20.2667-4.2671,30.4-4.4754,20.2667,5.3277,30.4,2.1973,20.2667-14.927,30.4-18.0675,20.2667,2.3755,30.4,7.8913V46.0883H15Z"/>
        </g>
        <g id="negative">
          <path class="cls-5" d="M15-46.0883C25.1333-33.7936,35.2667-21.4989,45.4-16.3206s20.2667,3.24,30.4,2.4039,20.2667-.5706,30.4-1.8546,20.2667-4.1175,30.4-6.3509,20.2667-3.8665,30.4-.0213S187.2667-8.9748,197.4-7.2894s20.2667-4.2671,30.4-4.4754,20.2667,5.3277,30.4,2.1973,20.2667-14.927,30.4-18.0675,20.2667,2.3755,30.4,7.8913V0H15Z"/>
        </g>
      </g>
    </g>
    <g class="cls-6">
      <g id="b">
        <g id="positive-2" data-name="positive">
          <path class="cls-4" d="M15,23.3378C25.1333,21.2589,35.2667,19.18,45.4,25.593S65.6667,46.9106,75.8,48.8246s20.2667-9.1628,30.4-11.6762,20.2667,3.5367,30.4,6.4143S156.8667,46.1452,167,40.65s20.2667-16.1922,30.4-15.5971,20.2667,12.4815,30.4,20.1714,20.2667,11.1833,30.4,9.734,20.2667-7.8411,30.4-14.1531S308.8667,28.26,319,22.0281V47.0353H15Z"/>
          <path class="cls-4" d="M15,46.382c10.1333-2.0789,20.2667-4.1578,30.4,2.2551S65.6667,69.9548,75.8,71.8687s20.2667-9.1628,30.4-11.6761,20.2667,3.5367,30.4,6.4142,20.2667,2.5826,30.4-2.9132,20.2667-16.1921,30.4-15.5971S217.6667,60.578,227.8,68.268s20.2667,11.1832,30.4,9.734,20.2667-7.8411,30.4-14.1532S308.8667,51.3045,319,45.0723V70.08H15Z"/>
        </g>
        <g id="negative-2" data-name="negative">
          <path class="cls-5" d="M15,.2937C25.1333-1.7852,35.2667-3.8641,45.4,2.5488S65.6667,23.8665,75.8,25.78s20.2667-9.1628,30.4-11.6761,20.2667,3.5367,30.4,6.4142,20.2667,2.5826,30.4-2.9132S187.2667,1.4132,197.4,2.0082,217.6667,14.49,227.8,22.18s20.2667,11.1832,30.4,9.734,20.2667-7.8411,30.4-14.1532S308.8667,5.2162,319-1.016V23.9912H15Z"/>
          <path class="cls-5" d="M15-22.75c10.1333-2.0789,20.2667-4.1577,30.4,2.2552S65.6667.8223,75.8,2.7363,96.0667-6.4265,106.2-8.94s20.2667,3.5367,30.4,6.4143S156.8667.0569,167-5.4388s20.2667-16.1922,30.4-15.5971S217.6667-8.5544,227.8-.8645s20.2667,11.1833,30.4,9.734,20.2667-7.8411,30.4-14.1531S308.8667-17.8279,319-24.06V.947H15Z"/>
        </g>
      </g>
    </g>
    <g class="cls-7">
      <g id="c">
        <g id="positive-3" data-name="positive">
          <path class="cls-4" d="M15,38.9249C25.1333,56.7657,35.2667,74.6065,45.4,78.6433s20.2667-5.73,30.4-9.0552,20.2667-.2074,30.4-4.4695S126.4667,49.215,136.6,48.08s20.2667,8.2371,30.4,9.2625,20.2667-6.2956,30.4-10.4326,20.2667-5.09,30.4,2.3365S248.0667,72.48,258.2,76.0882s20.2667-4.9824,30.4-10.0493,20.2667-6.61,30.4-8.154V71.0265H15Z"/>
          <path class="cls-4" d="M15,61.9691C25.1333,79.81,35.2667,97.6506,45.4,101.6875s20.2667-5.73,30.4-9.0552,20.2667-.2075,30.4-4.47,20.2667-15.9036,30.4-17.0384,20.2667,8.2372,30.4,9.2626,20.2667-6.2956,30.4-10.4327,20.2667-5.09,30.4,2.3366,20.2667,23.2334,30.4,26.8415S278.4667,94.15,288.6,89.083s20.2667-6.61,30.4-8.1539V94.0706H15Z"/>
        </g>
        <g id="negative-3" data-name="negative">
          <path class="cls-5" d="M15,15.8808C25.1333,33.7216,35.2667,51.5623,45.4,55.5992s20.2667-5.73,30.4-9.0552,20.2667-.2075,30.4-4.47,20.2667-15.9036,30.4-17.0384,20.2667,8.2372,30.4,9.2626,20.2667-6.2956,30.4-10.4327,20.2667-5.09,30.4,2.3366,20.2667,23.2334,30.4,26.8415,20.2667-4.9823,30.4-10.0493,20.2667-6.61,30.4-8.1539V47.9823H15Z"/>
          <path class="cls-5" d="M15-7.1634C25.1333,10.6774,35.2667,28.5182,45.4,32.555s20.2667-5.73,30.4-9.0552,20.2667-.2074,30.4-4.4695S126.4667,3.1267,136.6,1.9919s20.2667,8.2371,30.4,9.2625S187.2667,4.9588,197.4.8218s20.2667-5.09,30.4,2.3365S248.0667,26.3918,258.2,30s20.2667-4.9824,30.4-10.0493,20.2667-6.6105,30.4-8.154V24.9382H15Z"/>
        </g>
      </g>
    </g>
    <g class="cls-8">
      <g id="d">
        <g id="positive-4" data-name="positive">
          <path class="cls-4" d="M15,105.0326C25.1333,94.9538,35.2667,84.875,45.4,80.0953s20.2667-4.26,30.4-6.6391,20.2667-7.6555,30.4-4.022,20.2667,16.1776,30.4,22.2983S156.8667,97.5506,167,97.37s20.2667-.2376,30.4-1.78a99.8407,99.8407,0,0,0,30.4-9.7c10.1333-5.1313,20.2667-12.3673,30.4-11.66s20.2667,9.3586,30.4,7.32S308.8667,66.7851,319,54.0576v40.96H15Z"/>
          <path class="cls-4" d="M15,128.0767c10.1333-10.0788,20.2667-20.1575,30.4-24.9372s20.2667-4.26,30.4-6.6392,20.2667-7.6555,30.4-4.0219,20.2667,16.1776,30.4,22.2983,20.2667,5.818,30.4,5.6379,20.2667-.2377,30.4-1.78a99.8409,99.8409,0,0,0,30.4-9.7c10.1333-5.1313,20.2667-12.3672,30.4-11.66s20.2667,9.3585,30.4,7.32S308.8667,89.8293,319,77.1018v40.96H15Z"/>
        </g>
        <g id="negative-4" data-name="negative">
          <path class="cls-5" d="M15,81.9884C25.1333,71.91,35.2667,61.8309,45.4,57.0512s20.2667-4.26,30.4-6.6391,20.2667-7.6556,30.4-4.022,20.2667,16.1776,30.4,22.2983,20.2667,5.818,30.4,5.6379,20.2667-.2377,30.4-1.78a99.8409,99.8409,0,0,0,30.4-9.7c10.1333-5.1313,20.2667-12.3672,30.4-11.66s20.2667,9.3585,30.4,7.32S308.8667,43.741,319,31.0135v40.96H15Z"/>
          <path class="cls-5" d="M15,58.9443C25.1333,48.8655,35.2667,38.7867,45.4,34.007s20.2667-4.26,30.4-6.6391,20.2667-7.6555,30.4-4.0219,20.2667,16.1775,30.4,22.2982,20.2667,5.8181,30.4,5.638,20.2667-.2377,30.4-1.78a99.8407,99.8407,0,0,0,30.4-9.7c10.1333-5.1313,20.2667-12.3673,30.4-11.66s20.2667,9.3586,30.4,7.32S308.8667,20.6969,319,7.9693v40.96H15Z"/>
        </g>
      </g>
    </g>
    <g class="cls-9">
      <g id="e">
        <g id="positive-5" data-name="positive">
          <path class="cls-4" d="M15,100.075c10.1333.3285,20.2667.6571,30.4,3.0845s20.2667,6.9536,30.4,8.0448,20.2667-1.2526,30.4,3.015,20.2667,15.1466,30.4,13.1642,20.2667-16.8262,30.4-17.4265,20.2667,13.0427,30.4,17.9,20.2667.9277,30.4-4.7273,20.2667-13.0358,30.4-10.231,20.2667,15.7953,30.4,13.4734,20.2667-19.9559,30.4-37.59v30.227H15Z"/>
          <path class="cls-4" d="M15,123.1191c10.1333.3286,20.2667.6571,30.4,3.0845s20.2667,6.9537,30.4,8.0449,20.2667-1.2527,30.4,3.0149,20.2667,15.1466,30.4,13.1642,20.2667-16.8261,30.4-17.4265,20.2667,13.0428,30.4,17.9,20.2667.9277,30.4-4.7273,20.2667-13.0358,30.4-10.231,20.2667,15.7953,30.4,13.4735,20.2667-19.956,30.4-37.59v30.227H15Z"/>
        </g>
        <g id="negative-5" data-name="negative">
          <path class="cls-5" d="M15,77.0308c10.1333.3286,20.2667.6571,30.4,3.0845S65.6667,87.069,75.8,88.16s20.2667-1.2527,30.4,3.0149,20.2667,15.1466,30.4,13.1642S156.8667,87.5132,167,86.9128s20.2667,13.0428,30.4,17.9,20.2667.9277,30.4-4.7273,20.2667-13.0358,30.4-10.231,20.2667,15.7953,30.4,13.4735,20.2667-19.956,30.4-37.59v30.227H15Z"/>
          <path class="cls-5" d="M15,53.9867c10.1333.3285,20.2667.6571,30.4,3.0845s20.2667,6.9536,30.4,8.0448,20.2667-1.2526,30.4,3.015,20.2667,15.1466,30.4,13.1642S156.8667,64.469,167,63.8687s20.2667,13.0427,30.4,17.9,20.2667.9277,30.4-4.7273,20.2667-13.0358,30.4-10.231,20.2667,15.7953,30.4,13.4734,20.2667-19.9559,30.4-37.59v30.227H15Z"/>
        </g>
      </g>
    </g>
    <g class="cls-10">
      <g id="f">
        <g id="positive-6" data-name="positive">
          <path class="cls-4" d="M15,167.2834c10.1333,9.3126,20.2667,18.6252,30.4,14.9864s20.2667-20.2291,30.4-29.5753,20.2667-11.4483,30.4-7.6977,20.2667,13.3537,30.4,12.28,20.2667-12.8235,30.4-12.1255,20.2667,13.8442,30.4,16.2806,20.2667-5.8367,30.4-6.8938,20.2667,5.1019,30.4,5.0833,20.2667-6.2148,30.4-7.7862,20.2667,1.482,30.4,4.5354V143H15Z"/>
        </g>
        <g id="negative-6" data-name="negative">
          <path class="cls-5" d="M15,144.2393c10.1333,9.3126,20.2667,18.6252,30.4,14.9863S65.6667,138.9965,75.8,129.65s20.2667-11.4482,30.4-7.6977,20.2667,13.3538,30.4,12.28,20.2667-12.8235,30.4-12.1254,20.2667,13.8441,30.4,16.2806,20.2667-5.8367,30.4-6.8938,20.2667,5.1018,30.4,5.0833,20.2667-6.2148,30.4-7.7862,20.2667,1.482,30.4,4.5354v-13.371H15Z"/>
          <path class="cls-5" d="M15,121.1951c10.1333,9.3126,20.2667,18.6252,30.4,14.9864s20.2667-20.2291,30.4-29.5753,20.2667-11.4483,30.4-7.6977,20.2667,13.3537,30.4,12.28S156.8667,98.3653,167,99.0633s20.2667,13.8442,30.4,16.2806,20.2667-5.8367,30.4-6.8938,20.2667,5.1019,30.4,5.0833,20.2667-6.2148,30.4-7.7862,20.2667,1.482,30.4,4.5354V96.9117H15Z"/>
        </g>
      </g>
    </g>
    <g id="axis">
      <g>
        <path class="cls-11" d="M15.5.5v143"/>
        <g>
          <line class="cls-11" x1="15" y1="11.5221" x2="9" y2="11.5221"/>
          <text class="cls-12" transform="translate(0.4385 14.722)">a</text>
        </g>
        <g>
          <line class="cls-11" x1="15" y1="35.5132" x2="9" y2="35.5132"/>
          <text class="cls-12" transform="translate(0.4385 38.7133)">b</text>
        </g>
        <g>
          <line class="cls-11" x1="15" y1="59.5044" x2="9" y2="59.5044"/>
          <text class="cls-12" transform="translate(1 62.7044)">c</text>
        </g>
        <g>
          <line class="cls-11" x1="15" y1="83.4956" x2="9" y2="83.4956"/>
          <text class="cls-12" transform="translate(0.4385 86.6956)">d</text>
        </g>
        <g>
          <line class="cls-11" x1="15" y1="107.4868" x2="9" y2="107.4868"/>
          <text class="cls-12" transform="translate(0.4385 110.6868)">e</text>
        </g>
        <g>
          <line class="cls-11" x1="15" y1="131.4779" x2="9" y2="131.4779"/>
          <text class="cls-12" transform="translate(3.2217 134.6779)">f</text>
        </g>
      </g>
      <g>
        <path class="cls-11" d="M15.5,143.5h304"/>
        <g>
          <line class="cls-11" x1="15.5" y1="143" x2="15.5" y2="149"/>
          <text class="cls-12" transform="translate(12.7192 159.1)">0</text>
        </g>
        <g>
          <line class="cls-11" x1="45.9" y1="143" x2="45.9" y2="149"/>
          <text class="cls-12" transform="translate(43.1192 159.1)">1</text>
        </g>
        <g>
          <line class="cls-11" x1="76.3" y1="143" x2="76.3" y2="149"/>
          <text class="cls-12" transform="translate(73.5192 159.1)">2</text>
        </g>
        <g>
          <line class="cls-11" x1="106.7" y1="143" x2="106.7" y2="149"/>
          <text class="cls-12" transform="translate(103.9192 159.1)">3</text>
        </g>
        <g>
          <line class="cls-11" x1="137.1" y1="143" x2="137.1" y2="149"/>
          <text class="cls-12" transform="translate(134.3192 159.1)">4</text>
        </g>
        <g>
          <line class="cls-11" x1="167.5" y1="143" x2="167.5" y2="149"/>
          <text class="cls-12" transform="translate(164.7192 159.1)">5</text>
        </g>
        <g>
          <line class="cls-11" x1="197.9" y1="143" x2="197.9" y2="149"/>
          <text class="cls-12" transform="translate(195.1192 159.1)">6</text>
        </g>
        <g>
          <line class="cls-11" x1="228.3" y1="143" x2="228.3" y2="149"/>
          <text class="cls-12" transform="translate(225.5192 159.1)">7</text>
        </g>
        <g>
          <line class="cls-11" x1="258.7" y1="143" x2="258.7" y2="149"/>
          <text class="cls-12" transform="translate(255.9193 159.1)">8</text>
        </g>
        <g>
          <line class="cls-11" x1="289.1" y1="143" x2="289.1" y2="149"/>
          <text class="cls-12" transform="translate(286.3192 159.1)">9</text>
        </g>
        <g>
          <line class="cls-11" x1="319.5" y1="143" x2="319.5" y2="149"/>
          <text class="cls-12" transform="translate(307.8159 159.1)">10</text>
        </g>
      </g>
    </g>
  </g>
</svg>
