<svg id="rawgraphs-icons" xmlns="http://www.w3.org/2000/svg" width="56" height="56" viewBox="0 0 56 56">
  <defs>
    <style>
      .cls-1 {
        fill: #95e5c0;
      }

      .cls-2 {
        fill: #06c26c;
      }
    </style>
  </defs>
  <g id="secundary">
    <path class="cls-1" d="M44.7314,23.7588l-5-11a3,3,0,0,0-5.7275,1.0835l-1,19A3,3,0,0,0,38.4,34.8l6-8A3.0018,3.0018,0,0,0,44.7314,23.7588ZM36,34a1,1,0,1,1,1-1A1.0013,1.0013,0,0,1,36,34Zm1-19a1,1,0,1,1,1-1A1.0013,1.0013,0,0,1,37,15Zm5,11a1,1,0,1,1,1-1A1.0013,1.0013,0,0,1,42,26Z"/>
  </g>
  <g id="primary">
    <polygon class="cls-2" points="46.305 46.805 44.865 46.805 46.061 48 8 48 8 9.939 9.195 11.135 9.195 9.695 7.5 8 5.805 9.695 5.805 11.135 7 9.939 7 49 46.061 49 44.865 50.195 46.305 50.195 48 48.5 46.305 46.805"/>
    <path class="cls-2" d="M27.8066,24.605a3.0043,3.0043,0,0,0-2.6308-.49l-7,2a3.0008,3.0008,0,0,0-2.168,2.6709l-1,14A3,3,0,0,0,19.8,45.4l8-6A2.9984,2.9984,0,0,0,29,37V27A2.9986,2.9986,0,0,0,27.8066,24.605ZM18,44a1,1,0,1,1,1-1A1.0013,1.0013,0,0,1,18,44Zm1-14a1,1,0,1,1,1-1A1.0013,1.0013,0,0,1,19,30Zm7,8a1,1,0,1,1,1-1A1.0013,1.0013,0,0,1,26,38Zm0-10a1,1,0,1,1,1-1A1.0013,1.0013,0,0,1,26,28Z"/>
  </g>
</svg>
