<?xml version="1.0" encoding="utf-8"?>
<!-- Generator: Adobe Illustrator 25.1.0, SVG Export Plug-In . SVG Version: 6.00 Build 0)  -->
<svg version="1.1" id="Layer_1" xmlns="http://www.w3.org/2000/svg" xmlns:xlink="http://www.w3.org/1999/xlink" x="0px" y="0px"
	 viewBox="0 0 320 160" style="enable-background:new 0 0 320 160;" xml:space="preserve">
<style type="text/css">
	.st0{opacity:0.5;fill:#1F77B4;stroke:#1F77B4;stroke-width:10;stroke-linejoin:round;enable-background:new    ;}
	.st1{fill:#1F77B4;}
	.st2{opacity:0.5;fill:#FF7F0E;stroke:#FF7F0E;stroke-width:10;stroke-linejoin:round;enable-background:new    ;}
	.st3{fill:#FF7F0E;}
	.st4{fill:none;stroke:#000000;}
	.st5{font-family:'Helvetica';}
	.st6{font-size:15.0329px;}
</style>
<g id="visualization" transform="translate(100,50)">
	<g id="viz">
		<g>
			<path class="st0" d="M184.2,40l-6-45.1H103L92.5,35.5l3,15L184.2,40z"/>
			<g>
				<circle class="st1" cx="103" cy="-5.1" r="3"/>
				<circle class="st1" cx="178.1" cy="-5.1" r="3"/>
				<circle class="st1" cx="116.5" cy="18.9" r="3"/>
				<circle class="st1" cx="179.6" cy="18.9" r="3"/>
				<circle class="st1" cx="92.5" cy="35.5" r="3"/>
				<circle class="st1" cx="95.5" cy="50.5" r="3"/>
				<circle class="st1" cx="184.2" cy="40" r="3"/>
				<circle class="st1" cx="116.5" cy="41.5" r="3"/>
			</g>
		</g>
		<g>
			<path class="st2" d="M66.9,39.2L15.8,16.7l-54.1,51.1l3,10.5L66.9,39.2z"/>
			<g>
				<circle class="st3" cx="-35.3" cy="78.3" r="3"/>
				<circle class="st3" cx="-38.3" cy="67.8" r="3"/>
				<circle class="st3" cx="-35.3" cy="78.3" r="3"/>
				<circle class="st3" cx="15.8" cy="16.6" r="3"/>
				<circle class="st3" cx="35.3" cy="51.3" r="3"/>
				<circle class="st3" cx="66.9" cy="39.2" r="3"/>
				<circle class="st3" cx="5.5" cy="47.5" r="3"/>
				<circle class="st3" cx="20.3" cy="54.3" r="3"/>
			</g>
		</g>
	</g>
	<g id="labels">
		<g transform="translate(2,51)">
		</g>
		<g transform="translate(101,0)">
		</g>
		<g transform="translate(85,13)">
		</g>
		<g transform="translate(5,43)">
		</g>
		<g transform="translate(151,0)">
		</g>
		<g transform="translate(3,54)">
		</g>
		<g transform="translate(4,43)">
		</g>
		<g transform="translate(6,57)">
		</g>
		<g transform="translate(5,55)">
		</g>
		<g transform="translate(110,16)">
		</g>
		<g transform="translate(1,51)">
		</g>
		<g transform="translate(27,38)">
		</g>
		<g transform="translate(4,50)">
		</g>
		<g transform="translate(152,16)">
		</g>
		<g transform="translate(5,51)">
		</g>
		<g transform="translate(2,54)">
		</g>
		<g transform="translate(19,39)">
		</g>
		<g transform="translate(64,24)">
		</g>
		<g transform="translate(2,52)">
		</g>
		<g transform="translate(49,38)">
		</g>
		<g transform="translate(6,57)">
		</g>
		<g transform="translate(94,27)">
		</g>
		<g transform="translate(40,36)">
		</g>
		<g transform="translate(10,48)">
		</g>
		<g transform="translate(32,42)">
		</g>
		<g transform="translate(108,24)">
		</g>
		<g transform="translate(81,28)">
		</g>
		<g transform="translate(53,39)">
		</g>
		<g transform="translate(1,54)">
		</g>
		<g transform="translate(74,31)">
		</g>
		<g transform="translate(4,57)">
		</g>
		<g transform="translate(0,54)">
		</g>
		<g transform="translate(96,37)">
		</g>
		<g transform="translate(155,30)">
		</g>
		<g transform="translate(1,57)">
		</g>
		<g transform="translate(3,51)">
		</g>
		<g transform="translate(23,45)">
		</g>
		<g transform="translate(40,40)">
		</g>
		<g transform="translate(40,41)">
		</g>
		<g transform="translate(64,33)">
		</g>
		<g transform="translate(64,29)">
		</g>
		<g transform="translate(40,40)">
		</g>
		<g transform="translate(43,41)">
		</g>
		<g transform="translate(64,40)">
		</g>
		<g transform="translate(85,31)">
		</g>
		<g transform="translate(110,31)">
		</g>
		<g transform="translate(14,50)">
		</g>
		<g transform="translate(85,34)">
		</g>
		<g transform="translate(76,32)">
		</g>
		<g transform="translate(2,55)">
		</g>
	</g>
	<g id="axis">
		<g transform="translate(0,60)">
			<path class="st4" d="M-48.1,34.1v-8.3h255.6v8.3"/>
			<g transform="translate(0.5,0)">
				<line class="st4" x1="-48.6" y1="25.1" x2="-48.6" y2="34.1"/>
				<text transform="matrix(1 0 0 1 -52.7808 49.2707)" class="st5 st6">0</text>
			</g>
			<g transform="translate(21.5,0)">
				<line class="st4" x1="-38" y1="25.1" x2="-38" y2="34.1"/>
				<text transform="matrix(1 0 0 1 -46.3911 49.2707)" class="st5 st6">50</text>
			</g>
			<g transform="translate(43.5,0)">
				<line class="st4" x1="-27" y1="25.1" x2="-27" y2="34.1"/>
				<text transform="matrix(1 0 0 1 -39.4995 49.2707)" class="st5 st6">100</text>
			</g>
			<g transform="translate(64.5,0)">
				<line class="st4" x1="-16.4" y1="25.1" x2="-16.4" y2="34.1"/>
				<text transform="matrix(1 0 0 1 -28.9302 49.2707)" class="st5 st6">150</text>
			</g>
			<g transform="translate(85.5,0)">
				<line class="st4" x1="-5.8" y1="25.1" x2="-5.8" y2="34.1"/>
				<text transform="matrix(1 0 0 1 -18.3613 49.2707)" class="st5 st6">200</text>
			</g>
			<g transform="translate(106.5,0)">
				<line class="st4" x1="4.7" y1="25.1" x2="4.7" y2="34.1"/>
				<text transform="matrix(1 0 0 1 -7.793 49.2707)" class="st5 st6">250</text>
			</g>
			<g transform="translate(128.5,0)">
				<line class="st4" x1="15.8" y1="25.1" x2="15.8" y2="34.1"/>
				<text transform="matrix(1 0 0 1 3.2793 49.2707)" class="st5 st6">300</text>
			</g>
			<g transform="translate(149.5,0)">
				<line class="st4" x1="26.4" y1="25.1" x2="26.4" y2="34.1"/>
				<text transform="matrix(1 0 0 1 13.8496 49.2707)" class="st5 st6">350</text>
			</g>
			<g transform="translate(170.5,0)">
				<line class="st4" x1="37" y1="25.1" x2="37" y2="34.1"/>
				<text transform="matrix(1 0 0 1 24.418 49.2707)" class="st5 st6">400</text>
			</g>
		</g>
		<path class="st4" d="M-57.9,85.8h9.8V-39.8h-9.8"/>
		<line class="st4" x1="-48.9" y1="85.8" x2="-57.9" y2="85.8"/>
		<text transform="matrix(1 0 0 1 -70.7417 90.6301)" class="st5 st6">0</text>
		<line class="st4" x1="-48.9" y1="67" x2="-57.9" y2="67"/>
		<text transform="matrix(1 0 0 1 -87.4624 72.694)" class="st5 st6">400</text>
		<line class="st4" x1="-48.9" y1="50.2" x2="-57.9" y2="50.2"/>
		<text transform="matrix(1 0 0 1 -87.4624 54.758)" class="st5 st6">800</text>
		<line class="st4" x1="-48.9" y1="31.4" x2="-57.9" y2="31.4"/>
		<text transform="matrix(1 0 0 1 -100.0005 36.822)" class="st5 st6">1,200</text>
		<line class="st4" x1="-48.9" y1="14.6" x2="-57.9" y2="14.6"/>
		<text transform="matrix(1 0 0 1 -100.0005 18.8857)" class="st5 st6">1,600</text>
		<line class="st4" x1="-48.9" y1="-4.2" x2="-57.9" y2="-4.2"/>
		<text transform="matrix(1 0 0 1 -100.0005 0.9496)" class="st5 st6">2,000</text>
		<line class="st4" x1="-48.9" y1="-21" x2="-57.9" y2="-21"/>
		<text transform="matrix(1 0 0 1 -100.0005 -16.9861)" class="st5 st6">2,400</text>
		<line class="st4" x1="-48.9" y1="-39.8" x2="-57.9" y2="-39.8"/>
		<text transform="matrix(1 0 0 1 -100.0005 -34.922)" class="st5 st6">2,800</text>
	</g>
</g>
</svg>
