<svg id="Layer_1" data-name="Layer 1" xmlns="http://www.w3.org/2000/svg" viewBox="0 0 320 160"><defs><style>.cls-1{fill:#fff;}.cls-2{fill:#69bda9;}.cls-3{fill:#5e4fa2;}.cls-4{fill:#9e0142;}.cls-5{fill:#fedd8d;}.cls-6{fill:#f0704a;}.cls-7{fill:#e0f3a1;}.cls-8{fill:none;stroke:#000;}.cls-9{isolation:isolate;font-size:10px;font-family:Helvetica;}</style></defs><rect id="backgorund" class="cls-1" width="320" height="160"/><g id="viz"><g id="Tape"><rect class="cls-2" x="29" y="119.6" width="31.11" height="20.4"/><rect class="cls-2" x="61.11" y="116.51" width="31.11" height="23.49"/><rect class="cls-2" x="93.22" y="104.76" width="31.11" height="35.24"/><rect class="cls-2" x="125.33" y="94.87" width="31.11" height="45.13"/><rect class="cls-2" x="157.44" y="113.42" width="31.11" height="26.58"/><rect class="cls-2" x="189.55" y="134.44" width="31.11" height="5.56"/></g><g id="Vinyl"><rect class="cls-3" x="29" y="69.53" width="31.11" height="50.07"/><rect class="cls-3" x="61.11" y="69.53" width="31.11" height="46.98"/><rect class="cls-3" x="93.22" y="81.89" width="31.11" height="22.87"/><rect class="cls-3" x="125.33" y="92.4" width="31.11" height="2.47"/><rect class="cls-3" x="157.44" y="112.8" width="31.11" height="0.62"/><rect class="cls-3" x="253.78" y="139.38" width="31.11" height="0.62"/><rect class="cls-3" x="285.89" y="137.53" width="31.11" height="2.47"/></g><g id="Disc"><rect class="cls-4" x="93.22" y="76.33" width="31.11" height="5.56"/><rect class="cls-4" x="125.33" y="50.36" width="31.11" height="42.04"/><rect class="cls-4" x="157.44" y="14.51" width="31.11" height="98.29"/><rect class="cls-4" x="189.55" y="12.04" width="31.11" height="122.4"/><rect class="cls-4" x="221.67" y="54.69" width="31.11" height="85.31"/><rect class="cls-4" x="253.78" y="114.65" width="31.11" height="24.73"/><rect class="cls-4" x="285.89" y="127.64" width="31.11" height="9.89"/></g><g id="Other"><rect class="cls-5" x="125.33" y="48.51" width="31.11" height="1.85"/><rect class="cls-5" x="157.44" y="12.04" width="31.11" height="2.47"/><rect class="cls-5" x="189.55" y="9.56" width="31.11" height="2.47"/><rect class="cls-5" x="221.67" y="49.75" width="31.11" height="4.95"/><rect class="cls-5" x="253.78" y="112.18" width="31.11" height="2.47"/><rect class="cls-5" x="285.89" y="125.78" width="31.11" height="1.85"/></g><g id="Download"><rect class="cls-6" x="221.67" y="41.71" width="31.11" height="8.04"/><rect class="cls-6" x="253.78" y="93.02" width="31.11" height="19.16"/><rect class="cls-6" x="285.89" y="110.33" width="31.11" height="15.45"/></g><g id="Streaming"><rect class="cls-7" x="221.67" y="40.47" width="31.11" height="1.24"/><rect class="cls-7" x="253.78" y="89.93" width="31.11" height="3.09"/><rect class="cls-7" x="285.89" y="94.87" width="31.11" height="15.45"/></g><g id="xAxis"><path class="cls-8" d="M28.5,140.5h290"/><line class="cls-8" x1="44.55" y1="140" x2="44.55" y2="146"/><text class="cls-9" transform="translate(41.77 156.1)">a</text><line class="cls-8" x1="76.67" y1="140" x2="76.67" y2="146"/><text class="cls-9" transform="translate(73.88 156.1)">b</text><line class="cls-8" x1="108.78" y1="140" x2="108.78" y2="146"/><text class="cls-9" transform="translate(106.28 156.1)">c</text><line class="cls-8" x1="140.89" y1="140" x2="140.89" y2="146"/><text class="cls-9" transform="translate(138.11 156.1)">d</text><line class="cls-8" x1="173" y1="140" x2="173" y2="146"/><text class="cls-9" transform="translate(170.22 156.1)">e</text><line class="cls-8" x1="205.11" y1="140" x2="205.11" y2="146"/><text class="cls-9" transform="translate(203.72 156.1)">f</text><line class="cls-8" x1="237.22" y1="140" x2="237.22" y2="146"/><text class="cls-9" transform="translate(234.44 156.1)">g</text><line class="cls-8" x1="269.33" y1="140" x2="269.33" y2="146"/><text class="cls-9" transform="translate(266.55 156.1)">h</text><line class="cls-8" x1="301.45" y1="140" x2="301.45" y2="146"/><text class="cls-9" transform="translate(300.34 156.1)">i</text></g><g id="yAxis"><path class="cls-8" d="M28.5,140.5V4.5"/><line class="cls-8" x1="28" y1="140.5" x2="22" y2="140.5"/><text class="cls-9" transform="translate(13.44 143.7)">0</text><line class="cls-8" x1="28" y1="128.14" x2="22" y2="128.14"/><text class="cls-9" transform="translate(7.88 131.34)">20</text><line class="cls-8" x1="28" y1="115.77" x2="22" y2="115.77"/><text class="cls-9" transform="translate(7.88 118.97)">40</text><line class="cls-8" x1="28" y1="103.41" x2="22" y2="103.41"/><text class="cls-9" transform="translate(7.88 106.61)">60</text><line class="cls-8" x1="28" y1="91.05" x2="22" y2="91.05"/><text class="cls-9" transform="translate(7.88 94.25)">80</text><line class="cls-8" x1="28" y1="78.68" x2="22" y2="78.68"/><text class="cls-9" transform="translate(2.32 81.88)">100</text><line class="cls-8" x1="28" y1="66.32" x2="22" y2="66.32"/><text class="cls-9" transform="translate(2.32 69.52)">120</text><line class="cls-8" x1="28" y1="53.95" x2="22" y2="53.95"/><text class="cls-9" transform="translate(2.32 57.15)">140</text><line class="cls-8" x1="28" y1="41.59" x2="22" y2="41.59"/><text class="cls-9" transform="translate(2.32 44.79)">160</text><line class="cls-8" x1="28" y1="29.23" x2="22" y2="29.23"/><text class="cls-9" transform="translate(2.32 32.43)">180</text><line class="cls-8" x1="28" y1="16.86" x2="22" y2="16.86"/><text class="cls-9" transform="translate(2.32 20.06)">200</text><line class="cls-8" x1="28" y1="4.5" x2="22" y2="4.5"/><text class="cls-9" transform="translate(2.32 7.7)">220</text></g></g></svg>