<svg id="rawgraphs-icons" xmlns="http://www.w3.org/2000/svg" width="56" height="56" viewBox="0 0 56 56">
  <defs>
    <style>
      .cls-1 {
        fill: #95e5c0;
      }

      .cls-2 {
        fill: #06c26c;
      }
    </style>
  </defs>
  <g id="secundary">
    <path class="cls-1" d="M25,19.79l-6.5-3.7143L12,19.79v7.42l6.5,3.7143L25,27.21ZM17,20a1,1,0,1,1,1-1A1,1,0,0,1,17,20Z"/>
    <path class="cls-1" d="M9,29.5043V41.4957l2.5,1.4286L18,39.21V31.79l-6.5-3.7143ZM16,35a1,1,0,1,1-1,1A1,1,0,0,1,16,35Z"/>
    <path class="cls-1" d="M26,43.79V47H39V43.79l-6.5-3.7143ZM34,43a1,1,0,1,1-1,1A1,1,0,0,1,34,43Z"/>
  </g>
  <g id="primary">
    <polygon class="cls-2" points="46.305 46.805 44.865 46.805 46.061 48 8 48 8 9.939 9.195 11.135 9.195 9.695 7.5 8 5.805 9.695 5.805 11.135 7 9.939 7 49 46.061 49 44.865 50.195 46.305 50.195 48 48.5 46.305 46.805"/>
    <path class="cls-2" d="M32,31.79l-6.5-3.7143L19,31.79v7.42l6.5,3.7143L32,39.21ZM21,33a1,1,0,1,1,1,1A1,1,0,0,1,21,33Zm2,6a1,1,0,1,1,1-1A1,1,0,0,1,23,39Zm3-5a1,1,0,1,1,1,1A1,1,0,0,1,26,34Zm2,6a1,1,0,1,1,1-1A1,1,0,0,1,28,40Z"/>
    <path class="cls-2" d="M32.5,16.0757,26,19.79v7.42l6.5,3.7143L39,27.21V19.79ZM28,22a1,1,0,1,1,1-1A1,1,0,0,1,28,22Zm5,0a1,1,0,1,1,1-1A1,1,0,0,1,33,22Zm3,5a1,1,0,1,1,1-1A1,1,0,0,1,36,27Z"/>
  </g>
</svg>
