<svg id="Layer_1" data-name="Layer 1" xmlns="http://www.w3.org/2000/svg" width="320" height="160" viewBox="0 0 320 160">
  <defs>
    <style>
      .cls-1, .cls-2, .cls-3, .cls-4, .cls-5, .cls-6, .cls-7 {
        fill: none;
      }

      .cls-1 {
        stroke: #5e4fa2;
      }

      .cls-1, .cls-2, .cls-3, .cls-4, .cls-5, .cls-6 {
        stroke-miterlimit: 10;
        stroke-width: 0.5px;
      }

      .cls-2 {
        stroke: #9e0142;
      }

      .cls-3 {
        stroke: #69bda9;
      }

      .cls-4 {
        stroke: #e0f3a1;
      }

      .cls-5 {
        stroke: #fedd8d;
      }

      .cls-6 {
        stroke: #f0704a;
      }

      .cls-7 {
        stroke: #000;
      }

      .cls-8 {
        isolation: isolate;
        font-size: 12.0609px;
        font-family: ArialMT, Arial;
      }
    </style>
  </defs>
  <g>
    <path class="cls-1" d="M28.65,150.6186l96.5822-60.3047,96.5822,57.8516,96.5821,2.4531"/>
    <path class="cls-1" d="M28.65,146.5983l96.5822-50.2539,96.5822,44.4619,96.5821,3.7818"/>
    <path class="cls-1" d="M28.65,146.5983l96.5822-56.2844,96.5822,52.9455,96.5821,1.3287"/>
    <path class="cls-1" d="M28.65,146.5983l96.5822-68.3454,96.5822,65.0065,96.5821,1.3287"/>
    <path class="cls-1" d="M28.65,142.578l96.5822-10.0508,96.5822,10.7322,96.5821-4.7018"/>
    <path class="cls-1" d="M28.65,138.5576l96.5822-54.2742,96.5822,54.07,96.5821,6.2349"/>
    <path class="cls-1" d="M28.65,138.5576,125.2325,66.192l96.5822,74.6143,96.5821-2.2487"/>
    <path class="cls-2" d="M28.65,138.5576l96.5822-84.4265,96.5822,96.4875,96.5821-6.03"/>
    <path class="cls-1" d="M28.65,138.5576l96.5822-60.3047,96.5822,62.5534,96.5821,3.7818"/>
    <path class="cls-1" d="M28.65,134.5373l96.5822-56.2844,96.5822,65.0065,96.5821,1.3287"/>
    <path class="cls-1" d="M28.65,134.5373l96.5822-56.2844L221.8147,135.9l96.5821,8.688"/>
    <path class="cls-2" d="M28.65,130.517l96.5822-64.325L221.8147,135.9l96.5821,8.688"/>
    <path class="cls-1" d="M28.65,130.517l96.5822-40.2031,96.5822,50.4924,96.5821,9.8123"/>
    <path class="cls-2" d="M28.65,130.517l96.5822-64.325,96.5822,62.3489,96.5821,16.0472"/>
    <path class="cls-2" d="M28.65,130.517l96.5822-46.2336L221.8147,135.9l96.5821,8.688"/>
    <path class="cls-1" d="M28.65,130.517l96.5822-40.2031,96.5822,50.4924,96.5821-2.2487"/>
    <path class="cls-2" d="M28.65,126.4967l96.5822-36.1828,96.5822,50.4924,96.5821,3.7818"/>
    <path class="cls-2" d="M28.65,126.4967l96.5822-42.2133,96.5822,54.07,96.5821,12.2654"/>
    <path class="cls-2" d="M28.65,126.4967l96.5822-42.2133,96.5822,54.07,96.5821,12.2654"/>
    <path class="cls-2" d="M28.65,126.4967l96.5822-42.2133,96.5822,54.07,96.5821,12.2654"/>
    <path class="cls-1" d="M28.65,126.4967h96.5822l96.5822-32.2988,96.5821,2.1465"/>
    <path class="cls-1" d="M28.65,126.4967l96.5822-6.0305L221.8147,64.761l96.5821-10.63"/>
    <path class="cls-2" d="M28.65,122.4764l96.5822-68.3453,96.5822,86.6752,96.5821,3.7818"/>
    <path class="cls-2" d="M28.65,122.4764,125.2325,66.192l96.5822,72.1612,96.5821,6.2349"/>
    <path class="cls-2" d="M28.65,122.4764l96.5822-32.1625L221.8147,135.9l96.5821,8.688"/>
    <path class="cls-2" d="M28.65,122.4764,125.2325,66.192,221.8147,135.9l96.5821-3.3729"/>
    <path class="cls-2" d="M28.65,122.4764l96.5822-44.2235,96.5822,67.46,96.5821-1.1243"/>
    <path class="cls-2" d="M28.65,122.4764l96.5822-62.3149,96.5822,83.0979,96.5821-4.7018"/>
    <path class="cls-2" d="M28.65,122.4764l96.5822-62.3149L221.8147,135.9l96.5821-15.4339"/>
    <path class="cls-2" d="M28.65,122.4764l96.5822-50.2539,96.5822,68.5838,96.5821,3.7818"/>
    <path class="cls-1" d="M28.65,122.4764l96.5822,28.1422,96.5822-61.3268,96.5821,7.0526"/>
    <path class="cls-1" d="M28.65,122.4764l96.5822,10.0508,96.5822-38.3293,96.5821,2.1465"/>
    <path class="cls-2" d="M28.65,118.4561l96.5822-58.2946,96.5822,80.6448,96.5821,3.7818"/>
    <path class="cls-2" d="M28.65,118.4561l96.5822-58.2946,96.5822,80.6448,96.5821-2.2487"/>
    <path class="cls-2" d="M28.65,118.4561,125.2325,42.07l96.5822,96.2831,96.5821.2044"/>
    <path class="cls-2" d="M28.65,118.4561l96.5822-70.3555,96.5822,90.2526,96.5821-5.826"/>
    <path class="cls-2" d="M28.65,118.4561l96.5822-46.2336,96.5822,61.2246,96.5821-6.95"/>
    <path class="cls-2" d="M28.65,118.4561,125.2325,66.192l96.5822,72.1612,96.5821,6.2349"/>
    <path class="cls-2" d="M28.65,118.4561,125.2325,42.07l96.5822,86.4708,96.5821,3.9863"/>
    <path class="cls-2" d="M28.65,118.4561,125.2325,42.07l96.5822,93.83,96.5821,8.688"/>
    <path class="cls-1" d="M28.65,118.4561l96.5822,2.01,96.5822-18.9091,96.5821-11.2432"/>
    <path class="cls-2" d="M28.65,114.4358l96.5822-54.2743,96.5822,78.1917,96.5821,6.2349"/>
    <path class="cls-2" d="M28.65,114.4358,125.2325,66.192l96.5822,74.6143,96.5821,3.7818"/>
    <path class="cls-2" d="M28.65,114.4358l96.5822-90.4571,96.5822,114.3745,96.5821,12.2654"/>
    <path class="cls-3" d="M28.65,114.4358l96.5822-6.0305L221.8147,79.48l96.5821-7.257"/>
    <path class="cls-2" d="M28.65,110.4154l96.5822-62.3148,96.5822,90.2526,96.5821,6.2349"/>
    <path class="cls-2" d="M28.65,106.3951,125.2325,36.04l96.5822,97.4074,96.5821-.92"/>
    <path class="cls-2" d="M28.65,106.3951l96.5822-58.2945,96.5822,90.2526,96.5821,6.2349"/>
    <path class="cls-2" d="M28.65,106.3951,125.2325,36.04l96.5822,107.22,96.5821-10.7322"/>
    <path class="cls-2" d="M28.65,106.3951,125.2325,66.192l96.5822,67.2551,96.5821,11.141"/>
    <path class="cls-2" d="M28.65,106.3951,125.2325,66.192l96.5822,72.1612,96.5821-5.826"/>
    <path class="cls-3" d="M28.65,106.3951l96.5822-16.0812L221.8147,64.761l96.5821,1.431"/>
    <path class="cls-2" d="M28.65,102.3748l96.5822-84.4266,96.5822,122.8581,96.5821,3.7818"/>
    <path class="cls-2" d="M28.65,102.3748l96.5822-42.2133,96.5822,83.0979,96.5821,1.3287"/>
    <path class="cls-3" d="M28.65,102.3748l96.5822,30.1524,96.5822-55.5008,96.5821,1.2265"/>
    <path class="cls-3" d="M28.65,102.3748l96.5822,24.1219,96.5822-44.5642,96.5821,8.3814"/>
    <path class="cls-1" d="M28.65,102.3748l96.5822,24.1219,96.5822-42.1111,96.5821,11.9588"/>
    <path class="cls-3" d="M28.65,102.3748l96.5822,18.0914,96.5822-43.44,96.5821,1.2265"/>
    <path class="cls-3" d="M28.65,102.3748l96.5822,12.061,96.5822-47.2217,96.5821,17.0693"/>
    <path class="cls-3" d="M28.65,98.3545l96.5822-2.01,96.5822-9.5057,96.5821-8.5858"/>
    <path class="cls-3" d="M28.65,98.3545l96.5822-8.0406L221.8147,64.761l96.5821,1.431"/>
    <path class="cls-3" d="M28.65,98.3545l96.5822,22.1117L221.8147,79.48l96.5821,10.8344"/>
    <path class="cls-3" d="M28.65,98.3545l96.5822-8.0406,96.5822-15.7406,96.5821,3.68"/>
    <path class="cls-3" d="M28.65,98.3545l96.5822,10.0508L221.8147,72.12l96.5821,6.1326"/>
    <path class="cls-4" d="M28.65,98.3545l96.5822,4.02,96.5822-47.426L318.3968,36.04"/>
    <path class="cls-2" d="M28.65,94.3342,125.2325,5.8873l96.5822,132.4659,96.5821-5.826"/>
    <path class="cls-2" d="M28.65,94.3342,125.2325,42.07l96.5822,91.377,96.5821,5.1105"/>
    <path class="cls-3" d="M28.65,94.3342l96.5822,8.0406L221.8147,64.761l96.5821,13.4919"/>
    <path class="cls-1" d="M28.65,94.3342l96.5822,20.1016,96.5822-25.144,96.5821,7.0526"/>
    <path class="cls-3" d="M28.65,94.3342l96.5822-4.02L221.8147,72.12l96.5821,12.1631"/>
    <path class="cls-3" d="M28.65,94.3342l96.5822,2.01L221.8147,72.12l96.5821,6.1326"/>
    <path class="cls-3" d="M28.65,94.3342l96.5822,8.0406,96.5822-27.8015,96.5821,3.68"/>
    <path class="cls-4" d="M28.65,94.3342l96.5822,26.132,96.5822-67.97L318.3968,36.04"/>
    <path class="cls-2" d="M28.65,90.3139l96.5822-60.3047,96.5822,115.7032,96.5821-1.1243"/>
    <path class="cls-3" d="M28.65,90.3139l96.5822,18.0914,96.5822-33.832,96.5821,21.7711"/>
    <path class="cls-3" d="M28.65,90.3139l96.5822,18.0914L221.8147,79.48l96.5821,4.8039"/>
    <path class="cls-3" d="M28.65,90.3139l96.5822,24.1219,96.5822-37.4094,96.5821,7.257"/>
    <path class="cls-4" d="M28.65,90.3139l96.5822,18.0914,96.5822-58.3627L318.3968,42.07"/>
    <path class="cls-5" d="M28.65,90.3139l96.5822,12.0609,96.5822-52.3322,96.5821-38.1248"/>
    <path class="cls-4" d="M28.65,90.3139l96.5822,18.0914,96.5822-58.3627L318.3968,42.07"/>
    <path class="cls-3" d="M28.65,86.2936l96.5822,4.02L221.8147,72.12l96.5821-5.9283"/>
    <path class="cls-4" d="M28.65,86.2936l96.5822-8.0407,96.5822-20.8511,96.5821-9.3012"/>
    <path class="cls-4" d="M28.65,86.2936l96.5822,4.02,96.5822-40.2713,96.5821-1.942"/>
    <path class="cls-3" d="M28.65,82.2733l96.5822,56.2843,96.5822-61.5312,96.5821,19.318"/>
    <path class="cls-3" d="M28.65,82.2733l96.5822,14.0711L221.8147,64.761l96.5821,1.431"/>
    <path class="cls-4" d="M28.65,82.2733l96.5822,26.132,96.5822-58.3627,96.5821,10.1189"/>
    <path class="cls-3" d="M28.65,82.2733,125.2325,66.192l96.5822-1.431,96.5821-4.5995"/>
    <path class="cls-4" d="M28.65,82.2733l96.5822,56.2843,96.5822-86.0619L318.3968,66.192"/>
    <path class="cls-4" d="M28.65,82.2733l96.5822,8.0406,96.5822-32.9121,96.5821-9.3012"/>
    <path class="cls-3" d="M28.65,78.2529l96.5822,18.0915,96.5822-36.4895,96.5821,12.3676"/>
    <path class="cls-3" d="M28.65,78.2529l96.5822,24.1219,96.5822-25.3484,96.5821,1.2265"/>
    <path class="cls-3" d="M28.65,78.2529l96.5822,24.1219,96.5822-42.52,96.5821,24.4285"/>
    <path class="cls-3" d="M28.65,78.2529l96.5822,12.061L221.8147,62.308l96.5821,9.9145"/>
    <path class="cls-4" d="M28.65,78.2529l96.5822,12.061,96.5822-35.3651,96.5821-6.8482"/>
    <path class="cls-4" d="M28.65,78.2529l96.5822,36.1829,96.5822-76.6586,96.5821,34.4453"/>
    <path class="cls-3" d="M28.65,74.2326l96.5822,64.325L221.8147,64.761l96.5821,1.431"/>
    <path class="cls-3" d="M28.65,74.2326l96.5822,22.1118,96.5822-26.6772,96.5821,8.5857"/>
    <path class="cls-4" d="M28.65,74.2326l96.5822,28.1422,96.5822-44.973,96.5821-9.3012"/>
    <path class="cls-5" d="M28.65,74.2326l96.5822-8.0406,96.5822-23.5086,96.5821-24.7352"/>
    <path class="cls-3" d="M28.65,70.2123l96.5822,2.01,96.5822-12.3676,96.5821.3066"/>
    <path class="cls-3" d="M28.65,70.2123l96.5822,50.2539,96.5822-65.5174L318.3968,66.192"/>
    <path class="cls-3" d="M28.65,70.2123l96.5822,62.3149,96.5822-65.3131,96.5821,11.0388"/>
    <path class="cls-6" d="M28.65,70.2123l96.5822,2.01L221.8147,27.965,318.3968,5.8873"/>
    <path class="cls-4" d="M28.65,70.2123l96.5822,26.1321,96.5822-58.5672,96.5821,10.3234"/>
    <path class="cls-4" d="M28.65,70.2123l96.5822,38.193,96.5822-53.4565,96.5821-6.8482"/>
    <path class="cls-4" d="M28.65,70.2123l96.5822,32.1625,96.5822-52.3322L318.3968,66.192"/>
    <path class="cls-5" d="M28.65,70.2123l96.5822-4.02,96.5822-28.4148,96.5821-25.8594"/>
    <path class="cls-4" d="M28.65,70.2123l96.5822,50.2539,96.5822-67.97L318.3968,42.07"/>
    <path class="cls-3" d="M28.65,66.192l96.5822,12.0609L221.8147,64.761l96.5821,1.431"/>
    <path class="cls-3" d="M28.65,66.192l96.5822,30.1524,96.5822-26.6772,96.5821,8.5857"/>
    <path class="cls-4" d="M28.65,66.192l96.5822,42.2133,96.5822-63.2688L318.3968,42.07"/>
    <path class="cls-5" d="M28.65,66.192l96.5822,12.0609,96.5822-33.1164,96.5821-27.1883"/>
    <path class="cls-5" d="M28.65,66.192l96.5822,36.1828,96.5822-64.5976,96.5821-7.768"/>
    <path class="cls-5" d="M28.65,66.192l96.5822,36.1828,96.5822-64.5976,96.5821-13.7985"/>
    <path class="cls-4" d="M28.65,66.192l96.5822,18.0914L221.8147,40.23l96.5821,7.87"/>
    <path class="cls-3" d="M28.65,62.1717l96.5822,40.2031L221.8147,62.308l96.5821,3.884"/>
    <path class="cls-5" d="M28.65,62.1717l96.5822,28.1422,96.5822-57.4428,96.5821-8.8924"/>
    <path class="cls-4" d="M28.65,62.1717l96.5822,16.0812,96.5822-28.21L318.3968,36.04"/>
    <path class="cls-4" d="M28.65,62.1717l96.5822,28.1422L221.8147,40.23l96.5821,7.87"/>
    <path class="cls-4" d="M28.65,62.1717l96.5822,28.1422L221.8147,47.59l96.5821-11.55"/>
    <path class="cls-3" d="M28.65,58.1514l96.5822,38.193L221.8147,62.308l96.5821,15.9449"/>
    <path class="cls-3" d="M28.65,58.1514l96.5822,32.1625,96.5822-23.1,96.5821,5.0084"/>
    <path class="cls-3" d="M28.65,54.1311l96.5822,30.1523,96.5822-17.0693,96.5821,5.0084"/>
    <path class="cls-4" d="M28.65,54.1311l96.5822,36.1828,96.5822-37.8182,96.5821,1.6354"/>
    <path class="cls-3" d="M28.65,54.1311l96.5822,30.1523,96.5822-24.4285,96.5821,6.3371"/>
    <path class="cls-5" d="M28.65,54.1311l96.5822,66.3351,96.5822-87.5951,96.5821,15.23"/>
    <path class="cls-5" d="M28.65,54.1311l96.5822,18.0914,96.5822-36.8983,96.5821-5.315"/>
    <path class="cls-5" d="M28.65,54.1311l96.5822,30.1523,96.5822-46.5062,96.5821-25.8594"/>
    <path class="cls-6" d="M28.65,54.1311l96.5822,18.0914,96.5822-36.8983L318.3968,5.8873"/>
    <path class="cls-5" d="M28.65,54.1311l96.5822,36.1828L221.8147,47.59l96.5821-29.6413"/>
    <path class="cls-3" d="M28.65,50.1107l96.5822,52.2641,96.5822-44.973,96.5821,14.8207"/>
    <path class="cls-5" d="M28.65,50.1107l96.5822,40.2032L221.8147,40.23l96.5821-10.2211"/>
    <path class="cls-6" d="M28.65,50.1107l96.5822,28.1422L221.8147,30.418l96.5821-12.47"/>
    <path class="cls-3" d="M28.65,46.09l96.5822,38.193,96.5822-29.3346L318.3968,66.192"/>
    <path class="cls-5" d="M28.65,46.09l96.5822,32.1625,96.5822-42.9287,96.5821-17.376"/>
    <path class="cls-5" d="M28.65,46.09l96.5822,38.193,96.5822-41.6,96.5821-12.6742"/>
    <path class="cls-5" d="M28.65,46.09l96.5822,38.193,96.5822-34.2408,96.5821-32.0944"/>
    <path class="cls-3" d="M28.65,42.07l96.5822,36.1828,96.5822-18.398,96.5821,12.3676"/>
    <path class="cls-5" d="M28.65,38.05l96.5822,52.2641L221.8147,30.418l96.5821-.4088"/>
    <path class="cls-6" d="M28.65,34.03l96.5822,20.1016,96.5822-28.6192L318.3968,5.8873"/>
    <path class="cls-5" d="M28.65,34.03l96.5822,44.2234L221.8147,27.965l96.5821,20.1356"/>
    <path class="cls-4" d="M28.65,34.03l96.5822,56.2844,96.5822-57.4428,96.5821,27.29"/>
    <path class="cls-5" d="M28.65,30.0092l96.5822,66.3352,96.5822-75.7387,96.5821,27.4949"/>
    <path class="cls-5" d="M28.65,25.9889l96.5822,76.3859,96.5822-76.8629L318.3968,42.07"/>
    <path class="cls-6" d="M28.65,17.9482l96.5822,72.3657,96.5822-77.0674,96.5821,16.7627"/>
    <path class="cls-6" d="M28.65,13.9279,125.2325,42.07l96.5822-31.2767,96.5821,13.1853"/>
    <path class="cls-6" d="M28.65,13.9279l96.5822,100.5079L221.8147,5.8873l96.5821,12.0609"/>
    <path class="cls-6" d="M28.65,13.9279l96.5822,88.4469,96.5822-91.5814L318.3968,36.04"/>
    <path class="cls-6" d="M28.65,13.9279l96.5822,76.386,96.5822-64.802,96.5821-7.5637"/>
    <path class="cls-6" d="M28.65,5.8873,125.2325,42.07l96.5822-23.9174L318.3968,36.04"/>
    <g>
      <path class="cls-7" d="M21.4066,151.2216H29.254V6.49H21.4066"/>
      <line class="cls-7" x1="28.6503" y1="123.0794" x2="21.4066" y2="123.0794"/>
      <line class="cls-7" x1="28.6503" y1="82.8763" x2="21.4066" y2="82.8763"/>
      <line class="cls-7" x1="28.6503" y1="42.6732" x2="21.4066" y2="42.6732"/>
      <path class="cls-7" d="M117.9888,151.2216h7.8473V6.49"/>
      <line class="cls-7" x1="125.2325" y1="151.2216" x2="117.9888" y2="151.2216"/>
      <line class="cls-7" x1="125.2325" y1="90.9169" x2="117.9888" y2="90.9169"/>
      <line class="cls-7" x1="125.2325" y1="30.6122" x2="117.9888" y2="30.6122"/>
      <line class="cls-7" x1="125.2325" y1="60.7646" x2="117.9888" y2="60.7646"/>
      <line class="cls-7" x1="125.8361" y1="6.4903" x2="118.5925" y2="6.4903"/>
      <line class="cls-7" x1="125.2325" y1="121.0693" x2="117.9888" y2="121.0693"/>
      <path class="cls-7" d="M214.571,151.2216h7.8473V6.49H214.571"/>
      <line class="cls-7" x1="221.8147" y1="151.2216" x2="214.571" y2="151.2216"/>
      <line class="cls-7" x1="221.8147" y1="126.6909" x2="214.571" y2="126.6909"/>
      <line class="cls-7" x1="221.8147" y1="102.1602" x2="214.571" y2="102.1602"/>
      <line class="cls-7" x1="221.8147" y1="77.6295" x2="214.571" y2="77.6295"/>
      <line class="cls-7" x1="221.8147" y1="53.0987" x2="214.571" y2="53.0987"/>
      <line class="cls-7" x1="221.8147" y1="28.568" x2="214.571" y2="28.568"/>
      <path class="cls-7" d="M311.1532,151.2216h7.8473V6.49h-7.8473"/>
      <line class="cls-7" x1="318.3968" y1="133.1302" x2="311.1532" y2="133.1302"/>
      <line class="cls-7" x1="318.3968" y1="109.0083" x2="311.1532" y2="109.0083"/>
      <line class="cls-7" x1="318.3968" y1="84.8865" x2="311.1532" y2="84.8865"/>
      <line class="cls-7" x1="318.3968" y1="60.7646" x2="311.1532" y2="60.7646"/>
      <line class="cls-7" x1="318.3968" y1="36.6427" x2="311.1532" y2="36.6427"/>
      <line class="cls-7" x1="318.3968" y1="12.5208" x2="311.1532" y2="12.5208"/>
    </g>
    <g>
      <text class="cls-8" transform="translate(12.2871 126.9392)">5</text>
      <text class="cls-8" transform="translate(12.2871 86.7351)">6</text>
      <text class="cls-8" transform="translate(12.2866 46.5327)">6</text>
      <text class="cls-8" transform="translate(12.2861 10.3498)">7</text>
      <text class="cls-8" transform="translate(108.8701 155.0818)">2</text>
      <text class="cls-8" transform="translate(108.8701 94.7771)">3</text>
      <text class="cls-8" transform="translate(108.8701 34.4724)">4</text>
      <text class="cls-8" transform="translate(205.4512 155.0818)">1</text>
      <text class="cls-8" transform="translate(205.4512 130.5515)">2</text>
      <text class="cls-8" transform="translate(205.4512 106.0193)">3</text>
      <text class="cls-8" transform="translate(205.4512 81.489)">4</text>
      <text class="cls-8" transform="translate(205.4512 56.9587)">5</text>
      <text class="cls-8" transform="translate(205.4512 32.4272)">5</text>
      <text class="cls-8" transform="translate(205.4512 10.3498)">6</text>
      <text class="cls-8" transform="translate(291.9648 136.989)">0.4</text>
      <text class="cls-8" transform="translate(291.9648 112.8679)">0.8</text>
      <text class="cls-8" transform="translate(291.9648 88.7458)">1.2</text>
      <text class="cls-8" transform="translate(291.9648 64.6242)">1.6</text>
      <text class="cls-8" transform="translate(291.9648 40.5027)">2.0</text>
      <text class="cls-8" transform="translate(291.9648 16.3811)">2.4</text>
    </g>
  </g>
</svg>
