<svg id="rawgraphs-icons" xmlns="http://www.w3.org/2000/svg" width="56" height="56" viewBox="0 0 56 56">
  <defs>
    <style>
      .cls-1 {
        fill: #95e5c0;
      }

      .cls-2 {
        fill: #06c26c;
      }
    </style>
  </defs>
  <g id="secundary">
    <rect class="cls-1" x="8" y="8" width="1" height="40"/>
    <rect class="cls-1" x="47" y="8" width="1" height="40"/>
    <rect class="cls-1" x="21" y="8" width="1" height="40"/>
    <rect class="cls-1" x="34" y="8" width="1" height="40"/>
  </g>
  <g id="primary">
    <polygon class="cls-2" points="34.34 30.518 21.356 17.91 8.148 21.497 7.886 20.532 21.644 16.796 34.66 29.435 47.894 26.822 48.087 27.803 34.34 30.518"/>
    <polygon class="cls-2" points="8.567 42.77 7.796 42.132 21.115 26.021 34.419 14.916 48.161 21.059 47.752 21.972 34.581 16.084 21.82 26.723 8.567 42.77"/>
    <polygon class="cls-2" points="8.2 45.594 7.86 44.654 21.455 39.732 34.585 42.007 48.064 43.886 47.926 44.876 34.431 42.995 21.545 40.762 8.2 45.594"/>
  </g>
</svg>
