<svg id="rawgraphs-icons" xmlns="http://www.w3.org/2000/svg" width="56" height="56" viewBox="0 0 56 56">
  <defs>
    <style>
      .cls-1 {
        fill: #95e5c0;
      }

      .cls-2 {
        fill: #06c26c;
      }
    </style>
  </defs>
  <polygon class="cls-1" points="25.65 29.708 33.838 33.541 35.881 27.129 25.356 21.205 25.476 24.666 25.476 24.666 25.65 29.708"/>
  <polygon class="cls-2" points="34.57 48 37.663 37.539 37.078 37.266 37.078 37.266 34.47 36.045 34.47 36.046 24.745 31.493 22.25 33.081 24.727 48 34.57 48"/>
  <polygon class="cls-1" points="37.927 35.454 48 40.169 48 22.979 36.884 27.273 34.75 33.968 35.318 34.234 35.318 34.234 37.926 35.455 37.927 35.454"/>
  <polygon class="cls-1" points="8 39.776 21.921 30.919 21.921 30.919 23.653 29.817 23.455 24.112 8 22.684 8 39.776"/>
  <polygon class="cls-2" points="21.334 33.664 21.308 33.681 21.307 33.68 8 42.147 8 48 23.713 48 21.334 33.664"/>
  <polygon class="cls-1" points="25.315 20.035 36.52 26.341 48 21.907 48 8 24.899 8 25.315 20.035"/>
  <polygon class="cls-2" points="38.579 37.968 35.612 48 48 48 48 42.378 38.579 37.968"/>
  <polygon class="cls-1" points="23.42 23.104 23.407 22.736 23.407 22.736 22.898 8 8 8 8 21.68 23.42 23.104"/>
</svg>
