<svg id="rawgraphs-icons" xmlns="http://www.w3.org/2000/svg" width="56" height="56" viewBox="0 0 56 56">
  <defs>
    <style>
      .cls-1 {
        fill: #95e5c0;
      }

      .cls-2 {
        fill: #06c26c;
      }
    </style>
  </defs>
  <g id="secundary">
    <path class="cls-1" d="M46,36.5a12.5819,12.5819,0,0,0-.0647-1.2765A18.4765,18.4765,0,0,0,9.0491,35.53,9.5958,9.5958,0,0,0,9,36.5h1a2.5,2.5,0,0,1,5,0h1a5.4595,5.4595,0,0,1,6.2635-5.4406A12.4026,12.4026,0,0,0,21,36.5h1a11.4147,11.4147,0,0,1,1.2594-5.2061A5.5067,5.5067,0,0,1,27,36.5h1a9.4809,9.4809,0,0,0-3.3994-7.2723,11.4824,11.4824,0,0,1,19.39,2.5843A6.4914,6.4914,0,0,0,33,36.5h1a2.5,2.5,0,0,1,5,0h1A3.5042,3.5042,0,0,0,36.5,33a3.4586,3.4586,0,0,0-1.5038.3531,5.4954,5.4954,0,0,1,9.9754,2.5853c.0091.1873.0284.372.0284.5616ZM21.5,30a6.5082,6.5082,0,0,0-6.1676,4.4611,3.4741,3.4741,0,0,0-4.8217-.8345,8.4807,8.4807,0,0,1,12.6938-4.2c-.1559.2262-.2967.4627-.4378.6993A6.4973,6.4973,0,0,0,21.5,30Zm3.4943,1.0281a6.48,6.48,0,0,0-1.2336-.6144c.08-.1275.1542-.2587.2389-.3828A8.5707,8.5707,0,0,1,24.9943,31.0281ZM33.5,24a12.4777,12.4777,0,0,0-9.6944,4.6233A9.4733,9.4733,0,0,0,11.024,30.6584a17.4738,17.4738,0,0,1,31.9686-2.27A12.469,12.469,0,0,0,33.5,24Z"/>
  </g>
  <g id="primary">
    <circle class="cls-2" cx="9.5" cy="36.5" r="1.5"/>
    <circle class="cls-2" cx="15.5" cy="36.5" r="1.5"/>
    <circle class="cls-2" cx="21.5" cy="36.5" r="1.5"/>
    <circle class="cls-2" cx="27.5" cy="36.5" r="1.5"/>
    <circle class="cls-2" cx="33.5" cy="36.5" r="1.5"/>
    <circle class="cls-2" cx="39.5" cy="36.5" r="1.5"/>
    <circle class="cls-2" cx="45.5" cy="36.5" r="1.5"/>
  </g>
</svg>
