<svg id="Layer_1" data-name="Layer 1" xmlns="http://www.w3.org/2000/svg" width="320" height="160" viewBox="0 0 320 160">
  <defs>
    <style>
      .cls-1 {
        fill: none;
        stroke: #ccc;
      }

      .cls-2 {
        fill: #9e0142;
      }

      .cls-3 {
        fill: #5e4fa2;
      }

      .cls-4 {
        fill: #e0f3a1;
      }

      .cls-5 {
        fill: #fedd8d;
      }

      .cls-6 {
        fill: #69bda9;
      }

      .cls-7 {
        fill: #f0704a;
      }
    </style>
  </defs>
  <g>
    <path class="cls-1" d="M165.23547,152.97288a11.48737,11.48737,0,0,0-22.97475,0"/>
    <path class="cls-1" d="M38.87432,152.97288a28.71845,28.71845,0,0,1,57.43689,0"/>
    <path class="cls-1" d="M4.41219,152.97288a11.48738,11.48738,0,0,1,22.97476,0"/>
    <path class="cls-1" d="M188.21023,152.97288a22.97475,22.97475,0,1,1,45.94951,0"/>
    <path class="cls-1" d="M245.64712,152.97288a120.61747,120.61747,0,0,0-241.23493,0"/>
    <path class="cls-1" d="M50.3617,152.97288a22.97476,22.97476,0,1,0-45.94951,0"/>
    <path class="cls-1" d="M188.21023,152.97288a5.74369,5.74369,0,1,0-11.48738,0"/>
    <path class="cls-1" d="M291.59663,152.97288a143.59222,143.59222,0,1,0-287.18444,0"/>
    <path class="cls-1" d="M153.74809,152.97288a11.48738,11.48738,0,0,1,22.97476,0"/>
    <path class="cls-1" d="M119.286,152.97288a5.74369,5.74369,0,1,1,11.48738,0"/>
    <path class="cls-1" d="M38.87432,152.97288a5.74369,5.74369,0,1,1,11.48738,0"/>
    <path class="cls-1" d="M165.23547,152.97288a5.74369,5.74369,0,1,1,11.48738,0"/>
    <path class="cls-1" d="M257.1345,152.97288a91.899,91.899,0,1,0-183.798,0"/>
    <path class="cls-1" d="M176.72285,152.97288a17.23107,17.23107,0,0,0-34.46213,0h0"/>
    <path class="cls-1" d="M234.15974,152.97288a11.48737,11.48737,0,0,0-22.97475,0"/>
    <path class="cls-1" d="M303.084,152.97288a132.10485,132.10485,0,0,0-264.20968,0"/>
    <path class="cls-1" d="M234.15974,152.97288a17.23107,17.23107,0,0,0-34.46213,0h0"/>
    <path class="cls-1" d="M165.23547,152.97288a28.71844,28.71844,0,0,0-57.43688,0"/>
    <path class="cls-1" d="M73.33645,152.97288a34.46213,34.46213,0,0,0-68.92426,0"/>
    <path class="cls-1" d="M211.185,152.97288a5.74369,5.74369,0,1,0-11.48738,0"/>
    <path class="cls-1" d="M15.89957,152.97288a17.23107,17.23107,0,0,1,34.46213,0h0"/>
    <path class="cls-1" d="M38.87432,152.97288a86.15534,86.15534,0,0,1,172.31067,0"/>
    <path class="cls-1" d="M188.21023,152.97288a5.74369,5.74369,0,1,1,11.48738,0"/>
    <path class="cls-1" d="M107.79859,152.97288a11.48738,11.48738,0,0,1,22.97476,0"/>
    <path class="cls-1" d="M15.89957,152.97288a5.74369,5.74369,0,1,0-11.48738,0"/>
    <path class="cls-1" d="M188.21023,152.97288a11.48738,11.48738,0,0,1,22.97476,0"/>
    <path class="cls-1" d="M165.23547,152.97288a5.74369,5.74369,0,1,0-11.48738,0"/>
    <path class="cls-1" d="M107.79859,152.97288a5.74369,5.74369,0,1,1,11.48738,0"/>
    <path class="cls-1" d="M107.79859,152.97288a34.46213,34.46213,0,0,1,68.92426,0"/>
    <path class="cls-1" d="M314.57139,152.97288a103.3864,103.3864,0,1,0-206.77281,0h0"/>
    <path class="cls-1" d="M38.87432,152.97288a114.87378,114.87378,0,1,1,229.74756,0"/>
    <path class="cls-1" d="M38.87432,152.97288a17.23107,17.23107,0,0,0-34.46213,0"/>
    <path class="cls-1" d="M38.87432,152.97288a11.48738,11.48738,0,0,0-22.97475,0"/>
    <path class="cls-1" d="M61.84908,152.97288a28.71845,28.71845,0,0,0-57.43689,0"/>
    <path class="cls-1" d="M291.59663,152.97288a97.64271,97.64271,0,0,0-195.28542,0"/>
    <path class="cls-1" d="M314.57139,152.97288a68.92427,68.92427,0,0,0-137.84854,0h0"/>
    <path class="cls-1" d="M84.82383,152.97288a22.97476,22.97476,0,1,0-45.94951,0"/>
    <path class="cls-1" d="M222.67236,152.97288a109.13009,109.13009,0,0,0-218.26017,0"/>
    <path class="cls-1" d="M176.72285,152.97288a28.71844,28.71844,0,0,0-57.43688,0"/>
    <path class="cls-1" d="M107.79859,152.97288a63.18058,63.18058,0,0,1,126.36115,0"/>
    <path class="cls-1" d="M107.79859,152.97288a34.46214,34.46214,0,0,0-68.92427,0"/>
    <path class="cls-1" d="M153.74809,152.97288a5.74369,5.74369,0,1,0-11.48737,0"/>
    <path class="cls-1" d="M188.21023,152.97288a74.668,74.668,0,1,0-149.3359,0h0"/>
    <path class="cls-1" d="M130.77332,152.97288a74.668,74.668,0,1,1,149.33592,0"/>
    <path class="cls-1" d="M107.79859,152.97288a51.6932,51.6932,0,1,1,103.3864,0"/>
    <circle class="cls-2" cx="4.41219" cy="152.97288" r="4.4122"/>
    <circle class="cls-3" cx="15.89957" cy="152.97288" r="3.84557"/>
    <circle class="cls-4" cx="27.38695" cy="152.97288" r="3.61601"/>
    <circle class="cls-2" cx="38.87432" cy="152.97288" r="7.02712"/>
    <circle class="cls-2" cx="50.3617" cy="152.97288" r="3.91323"/>
    <circle class="cls-5" cx="61.84908" cy="152.97288" r="3.01162"/>
    <circle class="cls-2" cx="73.33645" cy="152.97288" r="3.01162"/>
    <circle class="cls-2" cx="84.82383" cy="152.97288" r="3.01162"/>
    <circle class="cls-3" cx="96.31121" cy="152.97288" r="3.01162"/>
    <circle class="cls-3" cx="107.79859" cy="152.97288" r="4.36371"/>
    <circle class="cls-3" cx="119.28597" cy="152.97288" r="3.52703"/>
    <circle class="cls-6" cx="130.77335" cy="152.97288" r="3.4286" transform="translate(-14.43719 13.6306) rotate(-5.65498)"/>
    <circle class="cls-4" cx="142.26072" cy="152.97288" r="3.4286"/>
    <circle class="cls-4" cx="153.74809" cy="152.97288" r="3.52703"/>
    <circle class="cls-4" cx="165.23547" cy="152.97288" r="3.52703"/>
    <circle class="cls-6" cx="176.72285" cy="152.97288" r="3.61602"/>
    <circle class="cls-7" cx="188.21023" cy="152.97288" r="5.687"/>
    <circle class="cls-7" cx="199.69761" cy="152.97288" r="4.26255"/>
    <circle class="cls-7" cx="211.18499" cy="152.97288" r="4.7613"/>
    <circle class="cls-6" cx="222.67236" cy="152.97288" r="3.01162"/>
    <circle class="cls-6" cx="234.15974" cy="152.97288" r="4.63738"/>
    <circle class="cls-6" cx="245.64712" cy="152.97288" r="3.01162"/>
    <circle class="cls-6" cx="257.1345" cy="152.97288" r="3.01162"/>
    <circle class="cls-5" cx="268.62188" cy="152.97288" r="3.31688"/>
    <circle class="cls-5" cx="280.10924" cy="152.97288" r="3.18435"/>
    <circle class="cls-5" cx="291.59663" cy="152.97288" r="3.01162"/>
    <circle class="cls-7" cx="303.084" cy="152.97288" r="3.01162"/>
    <circle class="cls-7" cx="314.57139" cy="152.97288" r="3.42861"/>
  </g>
</svg>
