<svg id="rawgraphs-icons" xmlns="http://www.w3.org/2000/svg" width="56" height="56" viewBox="0 0 56 56">
  <defs>
    <style>
      .cls-1 {
        fill: #95e5c0;
      }

      .cls-2 {
        fill: #06c26c;
      }
    </style>
  </defs>
  <g id="secundary">
    <rect class="cls-1" x="34" y="10" width="4" height="4"/>
    <rect class="cls-1" x="27" y="19" width="2" height="2"/>
    <rect class="cls-1" x="26" y="26" width="4" height="4"/>
    <rect class="cls-1" x="32" y="24" width="8" height="8"/>
    <rect class="cls-1" x="42" y="26" width="4" height="4"/>
    <rect class="cls-1" x="19" y="35" width="2" height="2"/>
    <rect class="cls-1" x="8" y="40" width="8" height="8"/>
    <rect class="cls-1" x="32" y="40" width="8" height="8"/>
  </g>
  <g id="primary">
    <rect class="cls-2" x="8" y="8" width="8" height="8"/>
    <rect class="cls-2" x="18" y="10" width="4" height="4"/>
    <rect class="cls-2" x="24" y="8" width="8" height="8"/>
    <rect class="cls-2" x="43" y="11" width="2" height="2"/>
    <rect class="cls-2" x="10" y="18" width="4" height="4"/>
    <rect class="cls-2" x="19" y="19" width="2" height="2"/>
    <rect class="cls-2" x="42" y="18" width="4" height="4"/>
    <rect class="cls-2" x="34" y="18" width="4" height="4"/>
    <rect class="cls-2" x="9" y="25" width="6" height="6"/>
    <rect class="cls-2" x="17" y="25" width="6" height="6"/>
    <rect class="cls-2" x="10" y="34" width="4" height="4"/>
    <rect class="cls-2" x="27" y="35" width="2" height="2"/>
    <rect class="cls-2" x="34" y="34" width="4" height="4"/>
    <rect class="cls-2" x="43" y="35" width="2" height="2"/>
    <rect class="cls-2" x="19" y="43" width="2" height="2"/>
    <rect class="cls-2" x="26" y="42" width="4" height="4"/>
    <rect class="cls-2" x="42" y="42" width="4" height="4"/>
  </g>
</svg>
