<?xml version="1.0" encoding="utf-8"?>
<!-- Generator: Adobe Illustrator 25.1.0, SVG Export Plug-In . SVG Version: 6.00 Build 0)  -->
<svg version="1.1" id="Layer_1" xmlns="http://www.w3.org/2000/svg" xmlns:xlink="http://www.w3.org/1999/xlink" x="0px" y="0px"
	 viewBox="0 0 320 160" style="enable-background:new 0 0 320 160;" xml:space="preserve">
<style type="text/css">
	.st0{fill:#FFFFFF;}
	.st1{fill:none;stroke:#000000;}
	.st2{font-family:'Helvetica';}
	.st3{font-size:10px;}
	.st4{font-family:'ArialMT';}
	.st5{fill:#D5EE9F;}
	.st6{fill:none;stroke:#CCCCCC;}
	.st7{fill:#9E0142;}
</style>
<rect id="background" y="0" class="st0" width="320" height="160"/>
<path class="st1" d="M10.5,146v-5.5h297v5.5"/>
<line class="st1" x1="30.5" y1="140" x2="30.5" y2="146"/>
<text transform="matrix(1 0 0 1 19.377 156.1)" class="st2 st3">1950</text>
<line class="st1" x1="69.5" y1="140" x2="69.5" y2="146"/>
<text transform="matrix(1 0 0 1 58.377 156.1)" class="st2 st3">1960</text>
<line class="st1" x1="109.5" y1="140" x2="109.5" y2="146"/>
<text transform="matrix(1 0 0 1 98.377 156.1)" class="st2 st3">1970</text>
<line class="st1" x1="149.5" y1="140" x2="149.5" y2="146"/>
<text transform="matrix(1 0 0 1 138.377 156.1)" class="st2 st3">1980</text>
<line class="st1" x1="188.5" y1="140" x2="188.5" y2="146"/>
<text transform="matrix(1 0 0 1 177.377 156.1)" class="st2 st3">1990</text>
<line class="st1" x1="228.5" y1="140" x2="228.5" y2="146"/>
<text transform="matrix(1 0 0 1 217.377 156.1)" class="st2 st3">2000</text>
<line class="st1" x1="267.5" y1="140" x2="267.5" y2="146"/>
<text transform="matrix(1 0 0 1 256.377 156.1)" class="st2 st3">2010</text>
<line class="st1" x1="307.5" y1="140" x2="307.5" y2="146"/>
<text transform="matrix(1 0 0 1 296.377 156.1)" class="st2 st3">2020</text>
<text transform="matrix(1 0 0 1 1.8893 14.1364)" class="st4 st3">A</text>
<rect x="79" y="5" class="st5" width="10" height="12.3"/>
<line class="st6" x1="10" y1="5" x2="307" y2="5"/>
<text transform="matrix(1 0 0 1 1.9083 26.4091)" class="st4 st3">B</text>
<rect x="225" y="17.3" class="st7" width="28" height="12.3"/>
<line class="st6" x1="10" y1="17.3" x2="307" y2="17.3"/>
<text transform="matrix(1 0 0 1 1.3566 38.6818)" class="st4 st3">C</text>
<rect x="22" y="29.5" class="st5" width="1" height="12.3"/>
<line class="st6" x1="10" y1="29.5" x2="307" y2="29.5"/>
<text transform="matrix(1 0 0 1 1.3566 50.9545)" class="st4 st3">D</text>
<rect x="170" y="41.8" class="st7" width="27" height="12.3"/>
<rect x="103.5" y="41.8" class="st5" width="11" height="12.3"/>
<line class="st6" x1="10" y1="41.8" x2="307" y2="41.8"/>
<text transform="matrix(1 0 0 1 1.9083 63.2273)" class="st4 st3">E</text>
<rect x="253" y="54.1" class="st5" width="34" height="12.3"/>
<line class="st6" x1="10" y1="54.1" x2="307" y2="54.1"/>
<text transform="matrix(1 0 0 1 2.4698 75.5)" class="st4 st3">F</text>
<rect x="51" y="66.4" class="st7" width="28" height="12.3"/>
<line class="st6" x1="10" y1="66.4" x2="307" y2="66.4"/>
<text transform="matrix(1 0 0 1 0.7999 87.7727)" class="st4 st3">G</text>
<rect x="117" y="78.6" class="st7" width="25" height="12.3"/>
<rect x="296.4" y="78.6" class="st5" width="10.6" height="12.3"/>
<line class="st6" x1="10" y1="78.6" x2="307" y2="78.6"/>
<text transform="matrix(1 0 0 1 1.3566 100.0455)" class="st4 st3">H</text>
<rect x="89" y="90.9" class="st7" width="28" height="12.3"/>
<line class="st6" x1="10" y1="90.9" x2="307" y2="90.9"/>
<text transform="matrix(1 0 0 1 5.7999 112.3182)" class="st4 st3">I</text>
<rect x="23" y="103.2" class="st7" width="28" height="12.3"/>
<line class="st6" x1="10" y1="103.2" x2="307" y2="103.2"/>
<text transform="matrix(1 0 0 1 3.3785 124.5909)" class="st4 st3">L</text>
<rect x="198" y="115.5" class="st5" width="27" height="12.3"/>
<line class="st6" x1="10" y1="115.5" x2="307" y2="115.5"/>
<text transform="matrix(1 0 0 1 0.2482 136.8636)" class="st4 st3">M</text>
<rect x="143" y="127.7" class="st5" width="27" height="12.3"/>
<line class="st6" x1="10" y1="127.7" x2="307" y2="127.7"/>
</svg>
